<?xml version="1.0" encoding="UTF-8"?><svg width="107.685mm" height="60.0604mm" viewBox="0 0 407 227" xmlns="http://www.w3.org/2000/svg" xmlns:xlink="http://www.w3.org/1999/xlink"><g fill="none" stroke="black" stroke-width="1" fill-rule="evenodd" stroke-linecap="square" stroke-linejoin="bevel"><g clip-path="none" fill="#ffffff" fill-opacity="1" opacity="1" stroke="none" stroke-opacity="0" transform="matrix(1,0,0,1,0,0)"><path d="M0,0 L407.195,0 L407.195,227 L0,227 L0,0 z" fill-rule="evenodd" vector-effect="none"/></g><defs><clipPath id="clip3"><path d="M-72,-112 L335.195,-112 L335.195,115 L-72,115 L-72,-112 z"/></clipPath></defs><g clip-path="url(#clip3)" fill="#ffffff" fill-opacity="1" opacity="1" stroke="none" stroke-opacity="0" transform="matrix(1,0,0,1,72,112)"><path d="M30,15 C30,23.2843 23.2843,30 15,30 C6.71573,30 0,23.2843 0,15 C0,6.71573 6.71573,0 15,0 C23.2843,0 30,6.71573 30,15 z" fill-rule="nonzero" vector-effect="none"/></g><defs><clipPath id="clip7"><path d="M200,110 L230,110 L230,140 L200,140 L200,110 z"/></clipPath></defs><g clip-path="url(#clip7)" fill="none" opacity="1" stroke="#000000" stroke-linecap="butt" stroke-linejoin="miter" stroke-miterlimit="2" stroke-opacity="1" stroke-width="1" transform="matrix(1,0,0,1,-127.5,2.5)"><polyline fill="none" points="213,115 217,115" vector-effect="none"/></g><defs><clipPath id="clip8"><path d="M200,110 L230,110 L230,140 L200,140 L200,110 z"/></clipPath></defs><g clip-path="url(#clip8)" fill="none" opacity="1" stroke="#000000" stroke-linecap="butt" stroke-linejoin="miter" stroke-miterlimit="2" stroke-opacity="1" stroke-width="1" transform="matrix(1,0,0,1,-127.5,2.5)"><polyline fill="none" points="203,125 207,125" vector-effect="none"/></g><defs><clipPath id="clip9"><path d="M200,110 L230,110 L230,140 L200,140 L200,110 z"/></clipPath></defs><g clip-path="url(#clip9)" fill="none" opacity="1" stroke="#000000" stroke-linecap="butt" stroke-linejoin="miter" stroke-miterlimit="2" stroke-opacity="1" stroke-width="1" transform="matrix(1,0,0,1,-127.5,2.5)"><polyline fill="none" points="205,123 205,127" vector-effect="none"/></g><defs><clipPath id="clip10"><path d="M200,110 L230,110 L230,140 L200,140 L200,110 z"/></clipPath></defs><g clip-path="url(#clip10)" fill="none" opacity="1" stroke="#000000" stroke-linecap="butt" stroke-linejoin="miter" stroke-miterlimit="2" stroke-opacity="1" stroke-width="1" transform="matrix(1,0,0,1,-127.5,2.5)"><polyline fill="none" points="213,135 217,135" vector-effect="none"/></g><defs><clipPath id="clip15"><path d="M-72.5,-112.5 L334.695,-112.5 L334.695,114.5 L-72.5,114.5 L-72.5,-112.5 z"/></clipPath></defs><g clip-path="url(#clip15)" fill="none" opacity="1" stroke="#000000" stroke-linecap="butt" stroke-linejoin="miter" stroke-miterlimit="2" stroke-opacity="1" stroke-width="1" transform="matrix(1,0,0,1,72.5,112.5)"><path d="M30,15 C30,23.2843 23.2843,30 15,30 C6.71573,30 0,23.2843 0,15 C0,6.71573 6.71573,0 15,0 C23.2843,0 30,6.71573 30,15 z" fill-rule="nonzero" vector-effect="none"/></g><defs><clipPath id="clip18"><path d="M-192,-112 L215.195,-112 L215.195,115 L-192,115 L-192,-112 z"/></clipPath></defs><g clip-path="url(#clip18)" fill="#ffffff" fill-opacity="1" opacity="1" stroke="none" stroke-opacity="0" transform="matrix(1,0,0,1,192,112)"><path d="M0,0 L30,0 L30,30 L0,30 L0,0 z" fill-rule="evenodd" vector-effect="none"/></g><defs><clipPath id="clip22"><path d="M0,0 L31,0 L31,31 L0,31 L0,0 z"/></clipPath></defs><g clip-path="url(#clip22)" fill="none" opacity="1" stroke="none" stroke-opacity="0" transform="matrix(1,0,0,1,192,112)"><path d="M0,0 L31,0 L31,31 L0,31 L0,0 z" fill-rule="evenodd" vector-effect="none"/></g><defs><clipPath id="clip33"><path d="M0,0 L9,0 L9,31 L0,31 L0,0 z"/></clipPath></defs><g clip-path="url(#clip33)" fill="#000000" fill-opacity="1" opacity="1" stroke="none" stroke-opacity="0" transform="matrix(0.85,0,0,0.85,203.175,113.825)"><path d="M1,15 L8,15 L8,16 L1,16 L1,15 z" fill-rule="evenodd" vector-effect="none"/></g><defs><clipPath id="clip34"><path d="M0,0 L9,0 L9,31 L0,31 L0,0 z"/></clipPath></defs><g clip-path="url(#clip34)" fill="#000000" fill-opacity="1" opacity="1" stroke="none" stroke-opacity="0" transform="matrix(0.85,0,0,0.85,203.175,113.825)"><path d="M6.125,11 L6.125,10.8125 C5.14063,10.8125 4.89063,10.5781 4.89063,10.0156 L4.89063,2.25 L4.76563,2.21875 L2.4375,3.39063 L2.4375,3.57813 L2.79688,3.45313 C3.03125,3.35938 3.25,3.29688 3.375,3.29688 C3.65625,3.29688 3.76563,3.48438 3.76563,3.92188 L3.76563,9.76563 C3.76563,10.4844 3.5,10.75 2.53125,10.8125 L2.53125,11 L6.125,11 z" fill-rule="nonzero" vector-effect="none"/></g><defs><clipPath id="clip35"><path d="M0,0 L9,0 L9,31 L0,31 L0,0 z"/></clipPath></defs><g clip-path="url(#clip35)" fill="#000000" fill-opacity="1" opacity="1" stroke="none" stroke-opacity="0" transform="matrix(0.85,0,0,0.85,203.175,113.825)"><path d="M6.23438,21.25 L6.04688,21.25 C5.9375,21.4375 5.84375,21.4844 5.65625,21.4844 C5.54688,21.4844 5.4375,21.4688 5.1875,21.3906 C4.85938,21.3125 4.6875,21.2656 4.45313,21.2656 C3.5,21.2656 2.89063,21.8125 2.89063,22.6719 C2.89063,23.0938 3.14063,23.6719 3.70313,24.375 C4.21875,25.0156 4.4375,25.4531 4.4375,25.875 C4.4375,26.5 4.0625,26.875 3.4375,26.875 C2.76563,26.875 2.32813,26.3438 2.14063,25.1094 L1.9375,25.1094 L1.67188,27.1719 L1.89063,27.1719 C1.96875,26.9688 2.125,26.8906 2.26563,26.8906 C2.40625,26.8906 2.59375,26.9063 2.82813,27.0156 C3.14063,27.125 3.32813,27.1406 3.54688,27.1406 C4.625,27.1406 5.42188,26.4844 5.42188,25.4063 C5.42188,24.8906 5.1875,24.3906 4.53125,23.6406 C4.03125,23.0313 3.82813,22.6563 3.82813,22.3125 C3.82813,21.8281 4.14063,21.5625 4.60938,21.5625 C5.23438,21.5625 5.625,22 5.76563,23.0781 L5.96875,23.0781 L6.23438,21.25 z" fill-rule="nonzero" vector-effect="none"/></g><defs><clipPath id="clip58"><path d="M-192.5,-112.5 L214.695,-112.5 L214.695,114.5 L-192.5,114.5 L-192.5,-112.5 z"/></clipPath></defs><g clip-path="url(#clip58)" fill="none" opacity="1" stroke="#000000" stroke-linecap="butt" stroke-linejoin="miter" stroke-miterlimit="2" stroke-opacity="1" stroke-width="1" transform="matrix(1,0,0,1,192.5,112.5)"><path d="M0,0 L30,0 L30,30 L0,30 L0,0 z" fill-rule="evenodd" vector-effect="none"/></g><defs><clipPath id="clip61"><path d="M-282,-112 L125.195,-112 L125.195,115 L-282,115 L-282,-112 z"/></clipPath></defs><g clip-path="url(#clip61)" fill="#ffffff" fill-opacity="1" opacity="1" stroke="none" stroke-opacity="0" transform="matrix(1,0,0,1,282,112)"><path d="M0,0 L30,0 L30,30 L0,30 L0,0 z" fill-rule="evenodd" vector-effect="none"/></g><defs><clipPath id="clip65"><path d="M0,0 L31,0 L31,31 L0,31 L0,0 z"/></clipPath></defs><g clip-path="url(#clip65)" fill="none" opacity="1" stroke="none" stroke-opacity="0" transform="matrix(1,0,0,1,282,112)"><path d="M0,0 L31,0 L31,31 L0,31 L0,0 z" fill-rule="evenodd" vector-effect="none"/></g><defs><clipPath id="clip76"><path d="M0,0 L9,0 L9,31 L0,31 L0,0 z"/></clipPath></defs><g clip-path="url(#clip76)" fill="#000000" fill-opacity="1" opacity="1" stroke="none" stroke-opacity="0" transform="matrix(0.85,0,0,0.85,293.175,113.825)"><path d="M1,15 L8,15 L8,16 L1,16 L1,15 z" fill-rule="evenodd" vector-effect="none"/></g><defs><clipPath id="clip77"><path d="M0,0 L9,0 L9,31 L0,31 L0,0 z"/></clipPath></defs><g clip-path="url(#clip77)" fill="#000000" fill-opacity="1" opacity="1" stroke="none" stroke-opacity="0" transform="matrix(0.85,0,0,0.85,293.175,113.825)"><path d="M6.125,11 L6.125,10.8125 C5.14063,10.8125 4.89063,10.5781 4.89063,10.0156 L4.89063,2.25 L4.76563,2.21875 L2.4375,3.39063 L2.4375,3.57813 L2.79688,3.45313 C3.03125,3.35938 3.25,3.29688 3.375,3.29688 C3.65625,3.29688 3.76563,3.48438 3.76563,3.92188 L3.76563,9.76563 C3.76563,10.4844 3.5,10.75 2.53125,10.8125 L2.53125,11 L6.125,11 z" fill-rule="nonzero" vector-effect="none"/></g><defs><clipPath id="clip78"><path d="M0,0 L9,0 L9,31 L0,31 L0,0 z"/></clipPath></defs><g clip-path="url(#clip78)" fill="#000000" fill-opacity="1" opacity="1" stroke="none" stroke-opacity="0" transform="matrix(0.85,0,0,0.85,293.175,113.825)"><path d="M6.23438,21.25 L6.04688,21.25 C5.9375,21.4375 5.84375,21.4844 5.65625,21.4844 C5.54688,21.4844 5.4375,21.4688 5.1875,21.3906 C4.85938,21.3125 4.6875,21.2656 4.45313,21.2656 C3.5,21.2656 2.89063,21.8125 2.89063,22.6719 C2.89063,23.0938 3.14063,23.6719 3.70313,24.375 C4.21875,25.0156 4.4375,25.4531 4.4375,25.875 C4.4375,26.5 4.0625,26.875 3.4375,26.875 C2.76563,26.875 2.32813,26.3438 2.14063,25.1094 L1.9375,25.1094 L1.67188,27.1719 L1.89063,27.1719 C1.96875,26.9688 2.125,26.8906 2.26563,26.8906 C2.40625,26.8906 2.59375,26.9063 2.82813,27.0156 C3.14063,27.125 3.32813,27.1406 3.54688,27.1406 C4.625,27.1406 5.42188,26.4844 5.42188,25.4063 C5.42188,24.8906 5.1875,24.3906 4.53125,23.6406 C4.03125,23.0313 3.82813,22.6563 3.82813,22.3125 C3.82813,21.8281 4.14063,21.5625 4.60938,21.5625 C5.23438,21.5625 5.625,22 5.76563,23.0781 L5.96875,23.0781 L6.23438,21.25 z" fill-rule="nonzero" vector-effect="none"/></g><defs><clipPath id="clip101"><path d="M-282.5,-112.5 L124.695,-112.5 L124.695,114.5 L-282.5,114.5 L-282.5,-112.5 z"/></clipPath></defs><g clip-path="url(#clip101)" fill="none" opacity="1" stroke="#000000" stroke-linecap="butt" stroke-linejoin="miter" stroke-miterlimit="2" stroke-opacity="1" stroke-width="1" transform="matrix(1,0,0,1,282.5,112.5)"><path d="M0,0 L30,0 L30,30 L0,30 L0,0 z" fill-rule="evenodd" vector-effect="none"/></g><defs><clipPath id="clip104"><path d="M-72,-7 L335.195,-7 L335.195,220 L-72,220 L-72,-7 z"/></clipPath></defs><g clip-path="url(#clip104)" fill="#ffffff" fill-opacity="1" opacity="1" stroke="none" stroke-opacity="0" transform="matrix(1,0,0,1,72,7)"><path d="M15,30 C6.71573,30 0,23.2843 0,15 C0,6.71573 6.71573,1.42575e-15 15,9.18485e-16 C23.2843,4.1122e-16 30,6.71573 30,15 C30,23.2843 23.2843,30 15,30 z" fill-rule="nonzero" vector-effect="none"/></g><defs><clipPath id="clip108"><path d="M200,5 L230,5 L230,35 L200,35 L200,5 z"/></clipPath></defs><g clip-path="url(#clip108)" fill="none" opacity="1" stroke="#000000" stroke-linecap="butt" stroke-linejoin="miter" stroke-miterlimit="2" stroke-opacity="1" stroke-width="1" transform="matrix(1,0,0,1,-127.5,2.5)"><polyline fill="none" points="203,19 207,19" vector-effect="none"/></g><defs><clipPath id="clip109"><path d="M200,5 L230,5 L230,35 L200,35 L200,5 z"/></clipPath></defs><g clip-path="url(#clip109)" fill="none" opacity="1" stroke="#000000" stroke-linecap="butt" stroke-linejoin="miter" stroke-miterlimit="2" stroke-opacity="1" stroke-width="1" transform="matrix(1,0,0,1,-127.5,2.5)"><polyline fill="none" points="205,17 205,21" vector-effect="none"/></g><defs><clipPath id="clip110"><path d="M200,5 L230,5 L230,35 L200,35 L200,5 z"/></clipPath></defs><g clip-path="url(#clip110)" fill="none" opacity="1" stroke="#000000" stroke-linecap="butt" stroke-linejoin="miter" stroke-miterlimit="2" stroke-opacity="1" stroke-width="1" transform="matrix(1,0,0,1,-127.5,2.5)"><polyline fill="none" points="223,20 227,20" vector-effect="none"/></g><defs><clipPath id="clip111"><path d="M200,5 L230,5 L230,35 L200,35 L200,5 z"/></clipPath></defs><g clip-path="url(#clip111)" fill="none" opacity="1" stroke="#000000" stroke-linecap="butt" stroke-linejoin="miter" stroke-miterlimit="2" stroke-opacity="1" stroke-width="1" transform="matrix(1,0,0,1,-127.5,2.5)"><polyline fill="none" points="225,18 225,22" vector-effect="none"/></g><defs><clipPath id="clip116"><path d="M-72.5,-7.5 L334.695,-7.5 L334.695,219.5 L-72.5,219.5 L-72.5,-7.5 z"/></clipPath></defs><g clip-path="url(#clip116)" fill="none" opacity="1" stroke="#000000" stroke-linecap="butt" stroke-linejoin="miter" stroke-miterlimit="2" stroke-opacity="1" stroke-width="1" transform="matrix(1,0,0,1,72.5,7.5)"><path d="M15,30 C6.71573,30 0,23.2843 0,15 C0,6.71573 6.71573,1.42575e-15 15,9.18485e-16 C23.2843,4.1122e-16 30,6.71573 30,15 C30,23.2843 23.2843,30 15,30 z" fill-rule="nonzero" vector-effect="none"/></g><defs><clipPath id="clip119"><path d="M-192,-7 L215.195,-7 L215.195,220 L-192,220 L-192,-7 z"/></clipPath></defs><g clip-path="url(#clip119)" fill="#ffffff" fill-opacity="1" opacity="1" stroke="none" stroke-opacity="0" transform="matrix(1,0,0,1,192,7)"><path d="M0,0 L30,0 L30,30 L0,30 L0,0 z" fill-rule="evenodd" vector-effect="none"/></g><defs><clipPath id="clip123"><path d="M-15,-15 L15,-15 L15,15 L-15,15 L-15,-15 z"/></clipPath></defs><g clip-path="url(#clip123)" fill="none" opacity="1" stroke="#000000" stroke-linecap="butt" stroke-linejoin="miter" stroke-miterlimit="2" stroke-opacity="1" stroke-width="1" transform="matrix(1,0,0,1,207,22)"><text fill="#000000" fill-opacity="1" font-family="Arial" font-size="10" font-style="normal" font-weight="400" stroke="none" textLength="12.7656" x="-6.375" xml:space="preserve" y="3.5">sin</text></g><defs><clipPath id="clip128"><path d="M-192.5,-7.5 L214.695,-7.5 L214.695,219.5 L-192.5,219.5 L-192.5,-7.5 z"/></clipPath></defs><g clip-path="url(#clip128)" fill="none" opacity="1" stroke="#000000" stroke-linecap="butt" stroke-linejoin="miter" stroke-miterlimit="2" stroke-opacity="1" stroke-width="1" transform="matrix(1,0,0,1,192.5,7.5)"><path d="M0,0 L30,0 L30,30 L0,30 L0,0 z" fill-rule="evenodd" vector-effect="none"/></g><defs><clipPath id="clip131"><path d="M-72,-52 L335.195,-52 L335.195,175 L-72,175 L-72,-52 z"/></clipPath></defs><g clip-path="url(#clip131)" fill="#ffffff" fill-opacity="1" opacity="1" stroke="none" stroke-opacity="0" transform="matrix(1,0,0,1,72,52)"><path d="M30,0 L15,30 L0,1.83697e-15 L30,0 z" fill-rule="nonzero" vector-effect="none"/></g><defs><clipPath id="clip135"><path d="M0,0 L30,0 L30,30 L0,30 L0,0 z"/></clipPath></defs><g clip-path="url(#clip135)" fill="none" opacity="1" stroke="none" stroke-opacity="0" transform="matrix(1,0,0,1,72,52)"><path d="M30,0 L15,30 L0,1.83697e-15 L30,0 z" fill-rule="nonzero" vector-effect="none"/></g><defs><clipPath id="clip145"><path d="M0,5 L30,5 L30,35 L0,35 L0,5 z"/></clipPath></defs><g clip-path="url(#clip145)" fill="#000000" fill-opacity="1" opacity="1" stroke="none" stroke-opacity="0" transform="matrix(1,-1.83697e-16,1.83697e-16,1,72,47.0859)"><path d="M12.8906,17.5781 L12.0156,17.5781 L12.0156,11.9844 C11.8073,12.1823 11.5313,12.3828 11.1875,12.5859 C10.8438,12.7891 10.5365,12.9375 10.2656,13.0313 L10.2656,12.1875 C10.7552,11.9583 11.1849,11.6797 11.5547,11.3516 C11.9245,11.0234 12.1823,10.7031 12.3281,10.3906 L12.8906,10.3906 L12.8906,17.5781 M14.7188,17.7031 L16.7969,10.2969 L17.5,10.2969 L15.4219,17.7031 L14.7188,17.7031 M18.1406,17.5781 L18.1406,12.3906 L18.9219,12.3906 L18.9219,13.1719 C19.1302,12.8073 19.3177,12.5677 19.4844,12.4531 C19.651,12.3385 19.8385,12.2813 20.0469,12.2813 C20.349,12.2813 20.651,12.375 20.9531,12.5625 L20.6563,13.375 C20.4375,13.25 20.2188,13.1875 20,13.1875 C19.8125,13.1875 19.6406,13.2448 19.4844,13.3594 C19.3281,13.474 19.2188,13.6354 19.1563,13.8438 C19.0625,14.1563 19.0156,14.4948 19.0156,14.8594 L19.0156,17.5781 L18.1406,17.5781" fill-rule="nonzero" vector-effect="none"/></g><defs><clipPath id="clip165"><path d="M-72.5,-52.5 L334.695,-52.5 L334.695,174.5 L-72.5,174.5 L-72.5,-52.5 z"/></clipPath></defs><g clip-path="url(#clip165)" fill="none" opacity="1" stroke="#000000" stroke-linecap="butt" stroke-linejoin="miter" stroke-miterlimit="2" stroke-opacity="1" stroke-width="1" transform="matrix(1,0,0,1,72.5,52.5)"><path d="M30,0 L15,30 L0,1.83697e-15 L30,0 z" fill-rule="nonzero" vector-effect="none"/></g><defs><clipPath id="clip168"><path d="M-232,-72 L175.195,-72 L175.195,155 L-232,155 L-232,-72 z"/></clipPath></defs><g clip-path="url(#clip168)" fill="#ffffff" fill-opacity="1" opacity="1" stroke="none" stroke-opacity="0" transform="matrix(1,0,0,1,232,72)"><path d="M0,30 L15,0 L30,30 L0,30 z" fill-rule="nonzero" vector-effect="none"/></g><defs><clipPath id="clip172"><path d="M0,0 L30,0 L30,31 L0,31 L0,0 z"/></clipPath></defs><g clip-path="url(#clip172)" fill="none" opacity="1" stroke="none" stroke-opacity="0" transform="matrix(1,0,0,1,232,72)"><path d="M0,30 L15,0 L30,30 L0,30 z" fill-rule="nonzero" vector-effect="none"/></g><defs><clipPath id="clip182"><path d="M0,-7 L30,-7 L30,23 L0,23 L0,-7 z"/></clipPath></defs><g clip-path="url(#clip182)" fill="#000000" fill-opacity="1" opacity="1" stroke="none" stroke-opacity="0" transform="matrix(1,-1.83697e-16,1.83697e-16,1,232,78.7422)"><path d="M12.8906,17.5781 L12.0156,17.5781 L12.0156,11.9844 C11.8073,12.1823 11.5313,12.3828 11.1875,12.5859 C10.8438,12.7891 10.5365,12.9375 10.2656,13.0313 L10.2656,12.1875 C10.7552,11.9583 11.1849,11.6797 11.5547,11.3516 C11.9245,11.0234 12.1823,10.7031 12.3281,10.3906 L12.8906,10.3906 L12.8906,17.5781 M14.7188,17.7031 L16.7969,10.2969 L17.5,10.2969 L15.4219,17.7031 L14.7188,17.7031 M18.1406,17.5781 L18.1406,12.3906 L18.9219,12.3906 L18.9219,13.1719 C19.1302,12.8073 19.3177,12.5677 19.4844,12.4531 C19.651,12.3385 19.8385,12.2813 20.0469,12.2813 C20.349,12.2813 20.651,12.375 20.9531,12.5625 L20.6563,13.375 C20.4375,13.25 20.2188,13.1875 20,13.1875 C19.8125,13.1875 19.6406,13.2448 19.4844,13.3594 C19.3281,13.474 19.2188,13.6354 19.1563,13.8438 C19.0625,14.1563 19.0156,14.4948 19.0156,14.8594 L19.0156,17.5781 L18.1406,17.5781" fill-rule="nonzero" vector-effect="none"/></g><defs><clipPath id="clip202"><path d="M-232.5,-72.5 L174.695,-72.5 L174.695,154.5 L-232.5,154.5 L-232.5,-72.5 z"/></clipPath></defs><g clip-path="url(#clip202)" fill="none" opacity="1" stroke="#000000" stroke-linecap="butt" stroke-linejoin="miter" stroke-miterlimit="2" stroke-opacity="1" stroke-width="1" transform="matrix(1,0,0,1,232.5,72.5)"><path d="M0,30 L15,0 L30,30 L0,30 z" fill-rule="nonzero" vector-effect="none"/></g><defs><clipPath id="clip205"><path d="M-282,-52 L125.195,-52 L125.195,175 L-282,175 L-282,-52 z"/></clipPath></defs><g clip-path="url(#clip205)" fill="#ffffff" fill-opacity="1" opacity="1" stroke="none" stroke-opacity="0" transform="matrix(1,0,0,1,282,52)"><path d="M0,0 L30,0 L30,30 L0,30 L0,0 z" fill-rule="evenodd" vector-effect="none"/></g><defs><clipPath id="clip209"><path d="M0,0 L31,0 L31,31 L0,31 L0,0 z"/></clipPath></defs><g clip-path="url(#clip209)" fill="none" opacity="1" stroke="none" stroke-opacity="0" transform="matrix(1,0,0,1,282,52)"><path d="M0,0 L31,0 L31,31 L0,31 L0,0 z" fill-rule="evenodd" vector-effect="none"/></g><defs><clipPath id="clip220"><path d="M0,0 L9,0 L9,31 L0,31 L0,0 z"/></clipPath></defs><g clip-path="url(#clip220)" fill="#000000" fill-opacity="1" opacity="1" stroke="none" stroke-opacity="0" transform="matrix(0.85,0,0,0.85,293.175,53.825)"><path d="M1,15 L8,15 L8,16 L1,16 L1,15 z" fill-rule="evenodd" vector-effect="none"/></g><defs><clipPath id="clip221"><path d="M0,0 L9,0 L9,31 L0,31 L0,0 z"/></clipPath></defs><g clip-path="url(#clip221)" fill="#000000" fill-opacity="1" opacity="1" stroke="none" stroke-opacity="0" transform="matrix(0.85,0,0,0.85,293.175,53.825)"><path d="M6.125,11 L6.125,10.8125 C5.14063,10.8125 4.89063,10.5781 4.89063,10.0156 L4.89063,2.25 L4.76563,2.21875 L2.4375,3.39063 L2.4375,3.57813 L2.79688,3.45313 C3.03125,3.35938 3.25,3.29688 3.375,3.29688 C3.65625,3.29688 3.76563,3.48438 3.76563,3.92188 L3.76563,9.76563 C3.76563,10.4844 3.5,10.75 2.53125,10.8125 L2.53125,11 L6.125,11 z" fill-rule="nonzero" vector-effect="none"/></g><defs><clipPath id="clip222"><path d="M0,0 L9,0 L9,31 L0,31 L0,0 z"/></clipPath></defs><g clip-path="url(#clip222)" fill="#000000" fill-opacity="1" opacity="1" stroke="none" stroke-opacity="0" transform="matrix(0.85,0,0,0.85,293.175,53.825)"><path d="M6.23438,21.25 L6.04688,21.25 C5.9375,21.4375 5.84375,21.4844 5.65625,21.4844 C5.54688,21.4844 5.4375,21.4688 5.1875,21.3906 C4.85938,21.3125 4.6875,21.2656 4.45313,21.2656 C3.5,21.2656 2.89063,21.8125 2.89063,22.6719 C2.89063,23.0938 3.14063,23.6719 3.70313,24.375 C4.21875,25.0156 4.4375,25.4531 4.4375,25.875 C4.4375,26.5 4.0625,26.875 3.4375,26.875 C2.76563,26.875 2.32813,26.3438 2.14063,25.1094 L1.9375,25.1094 L1.67188,27.1719 L1.89063,27.1719 C1.96875,26.9688 2.125,26.8906 2.26563,26.8906 C2.40625,26.8906 2.59375,26.9063 2.82813,27.0156 C3.14063,27.125 3.32813,27.1406 3.54688,27.1406 C4.625,27.1406 5.42188,26.4844 5.42188,25.4063 C5.42188,24.8906 5.1875,24.3906 4.53125,23.6406 C4.03125,23.0313 3.82813,22.6563 3.82813,22.3125 C3.82813,21.8281 4.14063,21.5625 4.60938,21.5625 C5.23438,21.5625 5.625,22 5.76563,23.0781 L5.96875,23.0781 L6.23438,21.25 z" fill-rule="nonzero" vector-effect="none"/></g><defs><clipPath id="clip245"><path d="M-282.5,-52.5 L124.695,-52.5 L124.695,174.5 L-282.5,174.5 L-282.5,-52.5 z"/></clipPath></defs><g clip-path="url(#clip245)" fill="none" opacity="1" stroke="#000000" stroke-linecap="butt" stroke-linejoin="miter" stroke-miterlimit="2" stroke-opacity="1" stroke-width="1" transform="matrix(1,0,0,1,282.5,52.5)"><path d="M0,0 L30,0 L30,30 L0,30 L0,0 z" fill-rule="evenodd" vector-effect="none"/></g><defs><clipPath id="clip248"><path d="M-2,-120 L405.195,-120 L405.195,107 L-2,107 L-2,-120 z"/></clipPath></defs><g clip-path="url(#clip248)" fill="#ffffff" fill-opacity="1" opacity="1" stroke="none" stroke-opacity="0" transform="matrix(1,0,0,1,2,120)"><path d="M7,0 L23,0 C26.866,0 30,3.13401 30,7 C30,10.866 26.866,14 23,14 L7,14 C3.13401,14 0,10.866 0,7 C0,3.13401 3.13401,0 7,0 z" fill-rule="nonzero" vector-effect="none"/></g><defs><clipPath id="clip252"><path d="M-15,-7 L15,-7 L15,7 L-15,7 L-15,-7 z"/></clipPath></defs><g clip-path="url(#clip252)" fill="none" opacity="1" stroke="#000000" stroke-linecap="butt" stroke-linejoin="miter" stroke-miterlimit="2" stroke-opacity="1" stroke-width="1" transform="matrix(1,0,0,1,17,127)"><text fill="#000000" fill-opacity="1" font-family="Arial" font-size="10" font-style="normal" font-weight="400" stroke="none" textLength="5.54688" x="-2.76562" xml:space="preserve" y="3.5">2</text></g><defs><clipPath id="clip257"><path d="M-2.5,-120.5 L404.695,-120.5 L404.695,106.5 L-2.5,106.5 L-2.5,-120.5 z"/></clipPath></defs><g clip-path="url(#clip257)" fill="none" opacity="1" stroke="#000000" stroke-linecap="butt" stroke-linejoin="miter" stroke-miterlimit="2" stroke-opacity="1" stroke-width="1" transform="matrix(1,0,0,1,2.5,120.5)"><path d="M7,0 L23,0 C26.866,0 30,3.13401 30,7 C30,10.866 26.866,14 23,14 L7,14 C3.13401,14 0,10.866 0,7 C0,3.13401 3.13401,0 7,0 z" fill-rule="nonzero" vector-effect="none"/></g><defs><clipPath id="clip263"><path d="M0,0 L22,0 L22,14 L0,14 L0,0 z"/></clipPath></defs><g clip-path="url(#clip263)" fill="none" opacity="1" stroke="#000000" stroke-linecap="square" stroke-linejoin="bevel" stroke-opacity="1" stroke-width="1" transform="matrix(1,0,0,1,6.01562,136)"><text fill="#000000" fill-opacity="1" font-family="Arial" font-size="10" font-style="normal" font-weight="400" stroke="none" textLength="19.9688" x="1" xml:space="preserve" y="10">T_m</text></g><defs><clipPath id="clip271"><path d="M-367,-60 L40.1953,-60 L40.1953,167 L-367,167 L-367,-60 z"/></clipPath></defs><g clip-path="url(#clip271)" fill="#ffffff" fill-opacity="1" opacity="1" stroke="none" stroke-opacity="0" transform="matrix(1,0,0,1,367,60)"><path d="M7,0 L23,0 C26.866,0 30,3.13401 30,7 C30,10.866 26.866,14 23,14 L7,14 C3.13401,14 0,10.866 0,7 C0,3.13401 3.13401,0 7,0 z" fill-rule="nonzero" vector-effect="none"/></g><defs><clipPath id="clip275"><path d="M-15,-7 L15,-7 L15,7 L-15,7 L-15,-7 z"/></clipPath></defs><g clip-path="url(#clip275)" fill="none" opacity="1" stroke="#000000" stroke-linecap="butt" stroke-linejoin="miter" stroke-miterlimit="2" stroke-opacity="1" stroke-width="1" transform="matrix(1,0,0,1,382,67)"><text fill="#000000" fill-opacity="1" font-family="Arial" font-size="10" font-style="normal" font-weight="400" stroke="none" textLength="5.54688" x="-2.76562" xml:space="preserve" y="3.5">1</text></g><defs><clipPath id="clip280"><path d="M-367.5,-60.5 L39.6953,-60.5 L39.6953,166.5 L-367.5,166.5 L-367.5,-60.5 z"/></clipPath></defs><g clip-path="url(#clip280)" fill="none" opacity="1" stroke="#000000" stroke-linecap="butt" stroke-linejoin="miter" stroke-miterlimit="2" stroke-opacity="1" stroke-width="1" transform="matrix(1,0,0,1,367.5,60.5)"><path d="M7,0 L23,0 C26.866,0 30,3.13401 30,7 C30,10.866 26.866,14 23,14 L7,14 C3.13401,14 0,10.866 0,7 C0,3.13401 3.13401,0 7,0 z" fill-rule="nonzero" vector-effect="none"/></g><defs><clipPath id="clip286"><path d="M0,0 L32,0 L32,14 L0,14 L0,0 z"/></clipPath></defs><g clip-path="url(#clip286)" fill="none" opacity="1" stroke="#000000" stroke-linecap="square" stroke-linejoin="bevel" stroke-opacity="1" stroke-width="1" transform="matrix(1,0,0,1,366.031,76)"><text fill="#000000" fill-opacity="1" font-family="Arial" font-size="10" font-style="normal" font-weight="400" stroke="none" textLength="29.9375" x="1" xml:space="preserve" y="10">theta_l</text></g><defs><clipPath id="clip294"><path d="M-367,-195 L40.1953,-195 L40.1953,32 L-367,32 L-367,-195 z"/></clipPath></defs><g clip-path="url(#clip294)" fill="#ffffff" fill-opacity="1" opacity="1" stroke="none" stroke-opacity="0" transform="matrix(1,0,0,1,367,195)"><path d="M7,0 L23,0 C26.866,0 30,3.13401 30,7 C30,10.866 26.866,14 23,14 L7,14 C3.13401,14 0,10.866 0,7 C0,3.13401 3.13401,0 7,0 z" fill-rule="nonzero" vector-effect="none"/></g><defs><clipPath id="clip298"><path d="M-15,-7 L15,-7 L15,7 L-15,7 L-15,-7 z"/></clipPath></defs><g clip-path="url(#clip298)" fill="none" opacity="1" stroke="#000000" stroke-linecap="butt" stroke-linejoin="miter" stroke-miterlimit="2" stroke-opacity="1" stroke-width="1" transform="matrix(1,0,0,1,382,202)"><text fill="#000000" fill-opacity="1" font-family="Arial" font-size="10" font-style="normal" font-weight="400" stroke="none" textLength="5.54688" x="-2.76562" xml:space="preserve" y="3.5">2</text></g><defs><clipPath id="clip303"><path d="M-367.5,-195.5 L39.6953,-195.5 L39.6953,31.5 L-367.5,31.5 L-367.5,-195.5 z"/></clipPath></defs><g clip-path="url(#clip303)" fill="none" opacity="1" stroke="#000000" stroke-linecap="butt" stroke-linejoin="miter" stroke-miterlimit="2" stroke-opacity="1" stroke-width="1" transform="matrix(1,0,0,1,367.5,195.5)"><path d="M7,0 L23,0 C26.866,0 30,3.13401 30,7 C30,10.866 26.866,14 23,14 L7,14 C3.13401,14 0,10.866 0,7 C0,3.13401 3.13401,0 7,0 z" fill-rule="nonzero" vector-effect="none"/></g><defs><clipPath id="clip309"><path d="M0,0 L46,0 L46,14 L0,14 L0,0 z"/></clipPath></defs><g clip-path="url(#clip309)" fill="none" opacity="1" stroke="#000000" stroke-linecap="square" stroke-linejoin="bevel" stroke-opacity="1" stroke-width="1" transform="matrix(1,0,0,1,358.805,211)"><text fill="#000000" fill-opacity="1" font-family="Arial" font-size="10" font-style="normal" font-weight="400" stroke="none" textLength="44.3906" x="1" xml:space="preserve" y="10">omega_m</text></g><defs><clipPath id="clip317"><path d="M-367,-120 L40.1953,-120 L40.1953,107 L-367,107 L-367,-120 z"/></clipPath></defs><g clip-path="url(#clip317)" fill="#ffffff" fill-opacity="1" opacity="1" stroke="none" stroke-opacity="0" transform="matrix(1,0,0,1,367,120)"><path d="M7,0 L23,0 C26.866,0 30,3.13401 30,7 C30,10.866 26.866,14 23,14 L7,14 C3.13401,14 0,10.866 0,7 C0,3.13401 3.13401,0 7,0 z" fill-rule="nonzero" vector-effect="none"/></g><defs><clipPath id="clip321"><path d="M-15,-7 L15,-7 L15,7 L-15,7 L-15,-7 z"/></clipPath></defs><g clip-path="url(#clip321)" fill="none" opacity="1" stroke="#000000" stroke-linecap="butt" stroke-linejoin="miter" stroke-miterlimit="2" stroke-opacity="1" stroke-width="1" transform="matrix(1,0,0,1,382,127)"><text fill="#000000" fill-opacity="1" font-family="Arial" font-size="10" font-style="normal" font-weight="400" stroke="none" textLength="5.54688" x="-2.76562" xml:space="preserve" y="3.5">3</text></g><defs><clipPath id="clip326"><path d="M-367.5,-120.5 L39.6953,-120.5 L39.6953,106.5 L-367.5,106.5 L-367.5,-120.5 z"/></clipPath></defs><g clip-path="url(#clip326)" fill="none" opacity="1" stroke="#000000" stroke-linecap="butt" stroke-linejoin="miter" stroke-miterlimit="2" stroke-opacity="1" stroke-width="1" transform="matrix(1,0,0,1,367.5,120.5)"><path d="M7,0 L23,0 C26.866,0 30,3.13401 30,7 C30,10.866 26.866,14 23,14 L7,14 C3.13401,14 0,10.866 0,7 C0,3.13401 3.13401,0 7,0 z" fill-rule="nonzero" vector-effect="none"/></g><defs><clipPath id="clip332"><path d="M0,0 L38,0 L38,14 L0,14 L0,0 z"/></clipPath></defs><g clip-path="url(#clip332)" fill="none" opacity="1" stroke="#000000" stroke-linecap="square" stroke-linejoin="bevel" stroke-opacity="1" stroke-width="1" transform="matrix(1,0,0,1,362.977,136)"><text fill="#000000" fill-opacity="1" font-family="Arial" font-size="10" font-style="normal" font-weight="400" stroke="none" textLength="36.0469" x="1" xml:space="preserve" y="10">theta_m</text></g><defs><clipPath id="clip340"><path d="M-2,-15 L405.195,-15 L405.195,212 L-2,212 L-2,-15 z"/></clipPath></defs><g clip-path="url(#clip340)" fill="#ffffff" fill-opacity="1" opacity="1" stroke="none" stroke-opacity="0" transform="matrix(1,0,0,1,2,15)"><path d="M7,0 L23,0 C26.866,0 30,3.13401 30,7 C30,10.866 26.866,14 23,14 L7,14 C3.13401,14 0,10.866 0,7 C0,3.13401 3.13401,0 7,0 z" fill-rule="nonzero" vector-effect="none"/></g><defs><clipPath id="clip344"><path d="M-15,-7 L15,-7 L15,7 L-15,7 L-15,-7 z"/></clipPath></defs><g clip-path="url(#clip344)" fill="none" opacity="1" stroke="#000000" stroke-linecap="butt" stroke-linejoin="miter" stroke-miterlimit="2" stroke-opacity="1" stroke-width="1" transform="matrix(1,0,0,1,17,22)"><text fill="#000000" fill-opacity="1" font-family="Arial" font-size="10" font-style="normal" font-weight="400" stroke="none" textLength="5.54688" x="-2.76562" xml:space="preserve" y="3.5">1</text></g><defs><clipPath id="clip349"><path d="M-2.5,-15.5 L404.695,-15.5 L404.695,211.5 L-2.5,211.5 L-2.5,-15.5 z"/></clipPath></defs><g clip-path="url(#clip349)" fill="none" opacity="1" stroke="#000000" stroke-linecap="butt" stroke-linejoin="miter" stroke-miterlimit="2" stroke-opacity="1" stroke-width="1" transform="matrix(1,0,0,1,2.5,15.5)"><path d="M7,0 L23,0 C26.866,0 30,3.13401 30,7 C30,10.866 26.866,14 23,14 L7,14 C3.13401,14 0,10.866 0,7 C0,3.13401 3.13401,0 7,0 z" fill-rule="nonzero" vector-effect="none"/></g><defs><clipPath id="clip355"><path d="M0,0 L19,0 L19,14 L0,14 L0,0 z"/></clipPath></defs><g clip-path="url(#clip355)" fill="none" opacity="1" stroke="#000000" stroke-linecap="square" stroke-linejoin="bevel" stroke-opacity="1" stroke-width="1" transform="matrix(1,0,0,1,7.40625,31)"><text fill="#000000" fill-opacity="1" font-family="Arial" font-size="10" font-style="normal" font-weight="400" stroke="none" textLength="17.1875" x="1" xml:space="preserve" y="10">T_d</text></g><defs><clipPath id="clip363"><path d="M-127,-2 L280.195,-2 L280.195,225 L-127,225 L-127,-2 z"/></clipPath></defs><g clip-path="url(#clip363)" fill="#ffffff" fill-opacity="1" opacity="1" stroke="none" stroke-opacity="0" transform="matrix(1,0,0,1,127,2)"><path d="M40,40 L0,20 L40,0 L40,40 z" fill-rule="nonzero" vector-effect="none"/></g><defs><clipPath id="clip367"><path d="M0,0 L40,0 L40,40 L0,40 L0,0 z"/></clipPath></defs><g clip-path="url(#clip367)" fill="none" opacity="1" stroke="none" stroke-opacity="0" transform="matrix(1,0,0,1,127,2)"><path d="M40,40 L0,20 L40,0 L40,40 z" fill-rule="nonzero" vector-effect="none"/></g><defs><clipPath id="clip377"><path d="M-8,-2 L26,-2 L26,32 L-8,32 L-8,-2 z"/></clipPath></defs><g clip-path="url(#clip377)" fill="#000000" fill-opacity="1" opacity="1" stroke="none" stroke-opacity="0" transform="matrix(1,0,0,1,137.508,7.91406)"><path d="M8.51563,17.5781 L8.51563,10.4219 L9.46875,10.4219 L9.46875,13.9688 L13.0156,10.4219 L14.2969,10.4219 L11.2969,13.3125 L14.4375,17.5781 L13.1875,17.5781 L10.6406,13.9531 L9.46875,15.0938 L9.46875,17.5781 L8.51563,17.5781 M14.2813,19.5625 L14.2813,18.9375 L20.1094,18.9375 L20.1094,19.5625 L14.2813,19.5625 M20.625,17.5781 L20.625,10.4219 L21.5,10.4219 L21.5,17.5781 L20.625,17.5781" fill-rule="nonzero" vector-effect="none"/></g><defs><clipPath id="clip397"><path d="M-127.5,-2.5 L279.695,-2.5 L279.695,224.5 L-127.5,224.5 L-127.5,-2.5 z"/></clipPath></defs><g clip-path="url(#clip397)" fill="none" opacity="1" stroke="#000000" stroke-linecap="butt" stroke-linejoin="miter" stroke-miterlimit="2" stroke-opacity="1" stroke-width="1" transform="matrix(1,0,0,1,127.5,2.5)"><path d="M40,40 L0,20 L40,0 L40,40 z" fill-rule="nonzero" vector-effect="none"/></g><defs><clipPath id="clip400"><path d="M-127,-106 L280.195,-106 L280.195,121 L-127,121 L-127,-106 z"/></clipPath></defs><g clip-path="url(#clip400)" fill="#ffffff" fill-opacity="1" opacity="1" stroke="none" stroke-opacity="0" transform="matrix(1,0,0,1,127,106)"><path d="M0,0 L45,21 L0,42 L0,0 z" fill-rule="nonzero" vector-effect="none"/></g><defs><clipPath id="clip404"><path d="M0,0 L45,0 L45,42 L0,42 L0,0 z"/></clipPath></defs><g clip-path="url(#clip404)" fill="none" opacity="1" stroke="none" stroke-opacity="0" transform="matrix(1,0,0,1,127,106)"><path d="M0,0 L45,21 L0,42 L0,0 z" fill-rule="nonzero" vector-effect="none"/></g><defs><clipPath id="clip414"><path d="M-2,-2 L38,-2 L38,32 L-2,32 L-2,-2 z"/></clipPath></defs><g clip-path="url(#clip414)" fill="#000000" fill-opacity="1" opacity="1" stroke="none" stroke-opacity="0" transform="matrix(1,0,0,1,128.599,112.914)"><path d="M3.73438,17.5781 L2.85938,17.5781 L2.85938,11.9844 C2.65104,12.1823 2.375,12.3828 2.03125,12.5859 C1.6875,12.7891 1.38021,12.9375 1.10938,13.0313 L1.10938,12.1875 C1.59896,11.9583 2.02865,11.6797 2.39844,11.3516 C2.76823,11.0234 3.02604,10.7031 3.17188,10.3906 L3.73438,10.3906 L3.73438,17.5781 M5.5625,17.7031 L7.64063,10.2969 L8.34375,10.2969 L6.26563,17.7031 L5.5625,17.7031 M8.60938,15.5469 L9.46875,15.4219 C9.48958,15.974 9.59115,16.3516 9.77344,16.5547 C9.95573,16.7578 10.2083,16.8594 10.5313,16.8594 C10.7708,16.8594 10.9766,16.8047 11.1484,16.6953 C11.3203,16.5859 11.4401,16.4375 11.5078,16.25 C11.5755,16.0625 11.6094,15.7604 11.6094,15.3438 L11.6094,10.4219 L12.5469,10.4219 L12.5469,15.2969 C12.5469,15.901 12.4766,16.3672 12.3359,16.6953 C12.1953,17.0234 11.9661,17.2734 11.6484,17.4453 C11.3307,17.6172 10.9635,17.7031 10.5469,17.7031 C9.91146,17.7031 9.42708,17.5208 9.09375,17.1563 C8.76042,16.7917 8.59896,16.2552 8.60938,15.5469 M13.1719,19.5625 L13.1719,18.9375 L19,18.9375 L19,19.5625 L13.1719,19.5625 M23.0781,15.9063 L24,16.0156 C23.8542,16.5469 23.5859,16.9609 23.1953,17.2578 C22.8047,17.5547 22.3125,17.7031 21.7188,17.7031 C20.9583,17.7031 20.3542,17.4688 19.9063,17 C19.4583,16.5313 19.2344,15.875 19.2344,15.0313 C19.2344,14.1563 19.4609,13.4792 19.9141,13 C20.3672,12.5208 20.9479,12.2813 21.6563,12.2813 C22.3542,12.2813 22.9219,12.5156 23.3594,12.9844 C23.7969,13.4531 24.0156,14.1146 24.0156,14.9688 C24.0156,15.0208 24.0156,15.099 24.0156,15.2031 L20.1563,15.2031 C20.1875,15.776 20.3464,16.2135 20.6328,16.5156 C20.9193,16.8177 21.2813,16.9688 21.7188,16.9688 C22.0417,16.9688 22.3177,16.8854 22.5469,16.7188 C22.776,16.5521 22.9531,16.2813 23.0781,15.9063 M20.2031,14.4844 L23.0938,14.4844 C23.0521,14.0469 22.9427,13.7188 22.7656,13.5 C22.4844,13.1667 22.1198,13 21.6719,13 C21.2656,13 20.9271,13.1354 20.6563,13.4063 C20.3854,13.6771 20.2344,14.0365 20.2031,14.4844 M28.3906,19.5625 L28.3906,17.0313 C28.2552,17.2188 28.0625,17.3776 27.8125,17.5078 C27.5625,17.638 27.3021,17.7031 27.0313,17.7031 C26.4167,17.7031 25.888,17.4557 25.4453,16.9609 C25.0026,16.4661 24.7813,15.7917 24.7813,14.9375 C24.7813,14.4167 24.8698,13.9505 25.0469,13.5391 C25.224,13.1276 25.4844,12.8151 25.8281,12.6016 C26.1719,12.388 26.5521,12.2813 26.9688,12.2813 C27.6042,12.2813 28.1042,12.5469 28.4688,13.0781 L28.4688,12.3906 L29.2656,12.3906 L29.2656,19.5625 L28.3906,19.5625 M25.6719,14.9688 C25.6719,15.6354 25.8125,16.1354 26.0938,16.4688 C26.375,16.8021 26.7135,16.9688 27.1094,16.9688 C27.4844,16.9688 27.8047,16.8099 28.0703,16.4922 C28.3359,16.1745 28.4688,15.6927 28.4688,15.0469 C28.4688,14.3594 28.3281,13.8411 28.0469,13.4922 C27.7656,13.1432 27.4323,12.9688 27.0469,12.9688 C26.6615,12.9688 26.3359,13.1302 26.0703,13.4531 C25.8047,13.776 25.6719,14.2813 25.6719,14.9688" fill-rule="nonzero" vector-effect="none"/></g><defs><clipPath id="clip434"><path d="M-127.5,-106.5 L279.695,-106.5 L279.695,120.5 L-127.5,120.5 L-127.5,-106.5 z"/></clipPath></defs><g clip-path="url(#clip434)" fill="none" opacity="1" stroke="#000000" stroke-linecap="butt" stroke-linejoin="miter" stroke-miterlimit="2" stroke-opacity="1" stroke-width="1" transform="matrix(1,0,0,1,127.5,106.5)"><path d="M0,0 L45,21 L0,42 L0,0 z" fill-rule="nonzero" vector-effect="none"/></g><defs><clipPath id="clip437"><path d="M-127,-182 L280.195,-182 L280.195,45 L-127,45 L-127,-182 z"/></clipPath></defs><g clip-path="url(#clip437)" fill="#ffffff" fill-opacity="1" opacity="1" stroke="none" stroke-opacity="0" transform="matrix(1,0,0,1,127,182)"><path d="M40,40 L0,20 L40,0 L40,40 z" fill-rule="nonzero" vector-effect="none"/></g><defs><clipPath id="clip441"><path d="M0,0 L40,0 L40,40 L0,40 L0,0 z"/></clipPath></defs><g clip-path="url(#clip441)" fill="none" opacity="1" stroke="none" stroke-opacity="0" transform="matrix(1,0,0,1,127,182)"><path d="M40,40 L0,20 L40,0 L40,40 z" fill-rule="nonzero" vector-effect="none"/></g><defs><clipPath id="clip451"><path d="M-8,-2 L27,-2 L27,32 L-8,32 L-8,-2 z"/></clipPath></defs><g clip-path="url(#clip451)" fill="#000000" fill-opacity="1" opacity="1" stroke="none" stroke-opacity="0" transform="matrix(1,0,0,1,137.508,187.914)"><path d="M5.375,17.5781 L4.5625,17.5781 L4.5625,10.4219 L5.4375,10.4219 L5.4375,12.9688 C5.8125,12.5104 6.28646,12.2813 6.85938,12.2813 C7.18229,12.2813 7.48438,12.3438 7.76563,12.4688 C8.04688,12.5938 8.28125,12.7734 8.46875,13.0078 C8.65625,13.2422 8.80208,13.5234 8.90625,13.8516 C9.01042,14.1797 9.0625,14.5313 9.0625,14.9063 C9.0625,15.7917 8.84115,16.4792 8.39844,16.9688 C7.95573,17.4583 7.42708,17.7031 6.8125,17.7031 C6.20833,17.7031 5.72917,17.4427 5.375,16.9219 L5.375,17.5781 M5.35938,14.9531 C5.35938,15.5677 5.44792,16.0156 5.625,16.2969 C5.89583,16.7448 6.27083,16.9688 6.75,16.9688 C7.125,16.9688 7.45313,16.8021 7.73438,16.4688 C8.01563,16.1354 8.15625,15.6406 8.15625,14.9844 C8.15625,14.3073 8.02344,13.8073 7.75781,13.4844 C7.49219,13.1615 7.16667,13 6.78125,13 C6.39583,13 6.0625,13.1667 5.78125,13.5 C5.5,13.8333 5.35938,14.3177 5.35938,14.9531 M9.29688,19.5625 L9.29688,18.9375 L15.125,18.9375 L15.125,19.5625 L9.29688,19.5625 M19.2031,15.9063 L20.125,16.0156 C19.9792,16.5469 19.7109,16.9609 19.3203,17.2578 C18.9297,17.5547 18.4375,17.7031 17.8438,17.7031 C17.0833,17.7031 16.4792,17.4688 16.0313,17 C15.5833,16.5313 15.3594,15.875 15.3594,15.0313 C15.3594,14.1563 15.5859,13.4792 16.0391,13 C16.4922,12.5208 17.0729,12.2813 17.7813,12.2813 C18.4792,12.2813 19.0469,12.5156 19.4844,12.9844 C19.9219,13.4531 20.1406,14.1146 20.1406,14.9688 C20.1406,15.0208 20.1406,15.099 20.1406,15.2031 L16.2813,15.2031 C16.3125,15.776 16.4714,16.2135 16.7578,16.5156 C17.0443,16.8177 17.4063,16.9688 17.8438,16.9688 C18.1667,16.9688 18.4427,16.8854 18.6719,16.7188 C18.901,16.5521 19.0781,16.2813 19.2031,15.9063 M16.3281,14.4844 L19.2188,14.4844 C19.1771,14.0469 19.0677,13.7188 18.8906,13.5 C18.6094,13.1667 18.2448,13 17.7969,13 C17.3906,13 17.0521,13.1354 16.7813,13.4063 C16.5104,13.6771 16.3594,14.0365 16.3281,14.4844 M24.5156,19.5625 L24.5156,17.0313 C24.3802,17.2188 24.1875,17.3776 23.9375,17.5078 C23.6875,17.638 23.4271,17.7031 23.1563,17.7031 C22.5417,17.7031 22.013,17.4557 21.5703,16.9609 C21.1276,16.4661 20.9063,15.7917 20.9063,14.9375 C20.9063,14.4167 20.9948,13.9505 21.1719,13.5391 C21.349,13.1276 21.6094,12.8151 21.9531,12.6016 C22.2969,12.388 22.6771,12.2813 23.0938,12.2813 C23.7292,12.2813 24.2292,12.5469 24.5938,13.0781 L24.5938,12.3906 L25.3906,12.3906 L25.3906,19.5625 L24.5156,19.5625 M21.7969,14.9688 C21.7969,15.6354 21.9375,16.1354 22.2188,16.4688 C22.5,16.8021 22.8385,16.9688 23.2344,16.9688 C23.6094,16.9688 23.9297,16.8099 24.1953,16.4922 C24.4609,16.1745 24.5938,15.6927 24.5938,15.0469 C24.5938,14.3594 24.4531,13.8411 24.1719,13.4922 C23.8906,13.1432 23.5573,12.9688 23.1719,12.9688 C22.7865,12.9688 22.4609,13.1302 22.1953,13.4531 C21.9297,13.776 21.7969,14.2813 21.7969,14.9688" fill-rule="nonzero" vector-effect="none"/></g><defs><clipPath id="clip471"><path d="M-127.5,-182.5 L279.695,-182.5 L279.695,44.5 L-127.5,44.5 L-127.5,-182.5 z"/></clipPath></defs><g clip-path="url(#clip471)" fill="none" opacity="1" stroke="#000000" stroke-linecap="butt" stroke-linejoin="miter" stroke-miterlimit="2" stroke-opacity="1" stroke-width="1" transform="matrix(1,0,0,1,127.5,182.5)"><path d="M40,40 L0,20 L40,0 L40,40 z" fill-rule="nonzero" vector-effect="none"/></g><defs><clipPath id="clip476"><path d="M128,-2 L535.195,-2 L535.195,225 L128,225 L128,-2 z"/></clipPath></defs><g clip-path="url(#clip476)" fill="none" opacity="1" stroke="#000000" stroke-linecap="butt" stroke-linejoin="miter" stroke-miterlimit="2" stroke-opacity="1" stroke-width="1" transform="matrix(1,0,0,1,-128,2)"><path d="M375.5,125.5 L375.5,200.5" fill-rule="evenodd" vector-effect="none"/></g><defs><clipPath id="clip481"><path d="M128,-2 L535.195,-2 L535.195,225 L128,225 L128,-2 z"/></clipPath></defs><g clip-path="url(#clip481)" fill="none" opacity="1" stroke="#000000" stroke-linecap="butt" stroke-linejoin="miter" stroke-miterlimit="2" stroke-opacity="1" stroke-width="1" transform="matrix(1,0,0,1,-128,2)"><path d="M350.5,125.5 L375.5,125.5" fill-rule="evenodd" vector-effect="none"/></g><defs><clipPath id="clip487"><path d="M0,0 L42,0 L42,12 L0,12 L0,0 z"/></clipPath></defs><g clip-path="url(#clip487)" fill="none" opacity="1" stroke="#000000" stroke-linecap="square" stroke-linejoin="bevel" stroke-opacity="1" stroke-width="1" transform="matrix(1,0,0,1,227,128.5)"><text fill="#000000" fill-opacity="1" font-family="Arial" font-size="9" font-style="normal" font-weight="400" stroke="none" textLength="39.9688" x="1" xml:space="preserve" y="9">omega_m</text></g><defs><clipPath id="clip495"><path d="M-367,-202 L40.1953,-202 L40.1953,25 L-367,25 L-367,-202 z"/></clipPath></defs><g clip-path="url(#clip495)" fill="#000000" fill-opacity="1" opacity="1" stroke="none" stroke-opacity="0" transform="matrix(1,0,0,1,367,202)"><path d="M0,0 L-8,-4 L-8,4 L0,0 z" fill-rule="nonzero" vector-effect="none"/></g><defs><clipPath id="clip498"><path d="M128,-2 L535.195,-2 L535.195,225 L128,225 L128,-2 z"/></clipPath></defs><g clip-path="url(#clip498)" fill="none" opacity="1" stroke="#000000" stroke-linecap="butt" stroke-linejoin="miter" stroke-miterlimit="2" stroke-opacity="1" stroke-width="1" transform="matrix(1,0,0,1,-128,2)"><path d="M375.5,200.5 L487.5,200.5" fill-rule="evenodd" vector-effect="none"/></g><defs><clipPath id="clip501"><path d="M102,-247 L102,160.195 L-125,160.195 L-125,-247 L102,-247 z"/></clipPath></defs><g clip-path="url(#clip501)" fill="#000000" fill-opacity="1" opacity="1" stroke="none" stroke-opacity="0" transform="matrix(6.12323e-17,-1,1,6.12323e-17,247,102)"><path d="M0,0 L-8,-4 L-8,4 L0,0 z" fill-rule="nonzero" vector-effect="none"/></g><defs><clipPath id="clip504"><path d="M128,-2 L535.195,-2 L535.195,225 L128,225 L128,-2 z"/></clipPath></defs><g clip-path="url(#clip504)" fill="none" opacity="1" stroke="#000000" stroke-linecap="butt" stroke-linejoin="miter" stroke-miterlimit="2" stroke-opacity="1" stroke-width="1" transform="matrix(1,0,0,1,-128,2)"><path d="M375.5,125.5 L375.5,108.5" fill-rule="evenodd" vector-effect="none"/></g><defs><clipPath id="clip507"><path d="M-282,-127 L125.195,-127 L125.195,100 L-282,100 L-282,-127 z"/></clipPath></defs><g clip-path="url(#clip507)" fill="#000000" fill-opacity="1" opacity="1" stroke="none" stroke-opacity="0" transform="matrix(1,0,0,1,282,127)"><path d="M0,0 L-8,-4 L-8,4 L0,0 z" fill-rule="nonzero" vector-effect="none"/></g><defs><clipPath id="clip510"><path d="M128,-2 L535.195,-2 L535.195,225 L128,225 L128,-2 z"/></clipPath></defs><g clip-path="url(#clip510)" fill="none" opacity="1" stroke="#000000" stroke-linecap="butt" stroke-linejoin="miter" stroke-miterlimit="2" stroke-opacity="1" stroke-width="1" transform="matrix(1,0,0,1,-128,2)"><path d="M375.5,125.5 L402.5,125.5" fill-rule="evenodd" vector-effect="none"/></g><defs><clipPath id="clip513"><path d="M167,202 L-240.195,202 L-240.195,-25 L167,-25 L167,202 z"/></clipPath></defs><g clip-path="url(#clip513)" fill="#000000" fill-opacity="1" opacity="1" stroke="none" stroke-opacity="0" transform="matrix(-1,1.22465e-16,-1.22465e-16,-1,167,202)"><path d="M0,0 L-8,-4 L-8,4 L0,0 z" fill-rule="nonzero" vector-effect="none"/></g><defs><clipPath id="clip516"><path d="M128,-2 L535.195,-2 L535.195,225 L128,225 L128,-2 z"/></clipPath></defs><g clip-path="url(#clip516)" fill="none" opacity="1" stroke="#000000" stroke-linecap="butt" stroke-linejoin="miter" stroke-miterlimit="2" stroke-opacity="1" stroke-width="1" transform="matrix(1,0,0,1,-128,2)"><path d="M375.5,200.5 L303.5,200.5" fill-rule="evenodd" vector-effect="none"/></g><defs><clipPath id="clip519"><path d="M-247,-127 L160.195,-127 L160.195,100 L-247,100 L-247,-127 z"/></clipPath></defs><g clip-path="url(#clip519)" fill="#000000" fill-opacity="1" opacity="1" stroke="none" stroke-opacity="0" transform="matrix(1,0,0,1,247,127)"><path d="M3,0.5 C3,1.88071 1.88071,3 0.5,3 C-0.880712,3 -2,1.88071 -2,0.5 C-2,-0.880712 -0.880712,-2 0.5,-2 C1.88071,-2 3,-0.880712 3,0.5 z" fill-rule="evenodd" vector-effect="none"/></g><defs><clipPath id="clip522"><path d="M-247,-202 L160.195,-202 L160.195,25 L-247,25 L-247,-202 z"/></clipPath></defs><g clip-path="url(#clip522)" fill="#000000" fill-opacity="1" opacity="1" stroke="none" stroke-opacity="0" transform="matrix(1,0,0,1,247,202)"><path d="M3,0.5 C3,1.88071 1.88071,3 0.5,3 C-0.880712,3 -2,1.88071 -2,0.5 C-2,-0.880712 -0.880712,-2 0.5,-2 C1.88071,-2 3,-0.880712 3,0.5 z" fill-rule="evenodd" vector-effect="none"/></g><defs><clipPath id="clip525"><path d="M-367,-127 L40.1953,-127 L40.1953,100 L-367,100 L-367,-127 z"/></clipPath></defs><g clip-path="url(#clip525)" fill="#000000" fill-opacity="1" opacity="1" stroke="none" stroke-opacity="0" transform="matrix(1,0,0,1,367,127)"><path d="M0,0 L-8,-4 L-8,4 L0,0 z" fill-rule="nonzero" vector-effect="none"/></g><defs><clipPath id="clip528"><path d="M128,-2 L535.195,-2 L535.195,225 L128,225 L128,-2 z"/></clipPath></defs><g clip-path="url(#clip528)" fill="none" opacity="1" stroke="#000000" stroke-linecap="butt" stroke-linejoin="miter" stroke-miterlimit="2" stroke-opacity="1" stroke-width="1" transform="matrix(1,0,0,1,-128,2)"><path d="M440.5,125.5 L487.5,125.5" fill-rule="evenodd" vector-effect="none"/></g><defs><clipPath id="clip534"><path d="M0,0 L34,0 L34,12 L0,12 L0,0 z"/></clipPath></defs><g clip-path="url(#clip534)" fill="none" opacity="1" stroke="#000000" stroke-linecap="square" stroke-linejoin="bevel" stroke-opacity="1" stroke-width="1" transform="matrix(1,0,0,1,317,128.5)"><text fill="#000000" fill-opacity="1" font-family="Arial" font-size="9" font-style="normal" font-weight="400" stroke="none" textLength="32.4844" x="1" xml:space="preserve" y="9">theta_m</text></g><defs><clipPath id="clip542"><path d="M-282,-67 L125.195,-67 L125.195,160 L-282,160 L-282,-67 z"/></clipPath></defs><g clip-path="url(#clip542)" fill="#000000" fill-opacity="1" opacity="1" stroke="none" stroke-opacity="0" transform="matrix(1,0,0,1,282,67)"><path d="M0,0 L-8,-4 L-8,4 L0,0 z" fill-rule="nonzero" vector-effect="none"/></g><defs><clipPath id="clip545"><path d="M128,-2 L535.195,-2 L535.195,225 L128,225 L128,-2 z"/></clipPath></defs><g clip-path="url(#clip545)" fill="none" opacity="1" stroke="#000000" stroke-linecap="butt" stroke-linejoin="miter" stroke-miterlimit="2" stroke-opacity="1" stroke-width="1" transform="matrix(1,0,0,1,-128,2)"><path d="M375.5,70.5 L375.5,65.5 L402.5,65.5" fill-rule="evenodd" vector-effect="none"/></g><defs><clipPath id="clip550"><path d="M128,-2 L535.195,-2 L535.195,225 L128,225 L128,-2 z"/></clipPath></defs><g clip-path="url(#clip550)" fill="none" opacity="1" stroke="#000000" stroke-linecap="butt" stroke-linejoin="miter" stroke-miterlimit="2" stroke-opacity="1" stroke-width="1" transform="matrix(1,0,0,1,-128,2)"><path d="M440.5,65.5 L466.5,65.5" fill-rule="evenodd" vector-effect="none"/></g><defs><clipPath id="clip556"><path d="M0,0 L29,0 L29,12 L0,12 L0,0 z"/></clipPath></defs><g clip-path="url(#clip556)" fill="none" opacity="1" stroke="#000000" stroke-linecap="square" stroke-linejoin="bevel" stroke-opacity="1" stroke-width="1" transform="matrix(1,0,0,1,317,68.5)"><text fill="#000000" fill-opacity="1" font-family="Arial" font-size="9" font-style="normal" font-weight="400" stroke="none" textLength="26.9844" x="1" xml:space="preserve" y="9">theta_l</text></g><defs><clipPath id="clip564"><path d="M222,22 L-185.195,22 L-185.195,-205 L222,-205 L222,22 z"/></clipPath></defs><g clip-path="url(#clip564)" fill="#000000" fill-opacity="1" opacity="1" stroke="none" stroke-opacity="0" transform="matrix(-1,1.22465e-16,-1.22465e-16,-1,222,22)"><path d="M0,0 L-8,-4 L-8,4 L0,0 z" fill-rule="nonzero" vector-effect="none"/></g><defs><clipPath id="clip567"><path d="M128,-2 L535.195,-2 L535.195,225 L128,225 L128,-2 z"/></clipPath></defs><g clip-path="url(#clip567)" fill="none" opacity="1" stroke="#000000" stroke-linecap="butt" stroke-linejoin="miter" stroke-miterlimit="2" stroke-opacity="1" stroke-width="1" transform="matrix(1,0,0,1,-128,2)"><path d="M466.5,65.5 L466.5,20.5 L358.5,20.5" fill-rule="evenodd" vector-effect="none"/></g><defs><clipPath id="clip570"><path d="M-367,-67 L40.1953,-67 L40.1953,160 L-367,160 L-367,-67 z"/></clipPath></defs><g clip-path="url(#clip570)" fill="#000000" fill-opacity="1" opacity="1" stroke="none" stroke-opacity="0" transform="matrix(1,0,0,1,367,67)"><path d="M0,0 L-8,-4 L-8,4 L0,0 z" fill-rule="nonzero" vector-effect="none"/></g><defs><clipPath id="clip573"><path d="M128,-2 L535.195,-2 L535.195,225 L128,225 L128,-2 z"/></clipPath></defs><g clip-path="url(#clip573)" fill="none" opacity="1" stroke="#000000" stroke-linecap="butt" stroke-linejoin="miter" stroke-miterlimit="2" stroke-opacity="1" stroke-width="1" transform="matrix(1,0,0,1,-128,2)"><path d="M466.5,65.5 L487.5,65.5" fill-rule="evenodd" vector-effect="none"/></g><defs><clipPath id="clip576"><path d="M-338,-67 L69.1953,-67 L69.1953,160 L-338,160 L-338,-67 z"/></clipPath></defs><g clip-path="url(#clip576)" fill="#000000" fill-opacity="1" opacity="1" stroke="none" stroke-opacity="0" transform="matrix(1,0,0,1,338,67)"><path d="M3,0.5 C3,1.88071 1.88071,3 0.5,3 C-0.880712,3 -2,1.88071 -2,0.5 C-2,-0.880712 -0.880712,-2 0.5,-2 C1.88071,-2 3,-0.880712 3,0.5 z" fill-rule="evenodd" vector-effect="none"/></g><defs><clipPath id="clip579"><path d="M-52,87 L-52,-320.195 L175,-320.195 L175,87 L-52,87 z"/></clipPath></defs><g clip-path="url(#clip579)" fill="#000000" fill-opacity="1" opacity="1" stroke="none" stroke-opacity="0" transform="matrix(6.12323e-17,1,-1,6.12323e-17,87,52)"><path d="M0,0 L-8,-4 L-8,4 L0,0 z" fill-rule="nonzero" vector-effect="none"/></g><defs><clipPath id="clip582"><path d="M128,-2 L535.195,-2 L535.195,225 L128,225 L128,-2 z"/></clipPath></defs><g clip-path="url(#clip582)" fill="none" opacity="1" stroke="#000000" stroke-linecap="butt" stroke-linejoin="miter" stroke-miterlimit="2" stroke-opacity="1" stroke-width="1" transform="matrix(1,0,0,1,-128,2)"><path d="M215.5,35.5 L215.5,42.5" fill-rule="evenodd" vector-effect="none"/></g><defs><clipPath id="clip585"><path d="M-112,87 L-112,-320.195 L115,-320.195 L115,87 L-112,87 z"/></clipPath></defs><g clip-path="url(#clip585)" fill="#000000" fill-opacity="1" opacity="1" stroke="none" stroke-opacity="0" transform="matrix(6.12323e-17,1,-1,6.12323e-17,87,112)"><path d="M0,0 L-8,-4 L-8,4 L0,0 z" fill-rule="nonzero" vector-effect="none"/></g><defs><clipPath id="clip588"><path d="M128,-2 L535.195,-2 L535.195,225 L128,225 L128,-2 z"/></clipPath></defs><g clip-path="url(#clip588)" fill="none" opacity="1" stroke="#000000" stroke-linecap="butt" stroke-linejoin="miter" stroke-miterlimit="2" stroke-opacity="1" stroke-width="1" transform="matrix(1,0,0,1,-128,2)"><path d="M215.5,80.5 L215.5,102.5" fill-rule="evenodd" vector-effect="none"/></g><defs><clipPath id="clip591"><path d="M-72,-22 L335.195,-22 L335.195,205 L-72,205 L-72,-22 z"/></clipPath></defs><g clip-path="url(#clip591)" fill="#000000" fill-opacity="1" opacity="1" stroke="none" stroke-opacity="0" transform="matrix(1,0,0,1,72,22)"><path d="M0,0 L-8,-4 L-8,4 L0,0 z" fill-rule="nonzero" vector-effect="none"/></g><defs><clipPath id="clip594"><path d="M128,-2 L535.195,-2 L535.195,225 L128,225 L128,-2 z"/></clipPath></defs><g clip-path="url(#clip594)" fill="none" opacity="1" stroke="#000000" stroke-linecap="butt" stroke-linejoin="miter" stroke-miterlimit="2" stroke-opacity="1" stroke-width="1" transform="matrix(1,0,0,1,-128,2)"><path d="M160.5,20.5 L192.5,20.5" fill-rule="evenodd" vector-effect="none"/></g><defs><clipPath id="clip597"><path d="M-72,-127 L335.195,-127 L335.195,100 L-72,100 L-72,-127 z"/></clipPath></defs><g clip-path="url(#clip597)" fill="#000000" fill-opacity="1" opacity="1" stroke="none" stroke-opacity="0" transform="matrix(1,0,0,1,72,127)"><path d="M0,0 L-8,-4 L-8,4 L0,0 z" fill-rule="nonzero" vector-effect="none"/></g><defs><clipPath id="clip600"><path d="M128,-2 L535.195,-2 L535.195,225 L128,225 L128,-2 z"/></clipPath></defs><g clip-path="url(#clip600)" fill="none" opacity="1" stroke="#000000" stroke-linecap="butt" stroke-linejoin="miter" stroke-miterlimit="2" stroke-opacity="1" stroke-width="1" transform="matrix(1,0,0,1,-128,2)"><path d="M160.5,125.5 L192.5,125.5" fill-rule="evenodd" vector-effect="none"/></g><defs><clipPath id="clip603"><path d="M102,22 L-305.195,22 L-305.195,-205 L102,-205 L102,22 z"/></clipPath></defs><g clip-path="url(#clip603)" fill="#000000" fill-opacity="1" opacity="1" stroke="none" stroke-opacity="0" transform="matrix(-1,1.22465e-16,-1.22465e-16,-1,102,22)"><path d="M0,0 L-8,-4 L-8,4 L0,0 z" fill-rule="nonzero" vector-effect="none"/></g><defs><clipPath id="clip606"><path d="M128,-2 L535.195,-2 L535.195,225 L128,225 L128,-2 z"/></clipPath></defs><g clip-path="url(#clip606)" fill="none" opacity="1" stroke="#000000" stroke-linecap="butt" stroke-linejoin="miter" stroke-miterlimit="2" stroke-opacity="1" stroke-width="1" transform="matrix(1,0,0,1,-128,2)"><path d="M255.5,20.5 L238.5,20.5" fill-rule="evenodd" vector-effect="none"/></g><defs><clipPath id="clip609"><path d="M167,22 L-240.195,22 L-240.195,-205 L167,-205 L167,22 z"/></clipPath></defs><g clip-path="url(#clip609)" fill="#000000" fill-opacity="1" opacity="1" stroke="none" stroke-opacity="0" transform="matrix(-1,1.22465e-16,-1.22465e-16,-1,167,22)"><path d="M0,0 L-8,-4 L-8,4 L0,0 z" fill-rule="nonzero" vector-effect="none"/></g><defs><clipPath id="clip612"><path d="M128,-2 L535.195,-2 L535.195,225 L128,225 L128,-2 z"/></clipPath></defs><g clip-path="url(#clip612)" fill="none" opacity="1" stroke="#000000" stroke-linecap="butt" stroke-linejoin="miter" stroke-miterlimit="2" stroke-opacity="1" stroke-width="1" transform="matrix(1,0,0,1,-128,2)"><path d="M320.5,20.5 L303.5,20.5" fill-rule="evenodd" vector-effect="none"/></g><defs><clipPath id="clip615"><path d="M-127,-127 L280.195,-127 L280.195,100 L-127,100 L-127,-127 z"/></clipPath></defs><g clip-path="url(#clip615)" fill="#000000" fill-opacity="1" opacity="1" stroke="none" stroke-opacity="0" transform="matrix(1,0,0,1,127,127)"><path d="M0,0 L-8,-4 L-8,4 L0,0 z" fill-rule="nonzero" vector-effect="none"/></g><defs><clipPath id="clip618"><path d="M128,-2 L535.195,-2 L535.195,225 L128,225 L128,-2 z"/></clipPath></defs><g clip-path="url(#clip618)" fill="none" opacity="1" stroke="#000000" stroke-linecap="butt" stroke-linejoin="miter" stroke-miterlimit="2" stroke-opacity="1" stroke-width="1" transform="matrix(1,0,0,1,-128,2)"><path d="M230.5,125.5 L247.5,125.5" fill-rule="evenodd" vector-effect="none"/></g><defs><clipPath id="clip621"><path d="M-192,-127 L215.195,-127 L215.195,100 L-192,100 L-192,-127 z"/></clipPath></defs><g clip-path="url(#clip621)" fill="#000000" fill-opacity="1" opacity="1" stroke="none" stroke-opacity="0" transform="matrix(1,0,0,1,192,127)"><path d="M0,0 L-8,-4 L-8,4 L0,0 z" fill-rule="nonzero" vector-effect="none"/></g><defs><clipPath id="clip624"><path d="M128,-2 L535.195,-2 L535.195,225 L128,225 L128,-2 z"/></clipPath></defs><g clip-path="url(#clip624)" fill="none" opacity="1" stroke="#000000" stroke-linecap="butt" stroke-linejoin="miter" stroke-miterlimit="2" stroke-opacity="1" stroke-width="1" transform="matrix(1,0,0,1,-128,2)"><path d="M300.5,125.5 L312.5,125.5" fill-rule="evenodd" vector-effect="none"/></g><defs><clipPath id="clip627"><path d="M142,-87 L142,320.195 L-85,320.195 L-85,-87 L142,-87 z"/></clipPath></defs><g clip-path="url(#clip627)" fill="#000000" fill-opacity="1" opacity="1" stroke="none" stroke-opacity="0" transform="matrix(6.12323e-17,-1,1,6.12323e-17,87,142)"><path d="M0,0 L-8,-4 L-8,4 L0,0 z" fill-rule="nonzero" vector-effect="none"/></g><defs><clipPath id="clip630"><path d="M128,-2 L535.195,-2 L535.195,225 L128,225 L128,-2 z"/></clipPath></defs><g clip-path="url(#clip630)" fill="none" opacity="1" stroke="#000000" stroke-linecap="butt" stroke-linejoin="miter" stroke-miterlimit="2" stroke-opacity="1" stroke-width="1" transform="matrix(1,0,0,1,-128,2)"><path d="M255.5,200.5 L215.5,200.5 L215.5,148.5" fill-rule="evenodd" vector-effect="none"/></g></g><!--generated on windows @ 2024-05-14 23:32:39 Hora estndar de Argentina--></svg>
