<?xml version="1.0" encoding="UTF-8"?><svg width="162.719mm" height="93.1333mm" viewBox="0 0 615 352" xmlns="http://www.w3.org/2000/svg" xmlns:xlink="http://www.w3.org/1999/xlink"><g fill="none" stroke="black" stroke-width="1" fill-rule="evenodd" stroke-linecap="square" stroke-linejoin="bevel"><g clip-path="none" fill="#ffffff" fill-opacity="1" opacity="1" stroke="none" stroke-opacity="0" transform="matrix(1,0,0,1,0,0)"><path d="M0,0 L614.547,0 L614.547,352 L0,352 L0,0 z" fill-rule="evenodd" vector-effect="none"/></g><defs><clipPath id="clip3"><path d="M-144,-117 L470.547,-117 L470.547,235 L-144,235 L-144,-117 z"/></clipPath></defs><g clip-path="url(#clip3)" fill="#ffffff" fill-opacity="1" opacity="1" stroke="none" stroke-opacity="0" transform="matrix(1,0,0,1,144,117)"><path d="M30,15 C30,23.2843 23.2843,30 15,30 C6.71573,30 0,23.2843 0,15 C0,6.71573 6.71573,0 15,0 C23.2843,0 30,6.71573 30,15 z" fill-rule="nonzero" vector-effect="none"/></g><defs><clipPath id="clip7"><path d="M235,155 L265,155 L265,185 L235,185 L235,155 z"/></clipPath></defs><g clip-path="url(#clip7)" fill="none" opacity="1" stroke="#000000" stroke-linecap="butt" stroke-linejoin="miter" stroke-miterlimit="2" stroke-opacity="1" stroke-width="1" transform="matrix(1,0,0,1,-90.5,-37.5)"><polyline fill="none" points="248,160 252,160" vector-effect="none"/></g><defs><clipPath id="clip8"><path d="M235,155 L265,155 L265,185 L235,185 L235,155 z"/></clipPath></defs><g clip-path="url(#clip8)" fill="none" opacity="1" stroke="#000000" stroke-linecap="butt" stroke-linejoin="miter" stroke-miterlimit="2" stroke-opacity="1" stroke-width="1" transform="matrix(1,0,0,1,-90.5,-37.5)"><polyline fill="none" points="248,180 252,180" vector-effect="none"/></g><defs><clipPath id="clip9"><path d="M235,155 L265,155 L265,185 L235,185 L235,155 z"/></clipPath></defs><g clip-path="url(#clip9)" fill="none" opacity="1" stroke="#000000" stroke-linecap="butt" stroke-linejoin="miter" stroke-miterlimit="2" stroke-opacity="1" stroke-width="1" transform="matrix(1,0,0,1,-90.5,-37.5)"><polyline fill="none" points="250,178 250,182" vector-effect="none"/></g><defs><clipPath id="clip14"><path d="M-143.5,-117.5 L471.047,-117.5 L471.047,234.5 L-143.5,234.5 L-143.5,-117.5 z"/></clipPath></defs><g clip-path="url(#clip14)" fill="none" opacity="1" stroke="#000000" stroke-linecap="butt" stroke-linejoin="miter" stroke-miterlimit="2" stroke-opacity="1" stroke-width="1" transform="matrix(1,0,0,1,143.5,117.5)"><path d="M30,15 C30,23.2843 23.2843,30 15,30 C6.71573,30 0,23.2843 0,15 C0,6.71573 6.71573,0 15,0 C23.2843,0 30,6.71573 30,15 z" fill-rule="nonzero" vector-effect="none"/></g><defs><clipPath id="clip17"><path d="M-319,-117 L295.547,-117 L295.547,235 L-319,235 L-319,-117 z"/></clipPath></defs><g clip-path="url(#clip17)" fill="#ffffff" fill-opacity="1" opacity="1" stroke="none" stroke-opacity="0" transform="matrix(1,0,0,1,319,117)"><path d="M0,0 L30,0 L30,30 L0,30 L0,0 z" fill-rule="evenodd" vector-effect="none"/></g><defs><clipPath id="clip21"><path d="M0,0 L31,0 L31,31 L0,31 L0,0 z"/></clipPath></defs><g clip-path="url(#clip21)" fill="none" opacity="1" stroke="none" stroke-opacity="0" transform="matrix(1,0,0,1,318.531,117)"><path d="M0,0 L31,0 L31,31 L0,31 L0,0 z" fill-rule="evenodd" vector-effect="none"/></g><defs><clipPath id="clip32"><path d="M0,0 L9,0 L9,31 L0,31 L0,0 z"/></clipPath></defs><g clip-path="url(#clip32)" fill="#000000" fill-opacity="1" opacity="1" stroke="none" stroke-opacity="0" transform="matrix(0.85,0,0,0.85,329.706,118.825)"><path d="M1,15 L8,15 L8,16 L1,16 L1,15 z" fill-rule="evenodd" vector-effect="none"/></g><defs><clipPath id="clip33"><path d="M0,0 L9,0 L9,31 L0,31 L0,0 z"/></clipPath></defs><g clip-path="url(#clip33)" fill="#000000" fill-opacity="1" opacity="1" stroke="none" stroke-opacity="0" transform="matrix(0.85,0,0,0.85,329.706,118.825)"><path d="M6.125,11 L6.125,10.8125 C5.14063,10.8125 4.89063,10.5781 4.89063,10.0156 L4.89063,2.25 L4.76563,2.21875 L2.4375,3.39063 L2.4375,3.57813 L2.79688,3.45313 C3.03125,3.35938 3.25,3.29688 3.375,3.29688 C3.65625,3.29688 3.76563,3.48438 3.76563,3.92188 L3.76563,9.76563 C3.76563,10.4844 3.5,10.75 2.53125,10.8125 L2.53125,11 L6.125,11 z" fill-rule="nonzero" vector-effect="none"/></g><defs><clipPath id="clip34"><path d="M0,0 L9,0 L9,31 L0,31 L0,0 z"/></clipPath></defs><g clip-path="url(#clip34)" fill="#000000" fill-opacity="1" opacity="1" stroke="none" stroke-opacity="0" transform="matrix(0.85,0,0,0.85,329.706,118.825)"><path d="M6.23438,21.25 L6.04688,21.25 C5.9375,21.4375 5.84375,21.4844 5.65625,21.4844 C5.54688,21.4844 5.4375,21.4688 5.1875,21.3906 C4.85938,21.3125 4.6875,21.2656 4.45313,21.2656 C3.5,21.2656 2.89063,21.8125 2.89063,22.6719 C2.89063,23.0938 3.14063,23.6719 3.70313,24.375 C4.21875,25.0156 4.4375,25.4531 4.4375,25.875 C4.4375,26.5 4.0625,26.875 3.4375,26.875 C2.76563,26.875 2.32813,26.3438 2.14063,25.1094 L1.9375,25.1094 L1.67188,27.1719 L1.89063,27.1719 C1.96875,26.9688 2.125,26.8906 2.26563,26.8906 C2.40625,26.8906 2.59375,26.9063 2.82813,27.0156 C3.14063,27.125 3.32813,27.1406 3.54688,27.1406 C4.625,27.1406 5.42188,26.4844 5.42188,25.4063 C5.42188,24.8906 5.1875,24.3906 4.53125,23.6406 C4.03125,23.0313 3.82813,22.6563 3.82813,22.3125 C3.82813,21.8281 4.14063,21.5625 4.60938,21.5625 C5.23438,21.5625 5.625,22 5.76563,23.0781 L5.96875,23.0781 L6.23438,21.25 z" fill-rule="nonzero" vector-effect="none"/></g><defs><clipPath id="clip57"><path d="M-318.5,-117.5 L296.047,-117.5 L296.047,234.5 L-318.5,234.5 L-318.5,-117.5 z"/></clipPath></defs><g clip-path="url(#clip57)" fill="none" opacity="1" stroke="#000000" stroke-linecap="butt" stroke-linejoin="miter" stroke-miterlimit="2" stroke-opacity="1" stroke-width="1" transform="matrix(1,0,0,1,318.5,117.5)"><path d="M0,0 L30,0 L30,30 L0,30 L0,0 z" fill-rule="evenodd" vector-effect="none"/></g><defs><clipPath id="clip60"><path d="M-144,-2 L470.547,-2 L470.547,350 L-144,350 L-144,-2 z"/></clipPath></defs><g clip-path="url(#clip60)" fill="#ffffff" fill-opacity="1" opacity="1" stroke="none" stroke-opacity="0" transform="matrix(1,0,0,1,144,2)"><path d="M15,30 C6.71573,30 0,23.2843 0,15 C0,6.71573 6.71573,1.42575e-15 15,9.18485e-16 C23.2843,4.1122e-16 30,6.71573 30,15 C30,23.2843 23.2843,30 15,30 z" fill-rule="nonzero" vector-effect="none"/></g><defs><clipPath id="clip64"><path d="M235,40 L265,40 L265,70 L235,70 L235,40 z"/></clipPath></defs><g clip-path="url(#clip64)" fill="none" opacity="1" stroke="#000000" stroke-linecap="butt" stroke-linejoin="miter" stroke-miterlimit="2" stroke-opacity="1" stroke-width="1" transform="matrix(1,0,0,1,-90.5,-37.5)"><polyline fill="none" points="238,55 242,55" vector-effect="none"/></g><defs><clipPath id="clip65"><path d="M235,40 L265,40 L265,70 L235,70 L235,40 z"/></clipPath></defs><g clip-path="url(#clip65)" fill="none" opacity="1" stroke="#000000" stroke-linecap="butt" stroke-linejoin="miter" stroke-miterlimit="2" stroke-opacity="1" stroke-width="1" transform="matrix(1,0,0,1,-90.5,-37.5)"><polyline fill="none" points="258,55 262,55" vector-effect="none"/></g><defs><clipPath id="clip66"><path d="M235,40 L265,40 L265,70 L235,70 L235,40 z"/></clipPath></defs><g clip-path="url(#clip66)" fill="none" opacity="1" stroke="#000000" stroke-linecap="butt" stroke-linejoin="miter" stroke-miterlimit="2" stroke-opacity="1" stroke-width="1" transform="matrix(1,0,0,1,-90.5,-37.5)"><polyline fill="none" points="260,53 260,57" vector-effect="none"/></g><defs><clipPath id="clip71"><path d="M-143.5,-2.5 L471.047,-2.5 L471.047,349.5 L-143.5,349.5 L-143.5,-2.5 z"/></clipPath></defs><g clip-path="url(#clip71)" fill="none" opacity="1" stroke="#000000" stroke-linecap="butt" stroke-linejoin="miter" stroke-miterlimit="2" stroke-opacity="1" stroke-width="1" transform="matrix(1,0,0,1,143.5,2.5)"><path d="M15,30 C6.71573,30 0,23.2843 0,15 C0,6.71573 6.71573,1.42575e-15 15,9.18485e-16 C23.2843,4.1122e-16 30,6.71573 30,15 C30,23.2843 23.2843,30 15,30 z" fill-rule="nonzero" vector-effect="none"/></g><defs><clipPath id="clip74"><path d="M-74,-234 L540.547,-234 L540.547,118 L-74,118 L-74,-234 z"/></clipPath></defs><g clip-path="url(#clip74)" fill="#ffffff" fill-opacity="1" opacity="1" stroke="none" stroke-opacity="0" transform="matrix(1,0,0,1,74,234)"><path d="M0,0 L30,0 L30,31 L0,31 L0,0 z" fill-rule="evenodd" vector-effect="none"/></g><defs><clipPath id="clip78"><path d="M165,272 L195,272 L195,303 L165,303 L165,272 z"/></clipPath></defs><g clip-path="url(#clip78)" fill="none" opacity="1" stroke="#000000" stroke-linecap="butt" stroke-linejoin="miter" stroke-miterlimit="2" stroke-opacity="1" stroke-width="1" transform="matrix(1,0,0,1,-90.5,-37.5)"><polyline fill="none" points="183,290 177,284" vector-effect="none"/></g><defs><clipPath id="clip79"><path d="M165,272 L195,272 L195,303 L165,303 L165,272 z"/></clipPath></defs><g clip-path="url(#clip79)" fill="none" opacity="1" stroke="#000000" stroke-linecap="butt" stroke-linejoin="miter" stroke-miterlimit="2" stroke-opacity="1" stroke-width="1" transform="matrix(1,0,0,1,-90.5,-37.5)"><polyline fill="none" points="183,284 177,290" vector-effect="none"/></g><defs><clipPath id="clip84"><path d="M-73.5,-234.5 L541.047,-234.5 L541.047,117.5 L-73.5,117.5 L-73.5,-234.5 z"/></clipPath></defs><g clip-path="url(#clip84)" fill="none" opacity="1" stroke="#000000" stroke-linecap="butt" stroke-linejoin="miter" stroke-miterlimit="2" stroke-opacity="1" stroke-width="1" transform="matrix(1,0,0,1,73.5,234.5)"><path d="M0,0 L30,0 L30,31 L0,31 L0,0 z" fill-rule="evenodd" vector-effect="none"/></g><defs><clipPath id="clip87"><path d="M-74,-274 L540.547,-274 L540.547,78 L-74,78 L-74,-274 z"/></clipPath></defs><g clip-path="url(#clip87)" fill="#ffffff" fill-opacity="1" opacity="1" stroke="none" stroke-opacity="0" transform="matrix(1,0,0,1,74,274)"><path d="M0,0 L30,0 L30,31 L0,31 L0,0 z" fill-rule="evenodd" vector-effect="none"/></g><defs><clipPath id="clip91"><path d="M165,312 L195,312 L195,343 L165,343 L165,312 z"/></clipPath></defs><g clip-path="url(#clip91)" fill="none" opacity="1" stroke="#000000" stroke-linecap="butt" stroke-linejoin="miter" stroke-miterlimit="2" stroke-opacity="1" stroke-width="1" transform="matrix(1,0,0,1,-90.5,-37.5)"><polyline fill="none" points="183,330 177,324" vector-effect="none"/></g><defs><clipPath id="clip92"><path d="M165,312 L195,312 L195,343 L165,343 L165,312 z"/></clipPath></defs><g clip-path="url(#clip92)" fill="none" opacity="1" stroke="#000000" stroke-linecap="butt" stroke-linejoin="miter" stroke-miterlimit="2" stroke-opacity="1" stroke-width="1" transform="matrix(1,0,0,1,-90.5,-37.5)"><polyline fill="none" points="183,324 177,330" vector-effect="none"/></g><defs><clipPath id="clip97"><path d="M-73.5,-274.5 L541.047,-274.5 L541.047,77.5 L-73.5,77.5 L-73.5,-274.5 z"/></clipPath></defs><g clip-path="url(#clip97)" fill="none" opacity="1" stroke="#000000" stroke-linecap="butt" stroke-linejoin="miter" stroke-miterlimit="2" stroke-opacity="1" stroke-width="1" transform="matrix(1,0,0,1,73.5,274.5)"><path d="M0,0 L30,0 L30,31 L0,31 L0,0 z" fill-rule="evenodd" vector-effect="none"/></g><defs><clipPath id="clip100"><path d="M-74,-314 L540.547,-314 L540.547,38 L-74,38 L-74,-314 z"/></clipPath></defs><g clip-path="url(#clip100)" fill="#ffffff" fill-opacity="1" opacity="1" stroke="none" stroke-opacity="0" transform="matrix(1,0,0,1,74,314)"><path d="M0,0 L30,0 L30,31 L0,31 L0,0 z" fill-rule="evenodd" vector-effect="none"/></g><defs><clipPath id="clip104"><path d="M165,352 L195,352 L195,383 L165,383 L165,352 z"/></clipPath></defs><g clip-path="url(#clip104)" fill="none" opacity="1" stroke="#000000" stroke-linecap="butt" stroke-linejoin="miter" stroke-miterlimit="2" stroke-opacity="1" stroke-width="1" transform="matrix(1,0,0,1,-90.5,-37.5)"><polyline fill="none" points="183,370 177,364" vector-effect="none"/></g><defs><clipPath id="clip105"><path d="M165,352 L195,352 L195,383 L165,383 L165,352 z"/></clipPath></defs><g clip-path="url(#clip105)" fill="none" opacity="1" stroke="#000000" stroke-linecap="butt" stroke-linejoin="miter" stroke-miterlimit="2" stroke-opacity="1" stroke-width="1" transform="matrix(1,0,0,1,-90.5,-37.5)"><polyline fill="none" points="183,364 177,370" vector-effect="none"/></g><defs><clipPath id="clip110"><path d="M-73.5,-314.5 L541.047,-314.5 L541.047,37.5 L-73.5,37.5 L-73.5,-314.5 z"/></clipPath></defs><g clip-path="url(#clip110)" fill="none" opacity="1" stroke="#000000" stroke-linecap="butt" stroke-linejoin="miter" stroke-miterlimit="2" stroke-opacity="1" stroke-width="1" transform="matrix(1,0,0,1,73.5,314.5)"><path d="M0,0 L30,0 L30,31 L0,31 L0,0 z" fill-rule="evenodd" vector-effect="none"/></g><defs><clipPath id="clip113"><path d="M-134,-237 L480.547,-237 L480.547,115 L-134,115 L-134,-237 z"/></clipPath></defs><g clip-path="url(#clip113)" fill="#ffffff" fill-opacity="1" opacity="1" stroke="none" stroke-opacity="0" transform="matrix(1,0,0,1,134,237)"><path d="M15,0 C23.2843,0 30,6.71573 30,15 C30,23.2843 23.2843,30 15,30 C6.71573,30 4.1122e-16,23.2843 9.18485e-16,15 C1.42575e-15,6.71573 6.71573,0 15,0 z" fill-rule="nonzero" vector-effect="none"/></g><defs><clipPath id="clip117"><path d="M225,275 L255,275 L255,305 L225,305 L225,275 z"/></clipPath></defs><g clip-path="url(#clip117)" fill="none" opacity="1" stroke="#000000" stroke-linecap="butt" stroke-linejoin="miter" stroke-miterlimit="2" stroke-opacity="1" stroke-width="1" transform="matrix(1,0,0,1,-90.5,-37.5)"><polyline fill="none" points="228,290 232,290" vector-effect="none"/></g><defs><clipPath id="clip118"><path d="M225,275 L255,275 L255,305 L225,305 L225,275 z"/></clipPath></defs><g clip-path="url(#clip118)" fill="none" opacity="1" stroke="#000000" stroke-linecap="butt" stroke-linejoin="miter" stroke-miterlimit="2" stroke-opacity="1" stroke-width="1" transform="matrix(1,0,0,1,-90.5,-37.5)"><polyline fill="none" points="230,288 230,292" vector-effect="none"/></g><defs><clipPath id="clip119"><path d="M225,275 L255,275 L255,305 L225,305 L225,275 z"/></clipPath></defs><g clip-path="url(#clip119)" fill="none" opacity="1" stroke="#000000" stroke-linecap="butt" stroke-linejoin="miter" stroke-miterlimit="2" stroke-opacity="1" stroke-width="1" transform="matrix(1,0,0,1,-90.5,-37.5)"><polyline fill="none" points="233,298 237,298" vector-effect="none"/></g><defs><clipPath id="clip120"><path d="M225,275 L255,275 L255,305 L225,305 L225,275 z"/></clipPath></defs><g clip-path="url(#clip120)" fill="none" opacity="1" stroke="#000000" stroke-linecap="butt" stroke-linejoin="miter" stroke-miterlimit="2" stroke-opacity="1" stroke-width="1" transform="matrix(1,0,0,1,-90.5,-37.5)"><polyline fill="none" points="235,296 235,300" vector-effect="none"/></g><defs><clipPath id="clip121"><path d="M225,275 L255,275 L255,305 L225,305 L225,275 z"/></clipPath></defs><g clip-path="url(#clip121)" fill="none" opacity="1" stroke="#000000" stroke-linecap="butt" stroke-linejoin="miter" stroke-miterlimit="2" stroke-opacity="1" stroke-width="1" transform="matrix(1,0,0,1,-90.5,-37.5)"><polyline fill="none" points="243,298 247,298" vector-effect="none"/></g><defs><clipPath id="clip122"><path d="M225,275 L255,275 L255,305 L225,305 L225,275 z"/></clipPath></defs><g clip-path="url(#clip122)" fill="none" opacity="1" stroke="#000000" stroke-linecap="butt" stroke-linejoin="miter" stroke-miterlimit="2" stroke-opacity="1" stroke-width="1" transform="matrix(1,0,0,1,-90.5,-37.5)"><polyline fill="none" points="245,296 245,300" vector-effect="none"/></g><defs><clipPath id="clip127"><path d="M-133.5,-237.5 L481.047,-237.5 L481.047,114.5 L-133.5,114.5 L-133.5,-237.5 z"/></clipPath></defs><g clip-path="url(#clip127)" fill="none" opacity="1" stroke="#000000" stroke-linecap="butt" stroke-linejoin="miter" stroke-miterlimit="2" stroke-opacity="1" stroke-width="1" transform="matrix(1,0,0,1,133.5,237.5)"><path d="M15,0 C23.2843,0 30,6.71573 30,15 C30,23.2843 23.2843,30 15,30 C6.71573,30 4.1122e-16,23.2843 9.18485e-16,15 C1.42575e-15,6.71573 6.71573,0 15,0 z" fill-rule="nonzero" vector-effect="none"/></g><defs><clipPath id="clip130"><path d="M-141,-177 L473.547,-177 L473.547,175 L-141,175 L-141,-177 z"/></clipPath></defs><g clip-path="url(#clip130)" fill="#ffffff" fill-opacity="1" opacity="1" stroke="none" stroke-opacity="0" transform="matrix(1,0,0,1,141,177)"><path d="M0,0 L31,0 L31,30 L0,30 L0,0 z" fill-rule="evenodd" vector-effect="none"/></g><defs><clipPath id="clip134"><path d="M232,215 L263,215 L263,245 L232,245 L232,215 z"/></clipPath></defs><g clip-path="url(#clip134)" fill="none" opacity="1" stroke="#000000" stroke-linecap="butt" stroke-linejoin="miter" stroke-miterlimit="2" stroke-opacity="1" stroke-width="1" transform="matrix(1,0,0,1,-90.5,-37.5)"><polyline fill="none" points="250,233 244,227" vector-effect="none"/></g><defs><clipPath id="clip135"><path d="M232,215 L263,215 L263,245 L232,245 L232,215 z"/></clipPath></defs><g clip-path="url(#clip135)" fill="none" opacity="1" stroke="#000000" stroke-linecap="butt" stroke-linejoin="miter" stroke-miterlimit="2" stroke-opacity="1" stroke-width="1" transform="matrix(1,0,0,1,-90.5,-37.5)"><polyline fill="none" points="250,227 244,233" vector-effect="none"/></g><defs><clipPath id="clip140"><path d="M-140.5,-177.5 L474.047,-177.5 L474.047,174.5 L-140.5,174.5 L-140.5,-177.5 z"/></clipPath></defs><g clip-path="url(#clip140)" fill="none" opacity="1" stroke="#000000" stroke-linecap="butt" stroke-linejoin="miter" stroke-miterlimit="2" stroke-opacity="1" stroke-width="1" transform="matrix(1,0,0,1,140.5,177.5)"><path d="M0,0 L31,0 L31,30 L0,30 L0,0 z" fill-rule="evenodd" vector-effect="none"/></g><defs><clipPath id="clip143"><path d="M-459,-257 L155.547,-257 L155.547,95 L-459,95 L-459,-257 z"/></clipPath></defs><g clip-path="url(#clip143)" fill="#ffffff" fill-opacity="1" opacity="1" stroke="none" stroke-opacity="0" transform="matrix(1,0,0,1,459,257)"><path d="M0,0 L60,0 L60,35 L0,35 L0,0 z" fill-rule="evenodd" vector-effect="none"/></g><defs><clipPath id="clip147"><path d="M0,0 L61,0 L61,36 L0,36 L0,0 z"/></clipPath></defs><g clip-path="url(#clip147)" fill="none" opacity="1" stroke="none" stroke-opacity="0" transform="matrix(1,0,0,1,458.531,257)"><path d="M0,0 L61,0 L61,36 L0,36 L0,0 z" fill-rule="evenodd" vector-effect="none"/></g><defs><clipPath id="clip157"><path d="M-5,-2 L36,-2 L36,32 L-5,32 L-5,-2 z"/></clipPath></defs><g clip-path="url(#clip157)" fill="#000000" fill-opacity="1" opacity="1" stroke="none" stroke-opacity="0" transform="matrix(1,0,0,1,473.531,259.5)"><path d="M-0.703125,17.5781 L-0.703125,11.2656 L-3.0625,11.2656 L-3.0625,10.4219 L2.60938,10.4219 L2.60938,11.2656 L0.25,11.2656 L0.25,17.5781 L-0.703125,17.5781 M2.625,19.5625 L2.625,18.9375 L8.45313,18.9375 L8.45313,19.5625 L2.625,19.5625 M8.64063,16.0313 L9.5,15.8906 C9.55208,16.2448 9.6901,16.513 9.91406,16.6953 C10.138,16.8776 10.4479,16.9688 10.8438,16.9688 C11.25,16.9688 11.5521,16.888 11.75,16.7266 C11.9479,16.5651 12.0469,16.3698 12.0469,16.1406 C12.0469,15.9427 11.9583,15.7865 11.7813,15.6719 C11.6563,15.599 11.3542,15.5 10.875,15.375 C10.2396,15.2188 9.79688,15.0807 9.54688,14.9609 C9.29688,14.8411 9.10677,14.6771 8.97656,14.4688 C8.84635,14.2604 8.78125,14.026 8.78125,13.7656 C8.78125,13.5365 8.83333,13.3229 8.9375,13.125 C9.04167,12.9271 9.1875,12.7656 9.375,12.6406 C9.51042,12.5365 9.69531,12.4505 9.92969,12.3828 C10.1641,12.3151 10.4167,12.2813 10.6875,12.2813 C11.0938,12.2813 11.4505,12.3385 11.7578,12.4531 C12.0651,12.5677 12.2943,12.7266 12.4453,12.9297 C12.5964,13.1328 12.6979,13.401 12.75,13.7344 L11.8906,13.8438 C11.849,13.5833 11.7344,13.3776 11.5469,13.2266 C11.3594,13.0755 11.0938,13 10.75,13 C10.3542,13 10.0677,13.0651 9.89063,13.1953 C9.71354,13.3255 9.625,13.4844 9.625,13.6719 C9.625,13.7865 9.66146,13.8854 9.73438,13.9688 C9.80729,14.0625 9.92188,14.1406 10.0781,14.2031 C10.1615,14.2344 10.4219,14.3125 10.8594,14.4375 C11.474,14.6042 11.9036,14.7396 12.1484,14.8438 C12.3932,14.9479 12.5859,15.1016 12.7266,15.3047 C12.8672,15.5078 12.9375,15.7552 12.9375,16.0469 C12.9375,16.349 12.8542,16.6276 12.6875,16.8828 C12.5208,17.138 12.276,17.3385 11.9531,17.4844 C11.6302,17.6302 11.2656,17.7031 10.8594,17.7031 C10.1823,17.7031 9.66667,17.5625 9.3125,17.2813 C8.95833,17 8.73438,16.5833 8.64063,16.0313 M14.1094,17.5781 L14.1094,10.4219 L17.2813,10.4219 C17.9271,10.4219 18.4141,10.487 18.7422,10.6172 C19.0703,10.7474 19.3359,10.974 19.5391,11.2969 C19.7422,11.6198 19.8438,11.9792 19.8438,12.375 C19.8438,12.8854 19.6771,13.3125 19.3438,13.6563 C19.0104,14 18.5052,14.224 17.8281,14.3281 C18.0781,14.4427 18.2656,14.5573 18.3906,14.6719 C18.6719,14.9323 18.9323,15.25 19.1719,15.625 L20.4219,17.5781 L19.2344,17.5781 L18.2813,16.0938 C18.0104,15.6563 17.7839,15.3255 17.6016,15.1016 C17.4193,14.8776 17.2578,14.7188 17.1172,14.625 C16.9766,14.5313 16.8333,14.4688 16.6875,14.4375 C16.5833,14.4167 16.4063,14.4063 16.1563,14.4063 L15.0625,14.4063 L15.0625,17.5781 L14.1094,17.5781 M15.0625,13.5781 L17.0938,13.5781 C17.5313,13.5781 17.8724,13.5339 18.1172,13.4453 C18.362,13.3568 18.5469,13.2135 18.6719,13.0156 C18.7969,12.8177 18.8594,12.6042 18.8594,12.375 C18.8594,12.0313 18.737,11.75 18.4922,11.5313 C18.2474,11.3125 17.8594,11.2031 17.3281,11.2031 L15.0625,11.2031 L15.0625,13.5781 M21.3438,17.5781 L21.3438,10.4219 L26.5156,10.4219 L26.5156,11.2656 L22.2813,11.2656 L22.2813,13.4531 L26.25,13.4531 L26.25,14.2969 L22.2813,14.2969 L22.2813,16.7344 L26.6875,16.7344 L26.6875,17.5781 L21.3438,17.5781 M28.0313,17.5781 L28.0313,10.4219 L32.8594,10.4219 L32.8594,11.2656 L28.9688,11.2656 L28.9688,13.4844 L32.3281,13.4844 L32.3281,14.3281 L28.9688,14.3281 L28.9688,17.5781 L28.0313,17.5781" fill-rule="nonzero" vector-effect="none"/></g><defs><clipPath id="clip177"><path d="M-458.5,-257.5 L156.047,-257.5 L156.047,94.5 L-458.5,94.5 L-458.5,-257.5 z"/></clipPath></defs><g clip-path="url(#clip177)" fill="none" opacity="1" stroke="#000000" stroke-linecap="butt" stroke-linejoin="miter" stroke-miterlimit="2" stroke-opacity="1" stroke-width="1" transform="matrix(1,0,0,1,458.5,257.5)"><path d="M0,0 L60,0 L60,35 L0,35 L0,0 z" fill-rule="evenodd" vector-effect="none"/></g><defs><clipPath id="clip183"><path d="M0,0 L39,0 L39,14 L0,14 L0,0 z"/></clipPath></defs><g clip-path="url(#clip183)" fill="none" opacity="1" stroke="#000000" stroke-linecap="square" stroke-linejoin="bevel" stroke-opacity="1" stroke-width="1" transform="matrix(1,0,0,1,414.922,267.5)"><text fill="#000000" fill-opacity="1" font-family="Arial" font-size="10" font-style="normal" font-weight="400" stroke="none" textLength="36.6094" x="1" xml:space="preserve" y="10">T_sREF</text></g><defs><clipPath id="clip191"><path d="M-474,-207 L140.547,-207 L140.547,145 L-474,145 L-474,-207 z"/></clipPath></defs><g clip-path="url(#clip191)" fill="#ffffff" fill-opacity="1" opacity="1" stroke="none" stroke-opacity="0" transform="matrix(1,0,0,1,474,207)"><path d="M0,15 C0,6.71573 6.71573,0 15,0 C23.2843,0 30,6.71573 30,15 C30,23.2843 23.2843,30 15,30 C6.71573,30 0,23.2843 0,15 z" fill-rule="nonzero" vector-effect="none"/></g><defs><clipPath id="clip195"><path d="M565,245 L595,245 L595,275 L565,275 L565,245 z"/></clipPath></defs><g clip-path="url(#clip195)" fill="none" opacity="1" stroke="#000000" stroke-linecap="butt" stroke-linejoin="miter" stroke-miterlimit="2" stroke-opacity="1" stroke-width="1" transform="matrix(1,0,0,1,-90.5,-37.5)"><polyline fill="none" points="578,250 582,250" vector-effect="none"/></g><defs><clipPath id="clip196"><path d="M565,245 L595,245 L595,275 L565,275 L565,245 z"/></clipPath></defs><g clip-path="url(#clip196)" fill="none" opacity="1" stroke="#000000" stroke-linecap="butt" stroke-linejoin="miter" stroke-miterlimit="2" stroke-opacity="1" stroke-width="1" transform="matrix(1,0,0,1,-90.5,-37.5)"><polyline fill="none" points="580,248 580,252" vector-effect="none"/></g><defs><clipPath id="clip197"><path d="M565,245 L595,245 L595,275 L565,275 L565,245 z"/></clipPath></defs><g clip-path="url(#clip197)" fill="none" opacity="1" stroke="#000000" stroke-linecap="butt" stroke-linejoin="miter" stroke-miterlimit="2" stroke-opacity="1" stroke-width="1" transform="matrix(1,0,0,1,-90.5,-37.5)"><polyline fill="none" points="578,270 582,270" vector-effect="none"/></g><defs><clipPath id="clip202"><path d="M-473.5,-207.5 L141.047,-207.5 L141.047,144.5 L-473.5,144.5 L-473.5,-207.5 z"/></clipPath></defs><g clip-path="url(#clip202)" fill="none" opacity="1" stroke="#000000" stroke-linecap="butt" stroke-linejoin="miter" stroke-miterlimit="2" stroke-opacity="1" stroke-width="1" transform="matrix(1,0,0,1,473.5,207.5)"><path d="M0,15 C0,6.71573 6.71573,0 15,0 C23.2843,0 30,6.71573 30,15 C30,23.2843 23.2843,30 15,30 C6.71573,30 0,23.2843 0,15 z" fill-rule="nonzero" vector-effect="none"/></g><defs><clipPath id="clip205"><path d="M-319,-207 L295.547,-207 L295.547,145 L-319,145 L-319,-207 z"/></clipPath></defs><g clip-path="url(#clip205)" fill="#ffffff" fill-opacity="1" opacity="1" stroke="none" stroke-opacity="0" transform="matrix(1,0,0,1,319,207)"><path d="M0,15 C0,6.71573 6.71573,0 15,0 C23.2843,0 30,6.71573 30,15 C30,23.2843 23.2843,30 15,30 C6.71573,30 0,23.2843 0,15 z" fill-rule="nonzero" vector-effect="none"/></g><defs><clipPath id="clip209"><path d="M410,245 L440,245 L440,275 L410,275 L410,245 z"/></clipPath></defs><g clip-path="url(#clip209)" fill="none" opacity="1" stroke="#000000" stroke-linecap="butt" stroke-linejoin="miter" stroke-miterlimit="2" stroke-opacity="1" stroke-width="1" transform="matrix(1,0,0,1,-90.5,-37.5)"><polyline fill="none" points="433,260 437,260" vector-effect="none"/></g><defs><clipPath id="clip210"><path d="M410,245 L440,245 L440,275 L410,275 L410,245 z"/></clipPath></defs><g clip-path="url(#clip210)" fill="none" opacity="1" stroke="#000000" stroke-linecap="butt" stroke-linejoin="miter" stroke-miterlimit="2" stroke-opacity="1" stroke-width="1" transform="matrix(1,0,0,1,-90.5,-37.5)"><polyline fill="none" points="435,258 435,262" vector-effect="none"/></g><defs><clipPath id="clip211"><path d="M410,245 L440,245 L440,275 L410,275 L410,245 z"/></clipPath></defs><g clip-path="url(#clip211)" fill="none" opacity="1" stroke="#000000" stroke-linecap="butt" stroke-linejoin="miter" stroke-miterlimit="2" stroke-opacity="1" stroke-width="1" transform="matrix(1,0,0,1,-90.5,-37.5)"><polyline fill="none" points="423,270 427,270" vector-effect="none"/></g><defs><clipPath id="clip212"><path d="M410,245 L440,245 L440,275 L410,275 L410,245 z"/></clipPath></defs><g clip-path="url(#clip212)" fill="none" opacity="1" stroke="#000000" stroke-linecap="butt" stroke-linejoin="miter" stroke-miterlimit="2" stroke-opacity="1" stroke-width="1" transform="matrix(1,0,0,1,-90.5,-37.5)"><polyline fill="none" points="425,268 425,272" vector-effect="none"/></g><defs><clipPath id="clip217"><path d="M-318.5,-207.5 L296.047,-207.5 L296.047,144.5 L-318.5,144.5 L-318.5,-207.5 z"/></clipPath></defs><g clip-path="url(#clip217)" fill="none" opacity="1" stroke="#000000" stroke-linecap="butt" stroke-linejoin="miter" stroke-miterlimit="2" stroke-opacity="1" stroke-width="1" transform="matrix(1,0,0,1,318.5,207.5)"><path d="M0,15 C0,6.71573 6.71573,0 15,0 C23.2843,0 30,6.71573 30,15 C30,23.2843 23.2843,30 15,30 C6.71573,30 0,23.2843 0,15 z" fill-rule="nonzero" vector-effect="none"/></g><defs><clipPath id="clip220"><path d="M-4,-10 L610.547,-10 L610.547,342 L-4,342 L-4,-10 z"/></clipPath></defs><g clip-path="url(#clip220)" fill="#ffffff" fill-opacity="1" opacity="1" stroke="none" stroke-opacity="0" transform="matrix(1,0,0,1,4,10)"><path d="M7,0 L23,0 C26.866,0 30,3.13401 30,7 C30,10.866 26.866,14 23,14 L7,14 C3.13401,14 0,10.866 0,7 C0,3.13401 3.13401,0 7,0 z" fill-rule="nonzero" vector-effect="none"/></g><defs><clipPath id="clip224"><path d="M-15,-7 L15,-7 L15,7 L-15,7 L-15,-7 z"/></clipPath></defs><g clip-path="url(#clip224)" fill="none" opacity="1" stroke="#000000" stroke-linecap="butt" stroke-linejoin="miter" stroke-miterlimit="2" stroke-opacity="1" stroke-width="1" transform="matrix(1,0,0,1,19,17)"><text fill="#000000" fill-opacity="1" font-family="Arial" font-size="10" font-style="normal" font-weight="400" stroke="none" textLength="5.54688" x="-2.76562" xml:space="preserve" y="3.5">1</text></g><defs><clipPath id="clip229"><path d="M-3.5,-10.5 L611.047,-10.5 L611.047,341.5 L-3.5,341.5 L-3.5,-10.5 z"/></clipPath></defs><g clip-path="url(#clip229)" fill="none" opacity="1" stroke="#000000" stroke-linecap="butt" stroke-linejoin="miter" stroke-miterlimit="2" stroke-opacity="1" stroke-width="1" transform="matrix(1,0,0,1,3.5,10.5)"><path d="M7,0 L23,0 C26.866,0 30,3.13401 30,7 C30,10.866 26.866,14 23,14 L7,14 C3.13401,14 0,10.866 0,7 C0,3.13401 3.13401,0 7,0 z" fill-rule="nonzero" vector-effect="none"/></g><defs><clipPath id="clip235"><path d="M0,0 L33,0 L33,14 L0,14 L0,0 z"/></clipPath></defs><g clip-path="url(#clip235)" fill="none" opacity="1" stroke="#000000" stroke-linecap="square" stroke-linejoin="bevel" stroke-opacity="1" stroke-width="1" transform="matrix(1,0,0,1,2,26)"><text fill="#000000" fill-opacity="1" font-family="Arial" font-size="10" font-style="normal" font-weight="400" stroke="none" textLength="31.0625" x="1" xml:space="preserve" y="10">T_amb</text></g><defs><clipPath id="clip243"><path d="M-4,-235 L610.547,-235 L610.547,117 L-4,117 L-4,-235 z"/></clipPath></defs><g clip-path="url(#clip243)" fill="#ffffff" fill-opacity="1" opacity="1" stroke="none" stroke-opacity="0" transform="matrix(1,0,0,1,4,235)"><path d="M7,0 L23,0 C26.866,0 30,3.13401 30,7 C30,10.866 26.866,14 23,14 L7,14 C3.13401,14 0,10.866 0,7 C0,3.13401 3.13401,0 7,0 z" fill-rule="nonzero" vector-effect="none"/></g><defs><clipPath id="clip247"><path d="M-15,-7 L15,-7 L15,7 L-15,7 L-15,-7 z"/></clipPath></defs><g clip-path="url(#clip247)" fill="none" opacity="1" stroke="#000000" stroke-linecap="butt" stroke-linejoin="miter" stroke-miterlimit="2" stroke-opacity="1" stroke-width="1" transform="matrix(1,0,0,1,19,242)"><text fill="#000000" fill-opacity="1" font-family="Arial" font-size="10" font-style="normal" font-weight="400" stroke="none" textLength="5.54688" x="-2.76562" xml:space="preserve" y="3.5">2</text></g><defs><clipPath id="clip252"><path d="M-3.5,-235.5 L611.047,-235.5 L611.047,116.5 L-3.5,116.5 L-3.5,-235.5 z"/></clipPath></defs><g clip-path="url(#clip252)" fill="none" opacity="1" stroke="#000000" stroke-linecap="butt" stroke-linejoin="miter" stroke-miterlimit="2" stroke-opacity="1" stroke-width="1" transform="matrix(1,0,0,1,3.5,235.5)"><path d="M7,0 L23,0 C26.866,0 30,3.13401 30,7 C30,10.866 26.866,14 23,14 L7,14 C3.13401,14 0,10.866 0,7 C0,3.13401 3.13401,0 7,0 z" fill-rule="nonzero" vector-effect="none"/></g><defs><clipPath id="clip258"><path d="M0,0 L20,0 L20,14 L0,14 L0,0 z"/></clipPath></defs><g clip-path="url(#clip258)" fill="none" opacity="1" stroke="#000000" stroke-linecap="square" stroke-linejoin="bevel" stroke-opacity="1" stroke-width="1" transform="matrix(1,0,0,1,8.375,251)"><text fill="#000000" fill-opacity="1" font-family="Arial" font-size="10" font-style="normal" font-weight="400" stroke="none" textLength="18.3125" x="1" xml:space="preserve" y="10">i_qs</text></g><defs><clipPath id="clip266"><path d="M-4,-275 L610.547,-275 L610.547,77 L-4,77 L-4,-275 z"/></clipPath></defs><g clip-path="url(#clip266)" fill="#ffffff" fill-opacity="1" opacity="1" stroke="none" stroke-opacity="0" transform="matrix(1,0,0,1,4,275)"><path d="M7,0 L23,0 C26.866,0 30,3.13401 30,7 C30,10.866 26.866,14 23,14 L7,14 C3.13401,14 0,10.866 0,7 C0,3.13401 3.13401,0 7,0 z" fill-rule="nonzero" vector-effect="none"/></g><defs><clipPath id="clip270"><path d="M-15,-7 L15,-7 L15,7 L-15,7 L-15,-7 z"/></clipPath></defs><g clip-path="url(#clip270)" fill="none" opacity="1" stroke="#000000" stroke-linecap="butt" stroke-linejoin="miter" stroke-miterlimit="2" stroke-opacity="1" stroke-width="1" transform="matrix(1,0,0,1,19,282)"><text fill="#000000" fill-opacity="1" font-family="Arial" font-size="10" font-style="normal" font-weight="400" stroke="none" textLength="5.54688" x="-2.76562" xml:space="preserve" y="3.5">3</text></g><defs><clipPath id="clip275"><path d="M-3.5,-275.5 L611.047,-275.5 L611.047,76.5 L-3.5,76.5 L-3.5,-275.5 z"/></clipPath></defs><g clip-path="url(#clip275)" fill="none" opacity="1" stroke="#000000" stroke-linecap="butt" stroke-linejoin="miter" stroke-miterlimit="2" stroke-opacity="1" stroke-width="1" transform="matrix(1,0,0,1,3.5,275.5)"><path d="M7,0 L23,0 C26.866,0 30,3.13401 30,7 C30,10.866 26.866,14 23,14 L7,14 C3.13401,14 0,10.866 0,7 C0,3.13401 3.13401,0 7,0 z" fill-rule="nonzero" vector-effect="none"/></g><defs><clipPath id="clip281"><path d="M0,0 L20,0 L20,14 L0,14 L0,0 z"/></clipPath></defs><g clip-path="url(#clip281)" fill="none" opacity="1" stroke="#000000" stroke-linecap="square" stroke-linejoin="bevel" stroke-opacity="1" stroke-width="1" transform="matrix(1,0,0,1,8.375,291)"><text fill="#000000" fill-opacity="1" font-family="Arial" font-size="10" font-style="normal" font-weight="400" stroke="none" textLength="18.3125" x="1" xml:space="preserve" y="10">i_ds</text></g><defs><clipPath id="clip289"><path d="M-4,-315 L610.547,-315 L610.547,37 L-4,37 L-4,-315 z"/></clipPath></defs><g clip-path="url(#clip289)" fill="#ffffff" fill-opacity="1" opacity="1" stroke="none" stroke-opacity="0" transform="matrix(1,0,0,1,4,315)"><path d="M7,0 L23,0 C26.866,0 30,3.13401 30,7 C30,10.866 26.866,14 23,14 L7,14 C3.13401,14 0,10.866 0,7 C0,3.13401 3.13401,0 7,0 z" fill-rule="nonzero" vector-effect="none"/></g><defs><clipPath id="clip293"><path d="M-15,-7 L15,-7 L15,7 L-15,7 L-15,-7 z"/></clipPath></defs><g clip-path="url(#clip293)" fill="none" opacity="1" stroke="#000000" stroke-linecap="butt" stroke-linejoin="miter" stroke-miterlimit="2" stroke-opacity="1" stroke-width="1" transform="matrix(1,0,0,1,19,322)"><text fill="#000000" fill-opacity="1" font-family="Arial" font-size="10" font-style="normal" font-weight="400" stroke="none" textLength="5.54688" x="-2.76562" xml:space="preserve" y="3.5">4</text></g><defs><clipPath id="clip298"><path d="M-3.5,-315.5 L611.047,-315.5 L611.047,36.5 L-3.5,36.5 L-3.5,-315.5 z"/></clipPath></defs><g clip-path="url(#clip298)" fill="none" opacity="1" stroke="#000000" stroke-linecap="butt" stroke-linejoin="miter" stroke-miterlimit="2" stroke-opacity="1" stroke-width="1" transform="matrix(1,0,0,1,3.5,315.5)"><path d="M7,0 L23,0 C26.866,0 30,3.13401 30,7 C30,10.866 26.866,14 23,14 L7,14 C3.13401,14 0,10.866 0,7 C0,3.13401 3.13401,0 7,0 z" fill-rule="nonzero" vector-effect="none"/></g><defs><clipPath id="clip304"><path d="M0,0 L20,0 L20,14 L0,14 L0,0 z"/></clipPath></defs><g clip-path="url(#clip304)" fill="none" opacity="1" stroke="#000000" stroke-linecap="square" stroke-linejoin="bevel" stroke-opacity="1" stroke-width="1" transform="matrix(1,0,0,1,8.375,331)"><text fill="#000000" fill-opacity="1" font-family="Arial" font-size="10" font-style="normal" font-weight="400" stroke="none" textLength="18.3125" x="1" xml:space="preserve" y="10">i_0s</text></g><defs><clipPath id="clip312"><path d="M-569,-125 L45.5469,-125 L45.5469,227 L-569,227 L-569,-125 z"/></clipPath></defs><g clip-path="url(#clip312)" fill="#ffffff" fill-opacity="1" opacity="1" stroke="none" stroke-opacity="0" transform="matrix(1,0,0,1,569,125)"><path d="M7,0 L23,0 C26.866,0 30,3.13401 30,7 C30,10.866 26.866,14 23,14 L7,14 C3.13401,14 0,10.866 0,7 C0,3.13401 3.13401,0 7,0 z" fill-rule="nonzero" vector-effect="none"/></g><defs><clipPath id="clip316"><path d="M-15,-7 L15,-7 L15,7 L-15,7 L-15,-7 z"/></clipPath></defs><g clip-path="url(#clip316)" fill="none" opacity="1" stroke="#000000" stroke-linecap="butt" stroke-linejoin="miter" stroke-miterlimit="2" stroke-opacity="1" stroke-width="1" transform="matrix(1,0,0,1,584,132)"><text fill="#000000" fill-opacity="1" font-family="Arial" font-size="10" font-style="normal" font-weight="400" stroke="none" textLength="5.54688" x="-2.76562" xml:space="preserve" y="3.5">2</text></g><defs><clipPath id="clip321"><path d="M-568.5,-125.5 L46.0469,-125.5 L46.0469,226.5 L-568.5,226.5 L-568.5,-125.5 z"/></clipPath></defs><g clip-path="url(#clip321)" fill="none" opacity="1" stroke="#000000" stroke-linecap="butt" stroke-linejoin="miter" stroke-miterlimit="2" stroke-opacity="1" stroke-width="1" transform="matrix(1,0,0,1,568.5,125.5)"><path d="M7,0 L23,0 C26.866,0 30,3.13401 30,7 C30,10.866 26.866,14 23,14 L7,14 C3.13401,14 0,10.866 0,7 C0,3.13401 3.13401,0 7,0 z" fill-rule="nonzero" vector-effect="none"/></g><defs><clipPath id="clip327"><path d="M0,0 L58,0 L58,14 L0,14 L0,0 z"/></clipPath></defs><g clip-path="url(#clip327)" fill="none" opacity="1" stroke="#000000" stroke-linecap="square" stroke-linejoin="bevel" stroke-opacity="1" stroke-width="1" transform="matrix(1,0,0,1,554.516,141)"><text fill="#000000" fill-opacity="1" font-family="Arial" font-size="10" font-style="normal" font-weight="400" stroke="none" textLength="56.0312" x="1" xml:space="preserve" y="10">Temperatura</text></g><defs><clipPath id="clip335"><path d="M-569,-320 L45.5469,-320 L45.5469,32 L-569,32 L-569,-320 z"/></clipPath></defs><g clip-path="url(#clip335)" fill="#ffffff" fill-opacity="1" opacity="1" stroke="none" stroke-opacity="0" transform="matrix(1,0,0,1,569,320)"><path d="M7,0 L23,0 C26.866,0 30,3.13401 30,7 C30,10.866 26.866,14 23,14 L7,14 C3.13401,14 0,10.866 0,7 C0,3.13401 3.13401,0 7,0 z" fill-rule="nonzero" vector-effect="none"/></g><defs><clipPath id="clip339"><path d="M-15,-7 L15,-7 L15,7 L-15,7 L-15,-7 z"/></clipPath></defs><g clip-path="url(#clip339)" fill="none" opacity="1" stroke="#000000" stroke-linecap="butt" stroke-linejoin="miter" stroke-miterlimit="2" stroke-opacity="1" stroke-width="1" transform="matrix(1,0,0,1,584,327)"><text fill="#000000" fill-opacity="1" font-family="Arial" font-size="10" font-style="normal" font-weight="400" stroke="none" textLength="5.54688" x="-2.76562" xml:space="preserve" y="3.5">1</text></g><defs><clipPath id="clip344"><path d="M-568.5,-320.5 L46.0469,-320.5 L46.0469,31.5 L-568.5,31.5 L-568.5,-320.5 z"/></clipPath></defs><g clip-path="url(#clip344)" fill="none" opacity="1" stroke="#000000" stroke-linecap="butt" stroke-linejoin="miter" stroke-miterlimit="2" stroke-opacity="1" stroke-width="1" transform="matrix(1,0,0,1,568.5,320.5)"><path d="M7,0 L23,0 C26.866,0 30,3.13401 30,7 C30,10.866 26.866,14 23,14 L7,14 C3.13401,14 0,10.866 0,7 C0,3.13401 3.13401,0 7,0 z" fill-rule="nonzero" vector-effect="none"/></g><defs><clipPath id="clip350"><path d="M0,0 L20,0 L20,14 L0,14 L0,0 z"/></clipPath></defs><g clip-path="url(#clip350)" fill="none" opacity="1" stroke="#000000" stroke-linecap="square" stroke-linejoin="bevel" stroke-opacity="1" stroke-width="1" transform="matrix(1,0,0,1,573.648,336)"><text fill="#000000" fill-opacity="1" font-family="Arial" font-size="10" font-style="normal" font-weight="400" stroke="none" textLength="17.7656" x="1" xml:space="preserve" y="10">R_s</text></g><defs><clipPath id="clip358"><path d="M-234,-112 L380.547,-112 L380.547,240 L-234,240 L-234,-112 z"/></clipPath></defs><g clip-path="url(#clip358)" fill="#ffffff" fill-opacity="1" opacity="1" stroke="none" stroke-opacity="0" transform="matrix(1,0,0,1,234,112)"><path d="M0,0 L40,20 L0,40 L0,0 z" fill-rule="nonzero" vector-effect="none"/></g><defs><clipPath id="clip362"><path d="M0,0 L40,0 L40,40 L0,40 L0,0 z"/></clipPath></defs><g clip-path="url(#clip362)" fill="none" opacity="1" stroke="none" stroke-opacity="0" transform="matrix(1,0,0,1,233.531,112)"><path d="M0,0 L40,20 L0,40 L0,0 z" fill-rule="nonzero" vector-effect="none"/></g><defs><clipPath id="clip372"><path d="M1,-2 L39,-2 L39,32 L1,32 L1,-2 z"/></clipPath></defs><g clip-path="url(#clip372)" fill="#000000" fill-opacity="1" opacity="1" stroke="none" stroke-opacity="0" transform="matrix(1,0,0,1,233.023,117.914)"><path d="M4.29688,17.5781 L3.42188,17.5781 L3.42188,11.9844 C3.21354,12.1823 2.9375,12.3828 2.59375,12.5859 C2.25,12.7891 1.94271,12.9375 1.67188,13.0313 L1.67188,12.1875 C2.16146,11.9583 2.59115,11.6797 2.96094,11.3516 C3.33073,11.0234 3.58854,10.7031 3.73438,10.3906 L4.29688,10.3906 L4.29688,17.5781 M6.125,17.7031 L8.20313,10.2969 L8.90625,10.2969 L6.82813,17.7031 L6.125,17.7031 M14.7656,15.0625 L15.7188,15.3125 C15.5208,16.0833 15.1641,16.6745 14.6484,17.0859 C14.1328,17.4974 13.5,17.7031 12.75,17.7031 C11.9792,17.7031 11.3516,17.5443 10.8672,17.2266 C10.3828,16.9089 10.0156,16.4531 9.76563,15.8594 C9.51563,15.2656 9.39063,14.625 9.39063,13.9375 C9.39063,13.1979 9.53385,12.5495 9.82031,11.9922 C10.1068,11.4349 10.513,11.013 11.0391,10.7266 C11.5651,10.4401 12.1406,10.2969 12.7656,10.2969 C13.4844,10.2969 14.0885,10.4792 14.5781,10.8438 C15.0677,11.2083 15.4063,11.7188 15.5938,12.375 L14.6563,12.6094 C14.4896,12.0885 14.25,11.7083 13.9375,11.4688 C13.625,11.2292 13.2292,11.1094 12.75,11.1094 C12.1979,11.1094 11.737,11.2422 11.3672,11.5078 C10.9974,11.7734 10.737,12.1276 10.5859,12.5703 C10.4349,13.013 10.3594,13.4688 10.3594,13.9375 C10.3594,14.5521 10.4479,15.0859 10.625,15.5391 C10.8021,15.9922 11.0781,16.3307 11.4531,16.5547 C11.8281,16.7786 12.2344,16.8906 12.6719,16.8906 C13.2031,16.8906 13.6536,16.737 14.0234,16.4297 C14.3932,16.1224 14.6406,15.6667 14.7656,15.0625 M15.9531,19.5625 L15.9531,18.9375 L21.7813,18.9375 L21.7813,19.5625 L15.9531,19.5625 M24.2344,16.7969 L24.3594,17.5625 C24.1094,17.6146 23.8906,17.6406 23.7031,17.6406 C23.3802,17.6406 23.1302,17.5911 22.9531,17.4922 C22.776,17.3932 22.6536,17.2604 22.5859,17.0938 C22.5182,16.9271 22.4844,16.5833 22.4844,16.0625 L22.4844,13.0781 L21.8281,13.0781 L21.8281,12.3906 L22.4844,12.3906 L22.4844,11.1094 L23.3438,10.5781 L23.3438,12.3906 L24.2344,12.3906 L24.2344,13.0781 L23.3438,13.0781 L23.3438,16.1094 C23.3438,16.3594 23.3594,16.5208 23.3906,16.5938 C23.4219,16.6667 23.474,16.724 23.5469,16.7656 C23.6198,16.8073 23.7188,16.8281 23.8438,16.8281 C23.9479,16.8281 24.0781,16.8177 24.2344,16.7969 M24.7344,16.0313 L25.5938,15.8906 C25.6458,16.2448 25.7839,16.513 26.0078,16.6953 C26.2318,16.8776 26.5417,16.9688 26.9375,16.9688 C27.3438,16.9688 27.6458,16.888 27.8438,16.7266 C28.0417,16.5651 28.1406,16.3698 28.1406,16.1406 C28.1406,15.9427 28.0521,15.7865 27.875,15.6719 C27.75,15.599 27.4479,15.5 26.9688,15.375 C26.3333,15.2188 25.8906,15.0807 25.6406,14.9609 C25.3906,14.8411 25.2005,14.6771 25.0703,14.4688 C24.9401,14.2604 24.875,14.026 24.875,13.7656 C24.875,13.5365 24.9271,13.3229 25.0313,13.125 C25.1354,12.9271 25.2813,12.7656 25.4688,12.6406 C25.6042,12.5365 25.7891,12.4505 26.0234,12.3828 C26.2578,12.3151 26.5104,12.2813 26.7813,12.2813 C27.1875,12.2813 27.5443,12.3385 27.8516,12.4531 C28.1589,12.5677 28.388,12.7266 28.5391,12.9297 C28.6901,13.1328 28.7917,13.401 28.8438,13.7344 L27.9844,13.8438 C27.9427,13.5833 27.8281,13.3776 27.6406,13.2266 C27.4531,13.0755 27.1875,13 26.8438,13 C26.4479,13 26.1615,13.0651 25.9844,13.1953 C25.8073,13.3255 25.7188,13.4844 25.7188,13.6719 C25.7188,13.7865 25.7552,13.8854 25.8281,13.9688 C25.901,14.0625 26.0156,14.1406 26.1719,14.2031 C26.2552,14.2344 26.5156,14.3125 26.9531,14.4375 C27.5677,14.6042 27.9974,14.7396 28.2422,14.8438 C28.487,14.9479 28.6797,15.1016 28.8203,15.3047 C28.9609,15.5078 29.0313,15.7552 29.0313,16.0469 C29.0313,16.349 28.9479,16.6276 28.7813,16.8828 C28.6146,17.138 28.3698,17.3385 28.0469,17.4844 C27.724,17.6302 27.3594,17.7031 26.9531,17.7031 C26.276,17.7031 25.7604,17.5625 25.4063,17.2813 C25.0521,17 24.8281,16.5833 24.7344,16.0313" fill-rule="nonzero" vector-effect="none"/></g><defs><clipPath id="clip392"><path d="M-233.5,-112.5 L381.047,-112.5 L381.047,239.5 L-233.5,239.5 L-233.5,-112.5 z"/></clipPath></defs><g clip-path="url(#clip392)" fill="none" opacity="1" stroke="#000000" stroke-linecap="butt" stroke-linejoin="miter" stroke-miterlimit="2" stroke-opacity="1" stroke-width="1" transform="matrix(1,0,0,1,233.5,112.5)"><path d="M0,0 L40,20 L0,40 L0,0 z" fill-rule="nonzero" vector-effect="none"/></g><defs><clipPath id="clip395"><path d="M-219,-196 L395.547,-196 L395.547,156 L-219,156 L-219,-196 z"/></clipPath></defs><g clip-path="url(#clip395)" fill="#ffffff" fill-opacity="1" opacity="1" stroke="none" stroke-opacity="0" transform="matrix(1,0,0,1,219,196)"><path d="M75,52 L0,26 L75,0 L75,52 z" fill-rule="nonzero" vector-effect="none"/></g><defs><clipPath id="clip399"><path d="M0,0 L75,0 L75,52 L0,52 L0,0 z"/></clipPath></defs><g clip-path="url(#clip399)" fill="none" opacity="1" stroke="none" stroke-opacity="0" transform="matrix(1,0,0,1,218.531,196)"><path d="M75,52 L0,26 L75,0 L75,52 z" fill-rule="nonzero" vector-effect="none"/></g><defs><clipPath id="clip409"><path d="M-15,-2 L45,-2 L45,32 L-15,32 L-15,-2 z"/></clipPath></defs><g clip-path="url(#clip409)" fill="#000000" fill-opacity="1" opacity="1" stroke="none" stroke-opacity="0" transform="matrix(1,0,0,1,248.975,207.914)"><path d="M-12.3125,15.6875 L-11.4375,15.5781 C-11.3333,16.0677 -11.1615,16.4245 -10.9219,16.6484 C-10.6823,16.8724 -10.3854,16.9844 -10.0313,16.9844 C-9.61458,16.9844 -9.26563,16.8411 -8.98438,16.5547 C-8.70313,16.2682 -8.5625,15.9115 -8.5625,15.4844 C-8.5625,15.0781 -8.69271,14.7448 -8.95313,14.4844 C-9.21354,14.224 -9.54688,14.0938 -9.95313,14.0938 C-10.1198,14.0938 -10.3281,14.125 -10.5781,14.1875 L-10.4844,13.4219 C-10.4219,13.4219 -10.375,13.4219 -10.3438,13.4219 C-9.96875,13.4219 -9.63021,13.3255 -9.32813,13.1328 C-9.02604,12.9401 -8.875,12.6406 -8.875,12.2344 C-8.875,11.9115 -8.98438,11.6432 -9.20313,11.4297 C-9.42188,11.2161 -9.70313,11.1094 -10.0469,11.1094 C-10.3906,11.1094 -10.6771,11.2161 -10.9063,11.4297 C-11.1354,11.6432 -11.2813,11.9688 -11.3438,12.4063 L-12.2188,12.25 C-12.1146,11.6563 -11.8724,11.1979 -11.4922,10.875 C-11.112,10.5521 -10.6406,10.3906 -10.0781,10.3906 C-9.68229,10.3906 -9.32031,10.474 -8.99219,10.6406 C-8.66406,10.8073 -8.41406,11.0365 -8.24219,11.3281 C-8.07031,11.6198 -7.98438,11.9271 -7.98438,12.25 C-7.98438,12.5625 -8.0651,12.8438 -8.22656,13.0938 C-8.38802,13.3438 -8.63542,13.5469 -8.96875,13.7031 C-8.54167,13.7969 -8.21094,13.9974 -7.97656,14.3047 C-7.74219,14.612 -7.625,15 -7.625,15.4688 C-7.625,16.0938 -7.85417,16.6224 -8.3125,17.0547 C-8.77083,17.487 -9.34375,17.7031 -10.0313,17.7031 C-10.6667,17.7031 -11.1901,17.5156 -11.6016,17.1406 C-12.013,16.7656 -12.25,16.2813 -12.3125,15.6875 M-6.875,11.7344 L-6.65625,11.0469 C-6.13542,11.224 -5.75521,11.3802 -5.51563,11.5156 C-5.57813,10.9219 -5.61458,10.5156 -5.625,10.2969 L-4.90625,10.2969 C-4.91667,10.6198 -4.95833,11.026 -5.03125,11.5156 C-4.6875,11.3385 -4.30208,11.1823 -3.875,11.0469 L-3.64063,11.7344 C-4.05729,11.8698 -4.46354,11.9583 -4.85938,12 C-4.66146,12.1771 -4.38021,12.4844 -4.01563,12.9219 L-4.60938,13.3438 C-4.79688,13.0833 -5.02083,12.7344 -5.28125,12.2969 C-5.52083,12.7552 -5.72917,13.1042 -5.90625,13.3438 L-6.48438,12.9219 C-6.10938,12.4635 -5.83854,12.1563 -5.67188,12 C-6.09896,11.9271 -6.5,11.8385 -6.875,11.7344 M-2.51563,17.5781 L-2.51563,10.4219 L0.65625,10.4219 C1.30208,10.4219 1.78906,10.487 2.11719,10.6172 C2.44531,10.7474 2.71094,10.974 2.91406,11.2969 C3.11719,11.6198 3.21875,11.9792 3.21875,12.375 C3.21875,12.8854 3.05208,13.3125 2.71875,13.6563 C2.38542,14 1.88021,14.224 1.20313,14.3281 C1.45313,14.4427 1.64063,14.5573 1.76563,14.6719 C2.04688,14.9323 2.30729,15.25 2.54688,15.625 L3.79688,17.5781 L2.60938,17.5781 L1.65625,16.0938 C1.38542,15.6563 1.15885,15.3255 0.976563,15.1016 C0.794271,14.8776 0.632813,14.7188 0.492188,14.625 C0.351563,14.5313 0.208333,14.4688 0.0625,14.4375 C-0.0416667,14.4167 -0.21875,14.4063 -0.46875,14.4063 L-1.5625,14.4063 L-1.5625,17.5781 L-2.51563,17.5781 M-1.5625,13.5781 L0.46875,13.5781 C0.90625,13.5781 1.2474,13.5339 1.49219,13.4453 C1.73698,13.3568 1.92188,13.2135 2.04688,13.0156 C2.17188,12.8177 2.23438,12.6042 2.23438,12.375 C2.23438,12.0313 2.11198,11.75 1.86719,11.5313 C1.6224,11.3125 1.23438,11.2031 0.703125,11.2031 L-1.5625,11.2031 L-1.5625,13.5781 M3.75,19.5625 L3.75,18.9375 L9.57813,18.9375 L9.57813,19.5625 L3.75,19.5625 M9.76563,16.0313 L10.625,15.8906 C10.6771,16.2448 10.8151,16.513 11.0391,16.6953 C11.263,16.8776 11.5729,16.9688 11.9688,16.9688 C12.375,16.9688 12.6771,16.888 12.875,16.7266 C13.0729,16.5651 13.1719,16.3698 13.1719,16.1406 C13.1719,15.9427 13.0833,15.7865 12.9063,15.6719 C12.7813,15.599 12.4792,15.5 12,15.375 C11.3646,15.2188 10.9219,15.0807 10.6719,14.9609 C10.4219,14.8411 10.2318,14.6771 10.1016,14.4688 C9.97135,14.2604 9.90625,14.026 9.90625,13.7656 C9.90625,13.5365 9.95833,13.3229 10.0625,13.125 C10.1667,12.9271 10.3125,12.7656 10.5,12.6406 C10.6354,12.5365 10.8203,12.4505 11.0547,12.3828 C11.2891,12.3151 11.5417,12.2813 11.8125,12.2813 C12.2188,12.2813 12.5755,12.3385 12.8828,12.4531 C13.1901,12.5677 13.4193,12.7266 13.5703,12.9297 C13.7214,13.1328 13.8229,13.401 13.875,13.7344 L13.0156,13.8438 C12.974,13.5833 12.8594,13.3776 12.6719,13.2266 C12.4844,13.0755 12.2188,13 11.875,13 C11.4792,13 11.1927,13.0651 11.0156,13.1953 C10.8385,13.3255 10.75,13.4844 10.75,13.6719 C10.75,13.7865 10.7865,13.8854 10.8594,13.9688 C10.9323,14.0625 11.0469,14.1406 11.2031,14.2031 C11.2865,14.2344 11.5469,14.3125 11.9844,14.4375 C12.599,14.6042 13.0286,14.7396 13.2734,14.8438 C13.5182,14.9479 13.7109,15.1016 13.8516,15.3047 C13.9922,15.5078 14.0625,15.7552 14.0625,16.0469 C14.0625,16.349 13.9792,16.6276 13.8125,16.8828 C13.6458,17.138 13.401,17.3385 13.0781,17.4844 C12.7552,17.6302 12.3906,17.7031 11.9844,17.7031 C11.3073,17.7031 10.7917,17.5625 10.4375,17.2813 C10.0833,17 9.85938,16.5833 9.76563,16.0313 M15.2344,17.5781 L15.2344,10.4219 L18.4063,10.4219 C19.0521,10.4219 19.5391,10.487 19.8672,10.6172 C20.1953,10.7474 20.4609,10.974 20.6641,11.2969 C20.8672,11.6198 20.9688,11.9792 20.9688,12.375 C20.9688,12.8854 20.8021,13.3125 20.4688,13.6563 C20.1354,14 19.6302,14.224 18.9531,14.3281 C19.2031,14.4427 19.3906,14.5573 19.5156,14.6719 C19.7969,14.9323 20.0573,15.25 20.2969,15.625 L21.5469,17.5781 L20.3594,17.5781 L19.4063,16.0938 C19.1354,15.6563 18.9089,15.3255 18.7266,15.1016 C18.5443,14.8776 18.3828,14.7188 18.2422,14.625 C18.1016,14.5313 17.9583,14.4688 17.8125,14.4375 C17.7083,14.4167 17.5313,14.4063 17.2813,14.4063 L16.1875,14.4063 L16.1875,17.5781 L15.2344,17.5781 M16.1875,13.5781 L18.2188,13.5781 C18.6563,13.5781 18.9974,13.5339 19.2422,13.4453 C19.487,13.3568 19.6719,13.2135 19.7969,13.0156 C19.9219,12.8177 19.9844,12.6042 19.9844,12.375 C19.9844,12.0313 19.862,11.75 19.6172,11.5313 C19.3724,11.3125 18.9844,11.2031 18.4531,11.2031 L16.1875,11.2031 L16.1875,13.5781 M22.4688,17.5781 L22.4688,10.4219 L27.6406,10.4219 L27.6406,11.2656 L23.4063,11.2656 L23.4063,13.4531 L27.375,13.4531 L27.375,14.2969 L23.4063,14.2969 L23.4063,16.7344 L27.8125,16.7344 L27.8125,17.5781 L22.4688,17.5781 M29.1563,17.5781 L29.1563,10.4219 L33.9844,10.4219 L33.9844,11.2656 L30.0938,11.2656 L30.0938,13.4844 L33.4531,13.4844 L33.4531,14.3281 L30.0938,14.3281 L30.0938,17.5781 L29.1563,17.5781 M34.4219,17.7031 L36.5,10.2969 L37.2031,10.2969 L35.125,17.7031 L34.4219,17.7031 M42.2188,16.7344 L42.2188,17.5781 L37.4844,17.5781 C37.4844,17.3698 37.5208,17.1667 37.5938,16.9688 C37.7188,16.6458 37.9115,16.3281 38.1719,16.0156 C38.4323,15.7031 38.8177,15.3438 39.3281,14.9375 C40.099,14.2917 40.6224,13.7839 40.8984,13.4141 C41.1745,13.0443 41.3125,12.6927 41.3125,12.3594 C41.3125,12.0052 41.1875,11.7109 40.9375,11.4766 C40.6875,11.2422 40.3646,11.125 39.9688,11.125 C39.5417,11.125 39.2005,11.25 38.9453,11.5 C38.6901,11.75 38.5625,12.099 38.5625,12.5469 L37.6563,12.4531 C37.7188,11.7865 37.9505,11.276 38.3516,10.9219 C38.7526,10.5677 39.2969,10.3906 39.9844,10.3906 C40.6719,10.3906 41.2161,10.5807 41.6172,10.9609 C42.0182,11.3411 42.2188,11.8125 42.2188,12.375 C42.2188,12.6667 42.1589,12.9505 42.0391,13.2266 C41.9193,13.5026 41.724,13.7943 41.4531,14.1016 C41.1823,14.4089 40.7292,14.8281 40.0938,15.3594 C39.5729,15.7969 39.237,16.0964 39.0859,16.2578 C38.9349,16.4193 38.8125,16.5781 38.7188,16.7344 L42.2188,16.7344" fill-rule="nonzero" vector-effect="none"/></g><defs><clipPath id="clip429"><path d="M-218.5,-196.5 L396.047,-196.5 L396.047,155.5 L-218.5,155.5 L-218.5,-196.5 z"/></clipPath></defs><g clip-path="url(#clip429)" fill="none" opacity="1" stroke="#000000" stroke-linecap="butt" stroke-linejoin="miter" stroke-miterlimit="2" stroke-opacity="1" stroke-width="1" transform="matrix(1,0,0,1,218.5,196.5)"><path d="M75,52 L0,26 L75,0 L75,52 z" fill-rule="nonzero" vector-effect="none"/></g><defs><clipPath id="clip432"><path d="M-319,-257 L295.547,-257 L295.547,95 L-319,95 L-319,-257 z"/></clipPath></defs><g clip-path="url(#clip432)" fill="#ffffff" fill-opacity="1" opacity="1" stroke="none" stroke-opacity="0" transform="matrix(1,0,0,1,319,257)"><path d="M0,0 L30,0 L30,30 L0,30 L0,0 z" fill-rule="evenodd" vector-effect="none"/></g><defs><clipPath id="clip436"><path d="M0,0 L31,0 L31,31 L0,31 L0,0 z"/></clipPath></defs><g clip-path="url(#clip436)" fill="none" opacity="1" stroke="none" stroke-opacity="0" transform="matrix(1,0,0,1,318.531,257)"><path d="M0,0 L31,0 L31,31 L0,31 L0,0 z" fill-rule="evenodd" vector-effect="none"/></g><defs><clipPath id="clip446"><path d="M0,0 L30,0 L30,30 L0,30 L0,0 z"/></clipPath></defs><g clip-path="url(#clip446)" fill="#000000" fill-opacity="1" opacity="1" stroke="none" stroke-opacity="0" transform="matrix(1,0,0,1,318.531,257)"><path d="M15.9375,17.5781 L15.0625,17.5781 L15.0625,11.9844 C14.8542,12.1823 14.5781,12.3828 14.2344,12.5859 C13.8906,12.7891 13.5833,12.9375 13.3125,13.0313 L13.3125,12.1875 C13.8021,11.9583 14.2318,11.6797 14.6016,11.3516 C14.9714,11.0234 15.2292,10.7031 15.375,10.3906 L15.9375,10.3906 L15.9375,17.5781 z" fill-rule="nonzero" vector-effect="none"/></g><defs><clipPath id="clip466"><path d="M-318.5,-257.5 L296.047,-257.5 L296.047,94.5 L-318.5,94.5 L-318.5,-257.5 z"/></clipPath></defs><g clip-path="url(#clip466)" fill="none" opacity="1" stroke="#000000" stroke-linecap="butt" stroke-linejoin="miter" stroke-miterlimit="2" stroke-opacity="1" stroke-width="1" transform="matrix(1,0,0,1,318.5,257.5)"><path d="M0,0 L30,0 L30,30 L0,30 L0,0 z" fill-rule="evenodd" vector-effect="none"/></g><defs><clipPath id="clip469"><path d="M-374,-194 L240.547,-194 L240.547,158 L-374,158 L-374,-194 z"/></clipPath></defs><g clip-path="url(#clip469)" fill="#ffffff" fill-opacity="1" opacity="1" stroke="none" stroke-opacity="0" transform="matrix(1,0,0,1,374,194)"><path d="M60,56 L0,28 L60,0 L60,56 z" fill-rule="nonzero" vector-effect="none"/></g><defs><clipPath id="clip473"><path d="M0,0 L60,0 L60,56 L0,56 L0,0 z"/></clipPath></defs><g clip-path="url(#clip473)" fill="none" opacity="1" stroke="none" stroke-opacity="0" transform="matrix(1,0,0,1,373.531,194)"><path d="M60,56 L0,28 L60,0 L60,56 z" fill-rule="nonzero" vector-effect="none"/></g><defs><clipPath id="clip483"><path d="M-8,-2 L37,-2 L37,32 L-8,32 L-8,-2 z"/></clipPath></defs><g clip-path="url(#clip483)" fill="#000000" fill-opacity="1" opacity="1" stroke="none" stroke-opacity="0" transform="matrix(1,0,0,1,394.432,207.914)"><path d="M-1.20313,16.9375 C-1.52604,17.2188 -1.83854,17.4167 -2.14063,17.5313 C-2.44271,17.6458 -2.76563,17.7031 -3.10938,17.7031 C-3.68229,17.7031 -4.1224,17.5625 -4.42969,17.2813 C-4.73698,17 -4.89063,16.6406 -4.89063,16.2031 C-4.89063,15.9531 -4.83333,15.724 -4.71875,15.5156 C-4.60417,15.3073 -4.45313,15.138 -4.26563,15.0078 C-4.07813,14.8776 -3.86458,14.7813 -3.625,14.7188 C-3.45833,14.6771 -3.19792,14.6354 -2.84375,14.5938 C-2.13542,14.5104 -1.61458,14.4063 -1.28125,14.2813 C-1.28125,14.1667 -1.28125,14.0938 -1.28125,14.0625 C-1.28125,13.6979 -1.36458,13.4427 -1.53125,13.2969 C-1.75,13.099 -2.08333,13 -2.53125,13 C-2.9375,13 -3.23958,13.0729 -3.4375,13.2188 C-3.63542,13.3646 -3.78125,13.6198 -3.875,13.9844 L-4.73438,13.875 C-4.66146,13.5 -4.53385,13.2005 -4.35156,12.9766 C-4.16927,12.7526 -3.90885,12.5807 -3.57031,12.4609 C-3.23177,12.3411 -2.83854,12.2813 -2.39063,12.2813 C-1.95313,12.2813 -1.59635,12.3333 -1.32031,12.4375 C-1.04427,12.5417 -0.841146,12.6719 -0.710938,12.8281 C-0.580729,12.9844 -0.489583,13.1823 -0.4375,13.4219 C-0.40625,13.5677 -0.390625,13.8385 -0.390625,14.2344 L-0.390625,15.4063 C-0.390625,16.2188 -0.372396,16.7344 -0.335938,16.9531 C-0.299479,17.1719 -0.223958,17.3802 -0.109375,17.5781 L-1.03125,17.5781 C-1.125,17.3906 -1.18229,17.1771 -1.20313,16.9375 M-1.28125,14.9688 C-1.60417,15.1042 -2.08333,15.2188 -2.71875,15.3125 C-3.07292,15.3646 -3.32552,15.4219 -3.47656,15.4844 C-3.6276,15.5469 -3.74479,15.6406 -3.82813,15.7656 C-3.91146,15.8906 -3.95313,16.0313 -3.95313,16.1875 C-3.95313,16.4167 -3.86458,16.6094 -3.6875,16.7656 C-3.51042,16.9219 -3.25,17 -2.90625,17 C-2.5625,17 -2.26042,16.9271 -2,16.7813 C-1.73958,16.6354 -1.54688,16.4323 -1.42188,16.1719 C-1.32813,15.974 -1.28125,15.6823 -1.28125,15.2969 L-1.28125,14.9688 M0.9375,17.5781 L0.9375,10.4219 L1.8125,10.4219 L1.8125,17.5781 L0.9375,17.5781 M3.17188,19.5625 L3.17188,12.3906 L3.96875,12.3906 L3.96875,13.0625 C4.16667,12.8021 4.38281,12.6068 4.61719,12.4766 C4.85156,12.3464 5.14063,12.2813 5.48438,12.2813 C5.92188,12.2813 6.3099,12.3932 6.64844,12.6172 C6.98698,12.8411 7.24219,13.1615 7.41406,13.5781 C7.58594,13.9948 7.67188,14.4531 7.67188,14.9531 C7.67188,15.474 7.57813,15.9479 7.39063,16.375 C7.20313,16.8021 6.92708,17.1302 6.5625,17.3594 C6.19792,17.5885 5.81771,17.7031 5.42188,17.7031 C5.13021,17.7031 4.86719,17.6406 4.63281,17.5156 C4.39844,17.3906 4.20313,17.2344 4.04688,17.0469 L4.04688,19.5625 L3.17188,19.5625 M3.96875,15.0156 C3.96875,15.6823 4.10417,16.1745 4.375,16.4922 C4.64583,16.8099 4.97396,16.9688 5.35938,16.9688 C5.74479,16.9688 6.07813,16.8047 6.35938,16.4766 C6.64063,16.1484 6.78125,15.6354 6.78125,14.9375 C6.78125,14.2813 6.64583,13.7891 6.375,13.4609 C6.10417,13.1328 5.77604,12.9688 5.39063,12.9688 C5.01563,12.9688 4.6849,13.1432 4.39844,13.4922 C4.11198,13.8411 3.96875,14.349 3.96875,15.0156 M8.71875,17.5781 L8.71875,10.4219 L9.59375,10.4219 L9.59375,12.9844 C10.0104,12.5156 10.5313,12.2813 11.1563,12.2813 C11.5417,12.2813 11.875,12.3568 12.1563,12.5078 C12.4375,12.6589 12.6406,12.8672 12.7656,13.1328 C12.8906,13.3984 12.9531,13.7865 12.9531,14.2969 L12.9531,17.5781 L12.0625,17.5781 L12.0625,14.2969 C12.0625,13.849 11.9688,13.526 11.7813,13.3281 C11.5938,13.1302 11.3229,13.0313 10.9688,13.0313 C10.7083,13.0313 10.4635,13.099 10.2344,13.2344 C10.0052,13.3698 9.84115,13.5521 9.74219,13.7813 C9.64323,14.0104 9.59375,14.3281 9.59375,14.7344 L9.59375,17.5781 L8.71875,17.5781 M17.6563,16.9375 C17.3333,17.2188 17.0208,17.4167 16.7188,17.5313 C16.4167,17.6458 16.0938,17.7031 15.75,17.7031 C15.1771,17.7031 14.737,17.5625 14.4297,17.2813 C14.1224,17 13.9688,16.6406 13.9688,16.2031 C13.9688,15.9531 14.026,15.724 14.1406,15.5156 C14.2552,15.3073 14.4063,15.138 14.5938,15.0078 C14.7813,14.8776 14.9948,14.7813 15.2344,14.7188 C15.401,14.6771 15.6615,14.6354 16.0156,14.5938 C16.724,14.5104 17.2448,14.4063 17.5781,14.2813 C17.5781,14.1667 17.5781,14.0938 17.5781,14.0625 C17.5781,13.6979 17.4948,13.4427 17.3281,13.2969 C17.1094,13.099 16.776,13 16.3281,13 C15.9219,13 15.6198,13.0729 15.4219,13.2188 C15.224,13.3646 15.0781,13.6198 14.9844,13.9844 L14.125,13.875 C14.1979,13.5 14.3255,13.2005 14.5078,12.9766 C14.6901,12.7526 14.9505,12.5807 15.2891,12.4609 C15.6276,12.3411 16.0208,12.2813 16.4688,12.2813 C16.9063,12.2813 17.263,12.3333 17.5391,12.4375 C17.8151,12.5417 18.0182,12.6719 18.1484,12.8281 C18.2786,12.9844 18.3698,13.1823 18.4219,13.4219 C18.4531,13.5677 18.4688,13.8385 18.4688,14.2344 L18.4688,15.4063 C18.4688,16.2188 18.487,16.7344 18.5234,16.9531 C18.5599,17.1719 18.6354,17.3802 18.75,17.5781 L17.8281,17.5781 C17.7344,17.3906 17.6771,17.1771 17.6563,16.9375 M17.5781,14.9688 C17.2552,15.1042 16.776,15.2188 16.1406,15.3125 C15.7865,15.3646 15.5339,15.4219 15.3828,15.4844 C15.2318,15.5469 15.1146,15.6406 15.0313,15.7656 C14.9479,15.8906 14.9063,16.0313 14.9063,16.1875 C14.9063,16.4167 14.9948,16.6094 15.1719,16.7656 C15.349,16.9219 15.6094,17 15.9531,17 C16.2969,17 16.599,16.9271 16.8594,16.7813 C17.1198,16.6354 17.3125,16.4323 17.4375,16.1719 C17.5313,15.974 17.5781,15.6823 17.5781,15.2969 L17.5781,14.9688 M19,19.5625 L19,18.9375 L24.8281,18.9375 L24.8281,19.5625 L19,19.5625 M28.75,15.6719 L29.6094,15.7969 C29.5156,16.3906 29.2734,16.8568 28.8828,17.1953 C28.4922,17.5339 28.0156,17.7031 27.4531,17.7031 C26.7448,17.7031 26.1745,17.4688 25.7422,17 C25.3099,16.5313 25.0938,15.8646 25.0938,15 C25.0938,14.4479 25.1875,13.9609 25.375,13.5391 C25.5625,13.1172 25.8438,12.8021 26.2188,12.5938 C26.5938,12.3854 27.0052,12.2813 27.4531,12.2813 C28.0156,12.2813 28.4766,12.4219 28.8359,12.7031 C29.1953,12.9844 29.4271,13.3906 29.5313,13.9219 L28.6719,14.0469 C28.5885,13.7031 28.4453,13.4427 28.2422,13.2656 C28.0391,13.0885 27.7865,13 27.4844,13 C27.0469,13 26.6901,13.1589 26.4141,13.4766 C26.138,13.7943 26,14.2969 26,14.9844 C26,15.6823 26.1328,16.1875 26.3984,16.5 C26.6641,16.8125 27.0104,16.9688 27.4375,16.9688 C27.7813,16.9688 28.0703,16.8646 28.3047,16.6563 C28.5391,16.4479 28.6875,16.1198 28.75,15.6719 M33.7656,17.5781 L33.7656,16.8125 C33.3594,17.4063 32.8073,17.7031 32.1094,17.7031 C31.8073,17.7031 31.5234,17.6432 31.2578,17.5234 C30.9922,17.4036 30.7943,17.2552 30.6641,17.0781 C30.5339,16.901 30.4427,16.6823 30.3906,16.4219 C30.3594,16.2552 30.3438,15.9844 30.3438,15.6094 L30.3438,12.3906 L31.2188,12.3906 L31.2188,15.2656 C31.2188,15.724 31.2396,16.0365 31.2813,16.2031 C31.3333,16.4323 31.4479,16.612 31.625,16.7422 C31.8021,16.8724 32.026,16.9375 32.2969,16.9375 C32.5573,16.9375 32.8021,16.8698 33.0313,16.7344 C33.2604,16.599 33.4245,16.4141 33.5234,16.1797 C33.6224,15.9453 33.6719,15.6094 33.6719,15.1719 L33.6719,12.3906 L34.5469,12.3906 L34.5469,17.5781 L33.7656,17.5781" fill-rule="nonzero" vector-effect="none"/></g><defs><clipPath id="clip503"><path d="M-373.5,-194.5 L241.047,-194.5 L241.047,157.5 L-373.5,157.5 L-373.5,-194.5 z"/></clipPath></defs><g clip-path="url(#clip503)" fill="none" opacity="1" stroke="#000000" stroke-linecap="butt" stroke-linejoin="miter" stroke-miterlimit="2" stroke-opacity="1" stroke-width="1" transform="matrix(1,0,0,1,373.5,194.5)"><path d="M60,56 L0,28 L60,0 L60,56 z" fill-rule="nonzero" vector-effect="none"/></g><defs><clipPath id="clip506"><path d="M-120,-52 L494.547,-52 L494.547,300 L-120,300 L-120,-52 z"/></clipPath></defs><g clip-path="url(#clip506)" fill="#ffffff" fill-opacity="1" opacity="1" stroke="none" stroke-opacity="0" transform="matrix(1,0,0,1,120,52)"><path d="M78,0 L39,45 L0,2.75546e-15 L78,0 z" fill-rule="nonzero" vector-effect="none"/></g><defs><clipPath id="clip510"><path d="M0,0 L78,0 L78,45 L0,45 L0,0 z"/></clipPath></defs><g clip-path="url(#clip510)" fill="none" opacity="1" stroke="none" stroke-opacity="0" transform="matrix(1,0,0,1,119.531,52)"><path d="M78,0 L39,45 L0,2.75546e-15 L78,0 z" fill-rule="nonzero" vector-effect="none"/></g><defs><clipPath id="clip520"><path d="M-13,7 L44,7 L44,47 L-13,47 L-13,7 z"/></clipPath></defs><g clip-path="url(#clip520)" fill="#000000" fill-opacity="1" opacity="1" stroke="none" stroke-opacity="0" transform="matrix(1,-1.83697e-16,1.83697e-16,1,143.531,44.8912)"><path d="M-8.1875,17.5781 L-9.0625,17.5781 L-9.0625,11.9844 C-9.27083,12.1823 -9.54688,12.3828 -9.89063,12.5859 C-10.2344,12.7891 -10.5417,12.9375 -10.8125,13.0313 L-10.8125,12.1875 C-10.3229,11.9583 -9.89323,11.6797 -9.52344,11.3516 C-9.15365,11.0234 -8.89583,10.7031 -8.75,10.3906 L-8.1875,10.3906 L-8.1875,17.5781 M-6.35938,17.7031 L-4.28125,10.2969 L-3.57813,10.2969 L-5.65625,17.7031 L-6.35938,17.7031 M-2.8125,17.5781 L-2.8125,10.4219 L0.359375,10.4219 C1.00521,10.4219 1.49219,10.487 1.82031,10.6172 C2.14844,10.7474 2.41406,10.974 2.61719,11.2969 C2.82031,11.6198 2.92188,11.9792 2.92188,12.375 C2.92188,12.8854 2.75521,13.3125 2.42188,13.6563 C2.08854,14 1.58333,14.224 0.90625,14.3281 C1.15625,14.4427 1.34375,14.5573 1.46875,14.6719 C1.75,14.9323 2.01042,15.25 2.25,15.625 L3.5,17.5781 L2.3125,17.5781 L1.35938,16.0938 C1.08854,15.6563 0.861979,15.3255 0.679688,15.1016 C0.497396,14.8776 0.335938,14.7188 0.195313,14.625 C0.0546875,14.5313 -0.0885417,14.4688 -0.234375,14.4375 C-0.338542,14.4167 -0.515625,14.4063 -0.765625,14.4063 L-1.85938,14.4063 L-1.85938,17.5781 L-2.8125,17.5781 M-1.85938,13.5781 L0.171875,13.5781 C0.609375,13.5781 0.950521,13.5339 1.19531,13.4453 C1.4401,13.3568 1.625,13.2135 1.75,13.0156 C1.875,12.8177 1.9375,12.6042 1.9375,12.375 C1.9375,12.0313 1.8151,11.75 1.57031,11.5313 C1.32552,11.3125 0.9375,11.2031 0.40625,11.2031 L-1.85938,11.2031 L-1.85938,13.5781 M3.46875,19.5625 L3.46875,18.9375 L9.29688,18.9375 L9.29688,19.5625 L3.46875,19.5625 M11.75,16.7969 L11.875,17.5625 C11.625,17.6146 11.4063,17.6406 11.2188,17.6406 C10.8958,17.6406 10.6458,17.5911 10.4688,17.4922 C10.2917,17.3932 10.1693,17.2604 10.1016,17.0938 C10.0339,16.9271 10,16.5833 10,16.0625 L10,13.0781 L9.34375,13.0781 L9.34375,12.3906 L10,12.3906 L10,11.1094 L10.8594,10.5781 L10.8594,12.3906 L11.75,12.3906 L11.75,13.0781 L10.8594,13.0781 L10.8594,16.1094 C10.8594,16.3594 10.875,16.5208 10.9063,16.5938 C10.9375,16.6667 10.9896,16.724 11.0625,16.7656 C11.1354,16.8073 11.2344,16.8281 11.3594,16.8281 C11.4635,16.8281 11.5938,16.8177 11.75,16.7969 M12.25,16.0313 L13.1094,15.8906 C13.1615,16.2448 13.2995,16.513 13.5234,16.6953 C13.7474,16.8776 14.0573,16.9688 14.4531,16.9688 C14.8594,16.9688 15.1615,16.888 15.3594,16.7266 C15.5573,16.5651 15.6563,16.3698 15.6563,16.1406 C15.6563,15.9427 15.5677,15.7865 15.3906,15.6719 C15.2656,15.599 14.9635,15.5 14.4844,15.375 C13.849,15.2188 13.4063,15.0807 13.1563,14.9609 C12.9063,14.8411 12.7161,14.6771 12.5859,14.4688 C12.4557,14.2604 12.3906,14.026 12.3906,13.7656 C12.3906,13.5365 12.4427,13.3229 12.5469,13.125 C12.651,12.9271 12.7969,12.7656 12.9844,12.6406 C13.1198,12.5365 13.3047,12.4505 13.5391,12.3828 C13.7734,12.3151 14.026,12.2813 14.2969,12.2813 C14.7031,12.2813 15.0599,12.3385 15.3672,12.4531 C15.6745,12.5677 15.9036,12.7266 16.0547,12.9297 C16.2057,13.1328 16.3073,13.401 16.3594,13.7344 L15.5,13.8438 C15.4583,13.5833 15.3438,13.3776 15.1563,13.2266 C14.9688,13.0755 14.7031,13 14.3594,13 C13.9635,13 13.6771,13.0651 13.5,13.1953 C13.3229,13.3255 13.2344,13.4844 13.2344,13.6719 C13.2344,13.7865 13.2708,13.8854 13.3438,13.9688 C13.4167,14.0625 13.5313,14.1406 13.6875,14.2031 C13.7708,14.2344 14.0313,14.3125 14.4688,14.4375 C15.0833,14.6042 15.513,14.7396 15.7578,14.8438 C16.0026,14.9479 16.1953,15.1016 16.3359,15.3047 C16.4766,15.5078 16.5469,15.7552 16.5469,16.0469 C16.5469,16.349 16.4635,16.6276 16.2969,16.8828 C16.1302,17.138 15.8854,17.3385 15.5625,17.4844 C15.2396,17.6302 14.875,17.7031 14.4688,17.7031 C13.7917,17.7031 13.276,17.5625 12.9219,17.2813 C12.5677,17 12.3438,16.5833 12.25,16.0313 M16.7813,19.5625 L16.7813,18.9375 L22.6094,18.9375 L22.6094,19.5625 L16.7813,19.5625 M26.5313,16.9375 C26.2083,17.2188 25.8958,17.4167 25.5938,17.5313 C25.2917,17.6458 24.9688,17.7031 24.625,17.7031 C24.0521,17.7031 23.612,17.5625 23.3047,17.2813 C22.9974,17 22.8438,16.6406 22.8438,16.2031 C22.8438,15.9531 22.901,15.724 23.0156,15.5156 C23.1302,15.3073 23.2813,15.138 23.4688,15.0078 C23.6563,14.8776 23.8698,14.7813 24.1094,14.7188 C24.276,14.6771 24.5365,14.6354 24.8906,14.5938 C25.599,14.5104 26.1198,14.4063 26.4531,14.2813 C26.4531,14.1667 26.4531,14.0938 26.4531,14.0625 C26.4531,13.6979 26.3698,13.4427 26.2031,13.2969 C25.9844,13.099 25.651,13 25.2031,13 C24.7969,13 24.4948,13.0729 24.2969,13.2188 C24.099,13.3646 23.9531,13.6198 23.8594,13.9844 L23,13.875 C23.0729,13.5 23.2005,13.2005 23.3828,12.9766 C23.5651,12.7526 23.8255,12.5807 24.1641,12.4609 C24.5026,12.3411 24.8958,12.2813 25.3438,12.2813 C25.7813,12.2813 26.138,12.3333 26.4141,12.4375 C26.6901,12.5417 26.8932,12.6719 27.0234,12.8281 C27.1536,12.9844 27.2448,13.1823 27.2969,13.4219 C27.3281,13.5677 27.3438,13.8385 27.3438,14.2344 L27.3438,15.4063 C27.3438,16.2188 27.362,16.7344 27.3984,16.9531 C27.4349,17.1719 27.5104,17.3802 27.625,17.5781 L26.7031,17.5781 C26.6094,17.3906 26.5521,17.1771 26.5313,16.9375 M26.4531,14.9688 C26.1302,15.1042 25.651,15.2188 25.0156,15.3125 C24.6615,15.3646 24.4089,15.4219 24.2578,15.4844 C24.1068,15.5469 23.9896,15.6406 23.9063,15.7656 C23.8229,15.8906 23.7813,16.0313 23.7813,16.1875 C23.7813,16.4167 23.8698,16.6094 24.0469,16.7656 C24.224,16.9219 24.4844,17 24.8281,17 C25.1719,17 25.474,16.9271 25.7344,16.7813 C25.9948,16.6354 26.1875,16.4323 26.3125,16.1719 C26.4063,15.974 26.4531,15.6823 26.4531,15.2969 L26.4531,14.9688 M28.6875,17.5781 L28.6875,12.3906 L29.4844,12.3906 L29.4844,13.125 C29.6406,12.8646 29.8542,12.6589 30.125,12.5078 C30.3958,12.3568 30.7031,12.2813 31.0469,12.2813 C31.4323,12.2813 31.7474,12.3594 31.9922,12.5156 C32.237,12.6719 32.4115,12.8958 32.5156,13.1875 C32.9219,12.5833 33.4531,12.2813 34.1094,12.2813 C34.6302,12.2813 35.0286,12.4219 35.3047,12.7031 C35.5807,12.9844 35.7188,13.4219 35.7188,14.0156 L35.7188,17.5781 L34.8438,17.5781 L34.8438,14.3125 C34.8438,13.9583 34.8151,13.7031 34.7578,13.5469 C34.7005,13.3906 34.5964,13.2656 34.4453,13.1719 C34.2943,13.0781 34.1198,13.0313 33.9219,13.0313 C33.5573,13.0313 33.2552,13.1536 33.0156,13.3984 C32.776,13.6432 32.6563,14.0313 32.6563,14.5625 L32.6563,17.5781 L31.7656,17.5781 L31.7656,14.2031 C31.7656,13.8177 31.6953,13.526 31.5547,13.3281 C31.4141,13.1302 31.1823,13.0313 30.8594,13.0313 C30.6094,13.0313 30.3802,13.0964 30.1719,13.2266 C29.9635,13.3568 29.8099,13.5469 29.7109,13.7969 C29.612,14.0469 29.5625,14.4115 29.5625,14.8906 L29.5625,17.5781 L28.6875,17.5781 M37.8281,17.5781 L37.0156,17.5781 L37.0156,10.4219 L37.8906,10.4219 L37.8906,12.9688 C38.2656,12.5104 38.7396,12.2813 39.3125,12.2813 C39.6354,12.2813 39.9375,12.3438 40.2188,12.4688 C40.5,12.5938 40.7344,12.7734 40.9219,13.0078 C41.1094,13.2422 41.2552,13.5234 41.3594,13.8516 C41.4635,14.1797 41.5156,14.5313 41.5156,14.9063 C41.5156,15.7917 41.2943,16.4792 40.8516,16.9688 C40.4089,17.4583 39.8802,17.7031 39.2656,17.7031 C38.6615,17.7031 38.1823,17.4427 37.8281,16.9219 L37.8281,17.5781 M37.8125,14.9531 C37.8125,15.5677 37.901,16.0156 38.0781,16.2969 C38.349,16.7448 38.724,16.9688 39.2031,16.9688 C39.5781,16.9688 39.9063,16.8021 40.1875,16.4688 C40.4688,16.1354 40.6094,15.6406 40.6094,14.9844 C40.6094,14.3073 40.4766,13.8073 40.2109,13.4844 C39.9453,13.1615 39.6198,13 39.2344,13 C38.849,13 38.5156,13.1667 38.2344,13.5 C37.9531,13.8333 37.8125,14.3177 37.8125,14.9531" fill-rule="nonzero" vector-effect="none"/></g><defs><clipPath id="clip540"><path d="M-119.5,-52.5 L495.047,-52.5 L495.047,299.5 L-119.5,299.5 L-119.5,-52.5 z"/></clipPath></defs><g clip-path="url(#clip540)" fill="none" opacity="1" stroke="#000000" stroke-linecap="butt" stroke-linejoin="miter" stroke-miterlimit="2" stroke-opacity="1" stroke-width="1" transform="matrix(1,0,0,1,119.5,52.5)"><path d="M78,0 L39,45 L0,2.75546e-15 L78,0 z" fill-rule="nonzero" vector-effect="none"/></g><defs><clipPath id="clip543"><path d="M-124,-317 L490.547,-317 L490.547,35 L-124,35 L-124,-317 z"/></clipPath></defs><g clip-path="url(#clip543)" fill="#ffffff" fill-opacity="1" opacity="1" stroke="none" stroke-opacity="0" transform="matrix(1,0,0,1,124,317)"><path d="M0,0 L30,15 L0,30 L0,0 z" fill-rule="nonzero" vector-effect="none"/></g><defs><clipPath id="clip547"><path d="M0,0 L30,0 L30,30 L0,30 L0,0 z"/></clipPath></defs><g clip-path="url(#clip547)" fill="none" opacity="1" stroke="none" stroke-opacity="0" transform="matrix(1,0,0,1,123.531,317)"><path d="M0,0 L30,15 L0,30 L0,0 z" fill-rule="nonzero" vector-effect="none"/></g><defs><clipPath id="clip557"><path d="M6,-1 L36,-1 L36,29 L6,29 L6,-1 z"/></clipPath></defs><g clip-path="url(#clip557)" fill="#000000" fill-opacity="1" opacity="1" stroke="none" stroke-opacity="0" transform="matrix(1,0,0,1,118.023,317.914)"><path d="M17.25,16.7344 L17.25,17.5781 L12.5156,17.5781 C12.5156,17.3698 12.5521,17.1667 12.625,16.9688 C12.75,16.6458 12.9427,16.3281 13.2031,16.0156 C13.4635,15.7031 13.849,15.3438 14.3594,14.9375 C15.1302,14.2917 15.6536,13.7839 15.9297,13.4141 C16.2057,13.0443 16.3438,12.6927 16.3438,12.3594 C16.3438,12.0052 16.2188,11.7109 15.9688,11.4766 C15.7188,11.2422 15.3958,11.125 15,11.125 C14.5729,11.125 14.2318,11.25 13.9766,11.5 C13.7214,11.75 13.5938,12.099 13.5938,12.5469 L12.6875,12.4531 C12.75,11.7865 12.9818,11.276 13.3828,10.9219 C13.7839,10.5677 14.3281,10.3906 15.0156,10.3906 C15.7031,10.3906 16.2474,10.5807 16.6484,10.9609 C17.0495,11.3411 17.25,11.8125 17.25,12.375 C17.25,12.6667 17.1901,12.9505 17.0703,13.2266 C16.9505,13.5026 16.7552,13.7943 16.4844,14.1016 C16.2135,14.4089 15.7604,14.8281 15.125,15.3594 C14.6042,15.7969 14.2682,16.0964 14.1172,16.2578 C13.9661,16.4193 13.8438,16.5781 13.75,16.7344 L17.25,16.7344 z" fill-rule="nonzero" vector-effect="none"/></g><defs><clipPath id="clip577"><path d="M-123.5,-317.5 L491.047,-317.5 L491.047,34.5 L-123.5,34.5 L-123.5,-317.5 z"/></clipPath></defs><g clip-path="url(#clip577)" fill="none" opacity="1" stroke="#000000" stroke-linecap="butt" stroke-linejoin="miter" stroke-miterlimit="2" stroke-opacity="1" stroke-width="1" transform="matrix(1,0,0,1,123.5,317.5)"><path d="M0,0 L30,15 L0,30 L0,0 z" fill-rule="nonzero" vector-effect="none"/></g><defs><clipPath id="clip582"><path d="M91.4688,38 L706.016,38 L706.016,390 L91.4688,390 L91.4688,38 z"/></clipPath></defs><g clip-path="url(#clip582)" fill="none" opacity="1" stroke="#000000" stroke-linecap="butt" stroke-linejoin="miter" stroke-miterlimit="2" stroke-opacity="1" stroke-width="1" transform="matrix(1,0,0,1,-91.4688,-38)"><path d="M440.969,170.5 L580.969,170.5" fill-rule="evenodd" vector-effect="none"/></g><defs><clipPath id="clip588"><path d="M0,0 L52,0 L52,12 L0,12 L0,0 z"/></clipPath></defs><g clip-path="url(#clip588)" fill="none" opacity="1" stroke="#000000" stroke-linecap="square" stroke-linejoin="bevel" stroke-opacity="1" stroke-width="1" transform="matrix(1,0,0,1,353.531,133.5)"><text fill="#000000" fill-opacity="1" font-family="Arial" font-size="9" font-style="normal" font-weight="400" stroke="none" textLength="50.4531" x="1" xml:space="preserve" y="9">Temperatura</text></g><defs><clipPath id="clip596"><path d="M-569,-132 L45.5469,-132 L45.5469,220 L-569,220 L-569,-132 z"/></clipPath></defs><g clip-path="url(#clip596)" fill="#000000" fill-opacity="1" opacity="1" stroke="none" stroke-opacity="0" transform="matrix(1,0,0,1,569,132)"><path d="M0,0 L-8,-4 L-8,4 L0,0 z" fill-rule="nonzero" vector-effect="none"/></g><defs><clipPath id="clip599"><path d="M91.4688,38 L706.016,38 L706.016,390 L91.4688,390 L91.4688,38 z"/></clipPath></defs><g clip-path="url(#clip599)" fill="none" opacity="1" stroke="#000000" stroke-linecap="butt" stroke-linejoin="miter" stroke-miterlimit="2" stroke-opacity="1" stroke-width="1" transform="matrix(1,0,0,1,-91.4688,-38)"><path d="M580.969,170.5 L652.969,170.5" fill-rule="evenodd" vector-effect="none"/></g><defs><clipPath id="clip602"><path d="M173.063,17 L-441.484,17 L-441.484,-335 L173.063,-335 L173.063,17 z"/></clipPath></defs><g clip-path="url(#clip602)" fill="#000000" fill-opacity="1" opacity="1" stroke="none" stroke-opacity="0" transform="matrix(-1,1.22465e-16,-1.22465e-16,-1,173.062,17)"><path d="M0,0 L-8,-4 L-8,4 L0,0 z" fill-rule="nonzero" vector-effect="none"/></g><defs><clipPath id="clip605"><path d="M91.4688,38 L706.016,38 L706.016,390 L91.4688,390 L91.4688,38 z"/></clipPath></defs><g clip-path="url(#clip605)" fill="none" opacity="1" stroke="#000000" stroke-linecap="butt" stroke-linejoin="miter" stroke-miterlimit="2" stroke-opacity="1" stroke-width="1" transform="matrix(1,0,0,1,-91.4688,-38)"><path d="M580.969,170.5 L580.969,55.5 L273.969,55.5" fill-rule="evenodd" vector-effect="none"/></g><defs><clipPath id="clip608"><path d="M-207.469,488.531 L-207.469,-126.016 L144.531,-126.016 L144.531,488.531 L-207.469,488.531 z"/></clipPath></defs><g clip-path="url(#clip608)" fill="#000000" fill-opacity="1" opacity="1" stroke="none" stroke-opacity="0" transform="matrix(6.12323e-17,1,-1,6.12323e-17,488.531,207.469)"><path d="M0,0 L-8,-4 L-8,4 L0,0 z" fill-rule="nonzero" vector-effect="none"/></g><defs><clipPath id="clip611"><path d="M91.4688,38 L706.016,38 L706.016,390 L91.4688,390 L91.4688,38 z"/></clipPath></defs><g clip-path="url(#clip611)" fill="none" opacity="1" stroke="#000000" stroke-linecap="butt" stroke-linejoin="miter" stroke-miterlimit="2" stroke-opacity="1" stroke-width="1" transform="matrix(1,0,0,1,-91.4688,-38)"><path d="M580.969,170.5 L580.969,237.5" fill-rule="evenodd" vector-effect="none"/></g><defs><clipPath id="clip614"><path d="M-488.531,-132 L126.016,-132 L126.016,220 L-488.531,220 L-488.531,-132 z"/></clipPath></defs><g clip-path="url(#clip614)" fill="#000000" fill-opacity="1" opacity="1" stroke="none" stroke-opacity="0" transform="matrix(1,0,0,1,488.531,132)"><path d="M3.46875,0.5 C3.46875,1.88071 2.34946,3 0.96875,3 C-0.411962,3 -1.53125,1.88071 -1.53125,0.5 C-1.53125,-0.880712 -0.411962,-2 0.96875,-2 C2.34946,-2 3.46875,-0.880712 3.46875,0.5 z" fill-rule="evenodd" vector-effect="none"/></g><defs><clipPath id="clip617"><path d="M-134,-252 L480.547,-252 L480.547,100 L-134,100 L-134,-252 z"/></clipPath></defs><g clip-path="url(#clip617)" fill="#000000" fill-opacity="1" opacity="1" stroke="none" stroke-opacity="0" transform="matrix(1,0,0,1,134,252)"><path d="M0,0 L-8,-4 L-8,4 L0,0 z" fill-rule="nonzero" vector-effect="none"/></g><defs><clipPath id="clip620"><path d="M91.4688,38 L706.016,38 L706.016,390 L91.4688,390 L91.4688,38 z"/></clipPath></defs><g clip-path="url(#clip620)" fill="none" opacity="1" stroke="#000000" stroke-linecap="butt" stroke-linejoin="miter" stroke-miterlimit="2" stroke-opacity="1" stroke-width="1" transform="matrix(1,0,0,1,-91.4688,-38)"><path d="M195.969,290.5 L217.969,290.5" fill-rule="evenodd" vector-effect="none"/></g><defs><clipPath id="clip623"><path d="M151.445,-259.705 L473.528,263.679 L173.744,448.161 L-148.339,-75.2229 L151.445,-259.705 z"/></clipPath></defs><g clip-path="url(#clip623)" fill="#000000" fill-opacity="1" opacity="1" stroke="none" stroke-opacity="0" transform="matrix(0.524097,-0.851658,0.851658,0.524097,141.808,265.09)"><path d="M0,0 L-8,-4 L-8,4 L0,0 z" fill-rule="nonzero" vector-effect="none"/></g><defs><clipPath id="clip626"><path d="M91.4688,38 L706.016,38 L706.016,390 L91.4688,390 L91.4688,38 z"/></clipPath></defs><g clip-path="url(#clip626)" fill="none" opacity="1" stroke="#000000" stroke-linecap="butt" stroke-linejoin="miter" stroke-miterlimit="2" stroke-opacity="1" stroke-width="1" transform="matrix(1,0,0,1,-91.4688,-38)"><path d="M195.969,330.5 L225.969,330.5 L225.969,316.5 L229.776,310.313" fill-rule="evenodd" vector-effect="none"/></g><defs><clipPath id="clip629"><path d="M146.531,-158.531 L146.531,456.016 L-205.469,456.016 L-205.469,-158.531 L146.531,-158.531 z"/></clipPath></defs><g clip-path="url(#clip629)" fill="#000000" fill-opacity="1" opacity="1" stroke="none" stroke-opacity="0" transform="matrix(6.12323e-17,-1,1,6.12323e-17,158.531,146.531)"><path d="M0,0 L-8,-4 L-8,4 L0,0 z" fill-rule="nonzero" vector-effect="none"/></g><defs><clipPath id="clip632"><path d="M91.4688,38 L706.016,38 L706.016,390 L91.4688,390 L91.4688,38 z"/></clipPath></defs><g clip-path="url(#clip632)" fill="none" opacity="1" stroke="#000000" stroke-linecap="butt" stroke-linejoin="miter" stroke-miterlimit="2" stroke-opacity="1" stroke-width="1" transform="matrix(1,0,0,1,-91.4688,-38)"><path d="M250.969,215.5 L250.969,193.5" fill-rule="evenodd" vector-effect="none"/></g><defs><clipPath id="clip635"><path d="M206.531,-148.531 L206.531,466.016 L-145.469,466.016 L-145.469,-148.531 L206.531,-148.531 z"/></clipPath></defs><g clip-path="url(#clip635)" fill="#000000" fill-opacity="1" opacity="1" stroke="none" stroke-opacity="0" transform="matrix(6.12323e-17,-1,1,6.12323e-17,148.531,206.531)"><path d="M0,0 L-8,-4 L-8,4 L0,0 z" fill-rule="nonzero" vector-effect="none"/></g><defs><clipPath id="clip638"><path d="M91.4688,38 L706.016,38 L706.016,390 L91.4688,390 L91.4688,38 z"/></clipPath></defs><g clip-path="url(#clip638)" fill="none" opacity="1" stroke="#000000" stroke-linecap="butt" stroke-linejoin="miter" stroke-miterlimit="2" stroke-opacity="1" stroke-width="1" transform="matrix(1,0,0,1,-91.4688,-38)"><path d="M240.969,275.5 L240.969,253.5" fill-rule="evenodd" vector-effect="none"/></g><defs><clipPath id="clip641"><path d="M236.531,-488.531 L236.531,126.016 L-115.469,126.016 L-115.469,-488.531 L236.531,-488.531 z"/></clipPath></defs><g clip-path="url(#clip641)" fill="#000000" fill-opacity="1" opacity="1" stroke="none" stroke-opacity="0" transform="matrix(6.12323e-17,-1,1,6.12323e-17,488.531,236.531)"><path d="M0,0 L-8,-4 L-8,4 L0,0 z" fill-rule="nonzero" vector-effect="none"/></g><defs><clipPath id="clip644"><path d="M91.4688,38 L706.016,38 L706.016,390 L91.4688,390 L91.4688,38 z"/></clipPath></defs><g clip-path="url(#clip644)" fill="none" opacity="1" stroke="#000000" stroke-linecap="butt" stroke-linejoin="miter" stroke-miterlimit="2" stroke-opacity="1" stroke-width="1" transform="matrix(1,0,0,1,-91.4688,-38)"><path d="M580.969,295.5 L580.969,283.5" fill-rule="evenodd" vector-effect="none"/></g><defs><clipPath id="clip647"><path d="M-144,-17 L470.547,-17 L470.547,335 L-144,335 L-144,-17 z"/></clipPath></defs><g clip-path="url(#clip647)" fill="#000000" fill-opacity="1" opacity="1" stroke="none" stroke-opacity="0" transform="matrix(1,0,0,1,144,17)"><path d="M0,0 L-8,-4 L-8,4 L0,0 z" fill-rule="nonzero" vector-effect="none"/></g><defs><clipPath id="clip650"><path d="M91.4688,38 L706.016,38 L706.016,390 L91.4688,390 L91.4688,38 z"/></clipPath></defs><g clip-path="url(#clip650)" fill="none" opacity="1" stroke="#000000" stroke-linecap="butt" stroke-linejoin="miter" stroke-miterlimit="2" stroke-opacity="1" stroke-width="1" transform="matrix(1,0,0,1,-91.4688,-38)"><path d="M125.969,55.5 L227.969,55.5" fill-rule="evenodd" vector-effect="none"/></g><defs><clipPath id="clip655"><path d="M91.4688,38 L706.016,38 L706.016,390 L91.4688,390 L91.4688,38 z"/></clipPath></defs><g clip-path="url(#clip655)" fill="none" opacity="1" stroke="#000000" stroke-linecap="butt" stroke-linejoin="miter" stroke-miterlimit="2" stroke-opacity="1" stroke-width="1" transform="matrix(1,0,0,1,-91.4688,-38)"><path d="M125.969,280.5 L141.969,280.5" fill-rule="evenodd" vector-effect="none"/></g><defs><clipPath id="clip658"><path d="M-74,-257 L540.547,-257 L540.547,95 L-74,95 L-74,-257 z"/></clipPath></defs><g clip-path="url(#clip658)" fill="#000000" fill-opacity="1" opacity="1" stroke="none" stroke-opacity="0" transform="matrix(1,0,0,1,74,257)"><path d="M0,0 L-8,-4 L-8,4 L0,0 z" fill-rule="nonzero" vector-effect="none"/></g><defs><clipPath id="clip661"><path d="M91.4688,38 L706.016,38 L706.016,390 L91.4688,390 L91.4688,38 z"/></clipPath></defs><g clip-path="url(#clip661)" fill="none" opacity="1" stroke="#000000" stroke-linecap="butt" stroke-linejoin="miter" stroke-miterlimit="2" stroke-opacity="1" stroke-width="1" transform="matrix(1,0,0,1,-91.4688,-38)"><path d="M141.969,280.5 L141.969,295.5 L157.969,295.5" fill-rule="evenodd" vector-effect="none"/></g><defs><clipPath id="clip664"><path d="M-74,-242 L540.547,-242 L540.547,110 L-74,110 L-74,-242 z"/></clipPath></defs><g clip-path="url(#clip664)" fill="#000000" fill-opacity="1" opacity="1" stroke="none" stroke-opacity="0" transform="matrix(1,0,0,1,74,242)"><path d="M0,0 L-8,-4 L-8,4 L0,0 z" fill-rule="nonzero" vector-effect="none"/></g><defs><clipPath id="clip667"><path d="M91.4688,38 L706.016,38 L706.016,390 L91.4688,390 L91.4688,38 z"/></clipPath></defs><g clip-path="url(#clip667)" fill="none" opacity="1" stroke="#000000" stroke-linecap="butt" stroke-linejoin="miter" stroke-miterlimit="2" stroke-opacity="1" stroke-width="1" transform="matrix(1,0,0,1,-91.4688,-38)"><path d="M141.969,280.5 L157.969,280.5" fill-rule="evenodd" vector-effect="none"/></g><defs><clipPath id="clip670"><path d="M-49.5313,-242 L565.016,-242 L565.016,110 L-49.5313,110 L-49.5313,-242 z"/></clipPath></defs><g clip-path="url(#clip670)" fill="#000000" fill-opacity="1" opacity="1" stroke="none" stroke-opacity="0" transform="matrix(1,0,0,1,49.5312,242)"><path d="M3.46875,0.5 C3.46875,1.88071 2.34946,3 0.96875,3 C-0.411962,3 -1.53125,1.88071 -1.53125,0.5 C-1.53125,-0.880712 -0.411962,-2 0.96875,-2 C2.34946,-2 3.46875,-0.880712 3.46875,0.5 z" fill-rule="evenodd" vector-effect="none"/></g><defs><clipPath id="clip675"><path d="M91.4688,38 L706.016,38 L706.016,390 L91.4688,390 L91.4688,38 z"/></clipPath></defs><g clip-path="url(#clip675)" fill="none" opacity="1" stroke="#000000" stroke-linecap="butt" stroke-linejoin="miter" stroke-miterlimit="2" stroke-opacity="1" stroke-width="1" transform="matrix(1,0,0,1,-91.4688,-38)"><path d="M125.969,320.5 L142.969,320.5" fill-rule="evenodd" vector-effect="none"/></g><defs><clipPath id="clip678"><path d="M-74,-282 L540.547,-282 L540.547,70 L-74,70 L-74,-282 z"/></clipPath></defs><g clip-path="url(#clip678)" fill="#000000" fill-opacity="1" opacity="1" stroke="none" stroke-opacity="0" transform="matrix(1,0,0,1,74,282)"><path d="M0,0 L-8,-4 L-8,4 L0,0 z" fill-rule="nonzero" vector-effect="none"/></g><defs><clipPath id="clip681"><path d="M91.4688,38 L706.016,38 L706.016,390 L91.4688,390 L91.4688,38 z"/></clipPath></defs><g clip-path="url(#clip681)" fill="none" opacity="1" stroke="#000000" stroke-linecap="butt" stroke-linejoin="miter" stroke-miterlimit="2" stroke-opacity="1" stroke-width="1" transform="matrix(1,0,0,1,-91.4688,-38)"><path d="M142.969,320.5 L157.969,320.5" fill-rule="evenodd" vector-effect="none"/></g><defs><clipPath id="clip684"><path d="M-74,-297 L540.547,-297 L540.547,55 L-74,55 L-74,-297 z"/></clipPath></defs><g clip-path="url(#clip684)" fill="#000000" fill-opacity="1" opacity="1" stroke="none" stroke-opacity="0" transform="matrix(1,0,0,1,74,297)"><path d="M0,0 L-8,-4 L-8,4 L0,0 z" fill-rule="nonzero" vector-effect="none"/></g><defs><clipPath id="clip687"><path d="M91.4688,38 L706.016,38 L706.016,390 L91.4688,390 L91.4688,38 z"/></clipPath></defs><g clip-path="url(#clip687)" fill="none" opacity="1" stroke="#000000" stroke-linecap="butt" stroke-linejoin="miter" stroke-miterlimit="2" stroke-opacity="1" stroke-width="1" transform="matrix(1,0,0,1,-91.4688,-38)"><path d="M142.969,320.5 L142.969,335.5 L157.969,335.5" fill-rule="evenodd" vector-effect="none"/></g><defs><clipPath id="clip690"><path d="M-50.5313,-282 L564.016,-282 L564.016,70 L-50.5313,70 L-50.5313,-282 z"/></clipPath></defs><g clip-path="url(#clip690)" fill="#000000" fill-opacity="1" opacity="1" stroke="none" stroke-opacity="0" transform="matrix(1,0,0,1,50.5312,282)"><path d="M3.46875,0.5 C3.46875,1.88071 2.34946,3 0.96875,3 C-0.411962,3 -1.53125,1.88071 -1.53125,0.5 C-1.53125,-0.880712 -0.411962,-2 0.96875,-2 C2.34946,-2 3.46875,-0.880712 3.46875,0.5 z" fill-rule="evenodd" vector-effect="none"/></g><defs><clipPath id="clip695"><path d="M91.4688,38 L706.016,38 L706.016,390 L91.4688,390 L91.4688,38 z"/></clipPath></defs><g clip-path="url(#clip695)" fill="none" opacity="1" stroke="#000000" stroke-linecap="butt" stroke-linejoin="miter" stroke-miterlimit="2" stroke-opacity="1" stroke-width="1" transform="matrix(1,0,0,1,-91.4688,-38)"><path d="M125.969,360.5 L141.969,360.5" fill-rule="evenodd" vector-effect="none"/></g><defs><clipPath id="clip698"><path d="M-74,-322 L540.547,-322 L540.547,30 L-74,30 L-74,-322 z"/></clipPath></defs><g clip-path="url(#clip698)" fill="#000000" fill-opacity="1" opacity="1" stroke="none" stroke-opacity="0" transform="matrix(1,0,0,1,74,322)"><path d="M0,0 L-8,-4 L-8,4 L0,0 z" fill-rule="nonzero" vector-effect="none"/></g><defs><clipPath id="clip701"><path d="M91.4688,38 L706.016,38 L706.016,390 L91.4688,390 L91.4688,38 z"/></clipPath></defs><g clip-path="url(#clip701)" fill="none" opacity="1" stroke="#000000" stroke-linecap="butt" stroke-linejoin="miter" stroke-miterlimit="2" stroke-opacity="1" stroke-width="1" transform="matrix(1,0,0,1,-91.4688,-38)"><path d="M141.969,360.5 L157.969,360.5" fill-rule="evenodd" vector-effect="none"/></g><defs><clipPath id="clip704"><path d="M-74,-337 L540.547,-337 L540.547,15 L-74,15 L-74,-337 z"/></clipPath></defs><g clip-path="url(#clip704)" fill="#000000" fill-opacity="1" opacity="1" stroke="none" stroke-opacity="0" transform="matrix(1,0,0,1,74,337)"><path d="M0,0 L-8,-4 L-8,4 L0,0 z" fill-rule="nonzero" vector-effect="none"/></g><defs><clipPath id="clip707"><path d="M91.4688,38 L706.016,38 L706.016,390 L91.4688,390 L91.4688,38 z"/></clipPath></defs><g clip-path="url(#clip707)" fill="none" opacity="1" stroke="#000000" stroke-linecap="butt" stroke-linejoin="miter" stroke-miterlimit="2" stroke-opacity="1" stroke-width="1" transform="matrix(1,0,0,1,-91.4688,-38)"><path d="M141.969,360.5 L141.969,375.5 L157.969,375.5" fill-rule="evenodd" vector-effect="none"/></g><defs><clipPath id="clip710"><path d="M-49.5313,-322 L565.016,-322 L565.016,30 L-49.5313,30 L-49.5313,-322 z"/></clipPath></defs><g clip-path="url(#clip710)" fill="#000000" fill-opacity="1" opacity="1" stroke="none" stroke-opacity="0" transform="matrix(1,0,0,1,49.5312,322)"><path d="M3.46875,0.5 C3.46875,1.88071 2.34946,3 0.96875,3 C-0.411962,3 -1.53125,1.88071 -1.53125,0.5 C-1.53125,-0.880712 -0.411962,-2 0.96875,-2 C2.34946,-2 3.46875,-0.880712 3.46875,0.5 z" fill-rule="evenodd" vector-effect="none"/></g><defs><clipPath id="clip713"><path d="M-319,-132 L295.547,-132 L295.547,220 L-319,220 L-319,-132 z"/></clipPath></defs><g clip-path="url(#clip713)" fill="#000000" fill-opacity="1" opacity="1" stroke="none" stroke-opacity="0" transform="matrix(1,0,0,1,319,132)"><path d="M0,0 L-8,-4 L-8,4 L0,0 z" fill-rule="nonzero" vector-effect="none"/></g><defs><clipPath id="clip716"><path d="M91.4688,38 L706.016,38 L706.016,390 L91.4688,390 L91.4688,38 z"/></clipPath></defs><g clip-path="url(#clip716)" fill="none" opacity="1" stroke="#000000" stroke-linecap="butt" stroke-linejoin="miter" stroke-miterlimit="2" stroke-opacity="1" stroke-width="1" transform="matrix(1,0,0,1,-91.4688,-38)"><path d="M365.969,170.5 L402.969,170.5" fill-rule="evenodd" vector-effect="none"/></g><defs><clipPath id="clip719"><path d="M-234,-132 L380.547,-132 L380.547,220 L-234,220 L-234,-132 z"/></clipPath></defs><g clip-path="url(#clip719)" fill="#000000" fill-opacity="1" opacity="1" stroke="none" stroke-opacity="0" transform="matrix(1,0,0,1,234,132)"><path d="M0,0 L-8,-4 L-8,4 L0,0 z" fill-rule="nonzero" vector-effect="none"/></g><defs><clipPath id="clip722"><path d="M91.4688,38 L706.016,38 L706.016,390 L91.4688,390 L91.4688,38 z"/></clipPath></defs><g clip-path="url(#clip722)" fill="none" opacity="1" stroke="#000000" stroke-linecap="butt" stroke-linejoin="miter" stroke-miterlimit="2" stroke-opacity="1" stroke-width="1" transform="matrix(1,0,0,1,-91.4688,-38)"><path d="M265.969,170.5 L317.969,170.5" fill-rule="evenodd" vector-effect="none"/></g><defs><clipPath id="clip725"><path d="M293.063,222 L-321.484,222 L-321.484,-130 L293.063,-130 L293.063,222 z"/></clipPath></defs><g clip-path="url(#clip725)" fill="#000000" fill-opacity="1" opacity="1" stroke="none" stroke-opacity="0" transform="matrix(-1,1.22465e-16,-1.22465e-16,-1,293.062,222)"><path d="M0,0 L-8,-4 L-8,4 L0,0 z" fill-rule="nonzero" vector-effect="none"/></g><defs><clipPath id="clip728"><path d="M91.4688,38 L706.016,38 L706.016,390 L91.4688,390 L91.4688,38 z"/></clipPath></defs><g clip-path="url(#clip728)" fill="none" opacity="1" stroke="#000000" stroke-linecap="butt" stroke-linejoin="miter" stroke-miterlimit="2" stroke-opacity="1" stroke-width="1" transform="matrix(1,0,0,1,-91.4688,-38)"><path d="M410.969,260.5 L393.969,260.5" fill-rule="evenodd" vector-effect="none"/></g><defs><clipPath id="clip733"><path d="M91.4688,38 L706.016,38 L706.016,390 L91.4688,390 L91.4688,38 z"/></clipPath></defs><g clip-path="url(#clip733)" fill="none" opacity="1" stroke="#000000" stroke-linecap="butt" stroke-linejoin="miter" stroke-miterlimit="2" stroke-opacity="1" stroke-width="1" transform="matrix(1,0,0,1,-91.4688,-38)"><path d="M310.969,260.5 L276.969,260.5" fill-rule="evenodd" vector-effect="none"/></g><defs><clipPath id="clip736"><path d="M-569,-327 L45.5469,-327 L45.5469,25 L-569,25 L-569,-327 z"/></clipPath></defs><g clip-path="url(#clip736)" fill="#000000" fill-opacity="1" opacity="1" stroke="none" stroke-opacity="0" transform="matrix(1,0,0,1,569,327)"><path d="M0,0 L-8,-4 L-8,4 L0,0 z" fill-rule="nonzero" vector-effect="none"/></g><defs><clipPath id="clip739"><path d="M91.4688,38 L706.016,38 L706.016,390 L91.4688,390 L91.4688,38 z"/></clipPath></defs><g clip-path="url(#clip739)" fill="none" opacity="1" stroke="#000000" stroke-linecap="butt" stroke-linejoin="miter" stroke-miterlimit="2" stroke-opacity="1" stroke-width="1" transform="matrix(1,0,0,1,-91.4688,-38)"><path d="M276.969,260.5 L276.969,365.5 L652.969,365.5" fill-rule="evenodd" vector-effect="none"/></g><defs><clipPath id="clip742"><path d="M206.531,-163.531 L206.531,451.016 L-145.469,451.016 L-145.469,-163.531 L206.531,-163.531 z"/></clipPath></defs><g clip-path="url(#clip742)" fill="#000000" fill-opacity="1" opacity="1" stroke="none" stroke-opacity="0" transform="matrix(6.12323e-17,-1,1,6.12323e-17,163.531,206.531)"><path d="M0,0 L-8,-4 L-8,4 L0,0 z" fill-rule="nonzero" vector-effect="none"/></g><defs><clipPath id="clip745"><path d="M91.4688,38 L706.016,38 L706.016,390 L91.4688,390 L91.4688,38 z"/></clipPath></defs><g clip-path="url(#clip745)" fill="none" opacity="1" stroke="#000000" stroke-linecap="butt" stroke-linejoin="miter" stroke-miterlimit="2" stroke-opacity="1" stroke-width="1" transform="matrix(1,0,0,1,-91.4688,-38)"><path d="M276.969,260.5 L255.969,260.5 L255.969,253.5" fill-rule="evenodd" vector-effect="none"/></g><defs><clipPath id="clip748"><path d="M-184.531,-222 L430.016,-222 L430.016,130 L-184.531,130 L-184.531,-222 z"/></clipPath></defs><g clip-path="url(#clip748)" fill="#000000" fill-opacity="1" opacity="1" stroke="none" stroke-opacity="0" transform="matrix(1,0,0,1,184.531,222)"><path d="M3.46875,0.5 C3.46875,1.88071 2.34946,3 0.96875,3 C-0.411962,3 -1.53125,1.88071 -1.53125,0.5 C-1.53125,-0.880712 -0.411962,-2 0.96875,-2 C2.34946,-2 3.46875,-0.880712 3.46875,0.5 z" fill-rule="evenodd" vector-effect="none"/></g><defs><clipPath id="clip751"><path d="M236.531,-333.531 L236.531,281.016 L-115.469,281.016 L-115.469,-333.531 L236.531,-333.531 z"/></clipPath></defs><g clip-path="url(#clip751)" fill="#000000" fill-opacity="1" opacity="1" stroke="none" stroke-opacity="0" transform="matrix(6.12323e-17,-1,1,6.12323e-17,333.531,236.531)"><path d="M0,0 L-8,-4 L-8,4 L0,0 z" fill-rule="nonzero" vector-effect="none"/></g><defs><clipPath id="clip754"><path d="M91.4688,38 L706.016,38 L706.016,390 L91.4688,390 L91.4688,38 z"/></clipPath></defs><g clip-path="url(#clip754)" fill="none" opacity="1" stroke="#000000" stroke-linecap="butt" stroke-linejoin="miter" stroke-miterlimit="2" stroke-opacity="1" stroke-width="1" transform="matrix(1,0,0,1,-91.4688,-38)"><path d="M425.969,295.5 L425.969,283.5" fill-rule="evenodd" vector-effect="none"/></g><defs><clipPath id="clip757"><path d="M348.063,222 L-266.484,222 L-266.484,-130 L348.063,-130 L348.063,222 z"/></clipPath></defs><g clip-path="url(#clip757)" fill="#000000" fill-opacity="1" opacity="1" stroke="none" stroke-opacity="0" transform="matrix(-1,1.22465e-16,-1.22465e-16,-1,348.062,222)"><path d="M0,0 L-8,-4 L-8,4 L0,0 z" fill-rule="nonzero" vector-effect="none"/></g><defs><clipPath id="clip760"><path d="M91.4688,38 L706.016,38 L706.016,390 L91.4688,390 L91.4688,38 z"/></clipPath></defs><g clip-path="url(#clip760)" fill="none" opacity="1" stroke="#000000" stroke-linecap="butt" stroke-linejoin="miter" stroke-miterlimit="2" stroke-opacity="1" stroke-width="1" transform="matrix(1,0,0,1,-91.4688,-38)"><path d="M465.969,260.5 L448.969,260.5" fill-rule="evenodd" vector-effect="none"/></g><defs><clipPath id="clip763"><path d="M433.063,222 L-181.484,222 L-181.484,-130 L433.063,-130 L433.063,222 z"/></clipPath></defs><g clip-path="url(#clip763)" fill="#000000" fill-opacity="1" opacity="1" stroke="none" stroke-opacity="0" transform="matrix(-1,1.22465e-16,-1.22465e-16,-1,433.062,222)"><path d="M0,0 L-8,-4 L-8,4 L0,0 z" fill-rule="nonzero" vector-effect="none"/></g><defs><clipPath id="clip766"><path d="M91.4688,38 L706.016,38 L706.016,390 L91.4688,390 L91.4688,38 z"/></clipPath></defs><g clip-path="url(#clip766)" fill="none" opacity="1" stroke="#000000" stroke-linecap="butt" stroke-linejoin="miter" stroke-miterlimit="2" stroke-opacity="1" stroke-width="1" transform="matrix(1,0,0,1,-91.4688,-38)"><path d="M565.969,260.5 L533.969,260.5" fill-rule="evenodd" vector-effect="none"/></g><defs><clipPath id="clip769"><path d="M-117.469,158.531 L-117.469,-456.016 L234.531,-456.016 L234.531,158.531 L-117.469,158.531 z"/></clipPath></defs><g clip-path="url(#clip769)" fill="#000000" fill-opacity="1" opacity="1" stroke="none" stroke-opacity="0" transform="matrix(6.12323e-17,1,-1,6.12323e-17,158.531,117.469)"><path d="M0,0 L-8,-4 L-8,4 L0,0 z" fill-rule="nonzero" vector-effect="none"/></g><defs><clipPath id="clip772"><path d="M91.4688,38 L706.016,38 L706.016,390 L91.4688,390 L91.4688,38 z"/></clipPath></defs><g clip-path="url(#clip772)" fill="none" opacity="1" stroke="#000000" stroke-linecap="butt" stroke-linejoin="miter" stroke-miterlimit="2" stroke-opacity="1" stroke-width="1" transform="matrix(1,0,0,1,-91.4688,-38)"><path d="M250.969,135.5 L250.969,147.5" fill-rule="evenodd" vector-effect="none"/></g><defs><clipPath id="clip775"><path d="M-52.4688,158.531 L-52.4687,-456.016 L299.531,-456.016 L299.531,158.531 L-52.4688,158.531 z"/></clipPath></defs><g clip-path="url(#clip775)" fill="#000000" fill-opacity="1" opacity="1" stroke="none" stroke-opacity="0" transform="matrix(6.12323e-17,1,-1,6.12323e-17,158.531,52.4688)"><path d="M0,0 L-8,-4 L-8,4 L0,0 z" fill-rule="nonzero" vector-effect="none"/></g><defs><clipPath id="clip778"><path d="M91.4688,38 L706.016,38 L706.016,390 L91.4688,390 L91.4688,38 z"/></clipPath></defs><g clip-path="url(#clip778)" fill="none" opacity="1" stroke="#000000" stroke-linecap="butt" stroke-linejoin="miter" stroke-miterlimit="2" stroke-opacity="1" stroke-width="1" transform="matrix(1,0,0,1,-91.4688,-38)"><path d="M250.969,70.5 L250.969,82.5" fill-rule="evenodd" vector-effect="none"/></g><defs><clipPath id="clip781"><path d="M-124,-332 L490.547,-332 L490.547,20 L-124,20 L-124,-332 z"/></clipPath></defs><g clip-path="url(#clip781)" fill="#000000" fill-opacity="1" opacity="1" stroke="none" stroke-opacity="0" transform="matrix(1,0,0,1,124,332)"><path d="M0,0 L-8,-4 L-8,4 L0,0 z" fill-rule="nonzero" vector-effect="none"/></g><defs><clipPath id="clip784"><path d="M91.4688,38 L706.016,38 L706.016,390 L91.4688,390 L91.4688,38 z"/></clipPath></defs><g clip-path="url(#clip784)" fill="none" opacity="1" stroke="#000000" stroke-linecap="butt" stroke-linejoin="miter" stroke-miterlimit="2" stroke-opacity="1" stroke-width="1" transform="matrix(1,0,0,1,-91.4688,-38)"><path d="M195.969,370.5 L207.969,370.5" fill-rule="evenodd" vector-effect="none"/></g><defs><clipPath id="clip787"><path d="M307.338,-12.2446 L15.9819,528.846 L-293.944,361.963 L-2.58738,-179.128 L307.338,-12.2446 z"/></clipPath></defs><g clip-path="url(#clip787)" fill="#000000" fill-opacity="1" opacity="1" stroke="none" stroke-opacity="0" transform="matrix(-0.4741,-0.880471,0.880471,-0.4741,156.49,264.797)"><path d="M0,0 L-8,-4 L-8,4 L0,0 z" fill-rule="nonzero" vector-effect="none"/></g><defs><clipPath id="clip790"><path d="M91.4688,38 L706.016,38 L706.016,390 L91.4688,390 L91.4688,38 z"/></clipPath></defs><g clip-path="url(#clip790)" fill="none" opacity="1" stroke="#000000" stroke-linecap="butt" stroke-linejoin="miter" stroke-miterlimit="2" stroke-opacity="1" stroke-width="1" transform="matrix(1,0,0,1,-91.4688,-38)"><path d="M245.969,370.5 L255.969,370.5 L255.969,316.5 L252.762,310.544" fill-rule="evenodd" vector-effect="none"/></g></g><!--generated on windows @ 2024-05-15 00:46:22 Hora estndar de Argentina--></svg>
