<?xml version="1.0" encoding="UTF-8"?><svg width="131.233mm" height="50.2708mm" viewBox="0 0 496 190" xmlns="http://www.w3.org/2000/svg" xmlns:xlink="http://www.w3.org/1999/xlink"><g fill="none" stroke="black" stroke-width="1" fill-rule="evenodd" stroke-linecap="square" stroke-linejoin="bevel"><g clip-path="none" fill="#ffffff" fill-opacity="1" opacity="1" stroke="none" stroke-opacity="0" transform="matrix(1,0,0,1,0,0)"><path d="M0,0 L495.805,0 L495.805,190 L0,190 L0,0 z" fill-rule="evenodd" vector-effect="none"/></g><defs><clipPath id="clip3"><path d="M-344,-7 L151.805,-7 L151.805,183 L-344,183 L-344,-7 z"/></clipPath></defs><g clip-path="url(#clip3)" fill="#ffffff" fill-opacity="1" opacity="1" stroke="none" stroke-opacity="0" transform="matrix(1,0,0,1,344,7)"><path d="M0,0 L30,0 L30,30 L0,30 L0,0 z" fill-rule="evenodd" vector-effect="none"/></g><defs><clipPath id="clip7"><path d="M0,0 L31,0 L31,31 L0,31 L0,0 z"/></clipPath></defs><g clip-path="url(#clip7)" fill="none" opacity="1" stroke="none" stroke-opacity="0" transform="matrix(1,0,0,1,343.805,7)"><path d="M0,0 L31,0 L31,31 L0,31 L0,0 z" fill-rule="evenodd" vector-effect="none"/></g><defs><clipPath id="clip18"><path d="M0,0 L9,0 L9,31 L0,31 L0,0 z"/></clipPath></defs><g clip-path="url(#clip18)" fill="#000000" fill-opacity="1" opacity="1" stroke="none" stroke-opacity="0" transform="matrix(0.85,0,0,0.85,354.98,8.825)"><path d="M1,15 L8,15 L8,16 L1,16 L1,15 z" fill-rule="evenodd" vector-effect="none"/></g><defs><clipPath id="clip19"><path d="M0,0 L9,0 L9,31 L0,31 L0,0 z"/></clipPath></defs><g clip-path="url(#clip19)" fill="#000000" fill-opacity="1" opacity="1" stroke="none" stroke-opacity="0" transform="matrix(0.85,0,0,0.85,354.98,8.825)"><path d="M6.125,11 L6.125,10.8125 C5.14063,10.8125 4.89063,10.5781 4.89063,10.0156 L4.89063,2.25 L4.76563,2.21875 L2.4375,3.39063 L2.4375,3.57813 L2.79688,3.45313 C3.03125,3.35938 3.25,3.29688 3.375,3.29688 C3.65625,3.29688 3.76563,3.48438 3.76563,3.92188 L3.76563,9.76563 C3.76563,10.4844 3.5,10.75 2.53125,10.8125 L2.53125,11 L6.125,11 z" fill-rule="nonzero" vector-effect="none"/></g><defs><clipPath id="clip20"><path d="M0,0 L9,0 L9,31 L0,31 L0,0 z"/></clipPath></defs><g clip-path="url(#clip20)" fill="#000000" fill-opacity="1" opacity="1" stroke="none" stroke-opacity="0" transform="matrix(0.85,0,0,0.85,354.98,8.825)"><path d="M6.23438,21.25 L6.04688,21.25 C5.9375,21.4375 5.84375,21.4844 5.65625,21.4844 C5.54688,21.4844 5.4375,21.4688 5.1875,21.3906 C4.85938,21.3125 4.6875,21.2656 4.45313,21.2656 C3.5,21.2656 2.89063,21.8125 2.89063,22.6719 C2.89063,23.0938 3.14063,23.6719 3.70313,24.375 C4.21875,25.0156 4.4375,25.4531 4.4375,25.875 C4.4375,26.5 4.0625,26.875 3.4375,26.875 C2.76563,26.875 2.32813,26.3438 2.14063,25.1094 L1.9375,25.1094 L1.67188,27.1719 L1.89063,27.1719 C1.96875,26.9688 2.125,26.8906 2.26563,26.8906 C2.40625,26.8906 2.59375,26.9063 2.82813,27.0156 C3.14063,27.125 3.32813,27.1406 3.54688,27.1406 C4.625,27.1406 5.42188,26.4844 5.42188,25.4063 C5.42188,24.8906 5.1875,24.3906 4.53125,23.6406 C4.03125,23.0313 3.82813,22.6563 3.82813,22.3125 C3.82813,21.8281 4.14063,21.5625 4.60938,21.5625 C5.23438,21.5625 5.625,22 5.76563,23.0781 L5.96875,23.0781 L6.23438,21.25 z" fill-rule="nonzero" vector-effect="none"/></g><defs><clipPath id="clip43"><path d="M-343.5,-7.5 L152.305,-7.5 L152.305,182.5 L-343.5,182.5 L-343.5,-7.5 z"/></clipPath></defs><g clip-path="url(#clip43)" fill="none" opacity="1" stroke="#000000" stroke-linecap="butt" stroke-linejoin="miter" stroke-miterlimit="2" stroke-opacity="1" stroke-width="1" transform="matrix(1,0,0,1,343.5,7.5)"><path d="M0,0 L30,0 L30,30 L0,30 L0,0 z" fill-rule="evenodd" vector-effect="none"/></g><defs><clipPath id="clip46"><path d="M-214,-7 L281.805,-7 L281.805,183 L-214,183 L-214,-7 z"/></clipPath></defs><g clip-path="url(#clip46)" fill="#ffffff" fill-opacity="1" opacity="1" stroke="none" stroke-opacity="0" transform="matrix(1,0,0,1,214,7)"><path d="M30,15 C30,23.2843 23.2843,30 15,30 C6.71573,30 0,23.2843 0,15 C0,6.71573 6.71573,0 15,0 C23.2843,0 30,6.71573 30,15 z" fill-rule="nonzero" vector-effect="none"/></g><defs><clipPath id="clip50"><path d="M150,40 L180,40 L180,70 L150,70 L150,40 z"/></clipPath></defs><g clip-path="url(#clip50)" fill="none" opacity="1" stroke="#000000" stroke-linecap="butt" stroke-linejoin="miter" stroke-miterlimit="2" stroke-opacity="1" stroke-width="1" transform="matrix(1,0,0,1,64.5,-32.5)"><polyline fill="none" points="153,55 157,55" vector-effect="none"/></g><defs><clipPath id="clip51"><path d="M150,40 L180,40 L180,70 L150,70 L150,40 z"/></clipPath></defs><g clip-path="url(#clip51)" fill="none" opacity="1" stroke="#000000" stroke-linecap="butt" stroke-linejoin="miter" stroke-miterlimit="2" stroke-opacity="1" stroke-width="1" transform="matrix(1,0,0,1,64.5,-32.5)"><polyline fill="none" points="155,53 155,57" vector-effect="none"/></g><defs><clipPath id="clip52"><path d="M150,40 L180,40 L180,70 L150,70 L150,40 z"/></clipPath></defs><g clip-path="url(#clip52)" fill="none" opacity="1" stroke="#000000" stroke-linecap="butt" stroke-linejoin="miter" stroke-miterlimit="2" stroke-opacity="1" stroke-width="1" transform="matrix(1,0,0,1,64.5,-32.5)"><polyline fill="none" points="155,62 159,62" vector-effect="none"/></g><defs><clipPath id="clip53"><path d="M150,40 L180,40 L180,70 L150,70 L150,40 z"/></clipPath></defs><g clip-path="url(#clip53)" fill="none" opacity="1" stroke="#000000" stroke-linecap="butt" stroke-linejoin="miter" stroke-miterlimit="2" stroke-opacity="1" stroke-width="1" transform="matrix(1,0,0,1,64.5,-32.5)"><polyline fill="none" points="163,65 167,65" vector-effect="none"/></g><defs><clipPath id="clip58"><path d="M-213.5,-7.5 L282.305,-7.5 L282.305,182.5 L-213.5,182.5 L-213.5,-7.5 z"/></clipPath></defs><g clip-path="url(#clip58)" fill="none" opacity="1" stroke="#000000" stroke-linecap="butt" stroke-linejoin="miter" stroke-miterlimit="2" stroke-opacity="1" stroke-width="1" transform="matrix(1,0,0,1,213.5,7.5)"><path d="M30,15 C30,23.2843 23.2843,30 15,30 C6.71573,30 0,23.2843 0,15 C0,6.71573 6.71573,0 15,0 C23.2843,0 30,6.71573 30,15 z" fill-rule="nonzero" vector-effect="none"/></g><defs><clipPath id="clip61"><path d="M-154,-49 L341.805,-49 L341.805,141 L-154,141 L-154,-49 z"/></clipPath></defs><g clip-path="url(#clip61)" fill="#ffffff" fill-opacity="1" opacity="1" stroke="none" stroke-opacity="0" transform="matrix(1,0,0,1,154,49)"><path d="M0,0 L30,0 L30,31 L0,31 L0,0 z" fill-rule="evenodd" vector-effect="none"/></g><defs><clipPath id="clip65"><path d="M90,82 L120,82 L120,113 L90,113 L90,82 z"/></clipPath></defs><g clip-path="url(#clip65)" fill="none" opacity="1" stroke="#000000" stroke-linecap="butt" stroke-linejoin="miter" stroke-miterlimit="2" stroke-opacity="1" stroke-width="1" transform="matrix(1,0,0,1,64.5,-32.5)"><polyline fill="none" points="108,100 102,94" vector-effect="none"/></g><defs><clipPath id="clip66"><path d="M90,82 L120,82 L120,113 L90,113 L90,82 z"/></clipPath></defs><g clip-path="url(#clip66)" fill="none" opacity="1" stroke="#000000" stroke-linecap="butt" stroke-linejoin="miter" stroke-miterlimit="2" stroke-opacity="1" stroke-width="1" transform="matrix(1,0,0,1,64.5,-32.5)"><polyline fill="none" points="108,94 102,100" vector-effect="none"/></g><defs><clipPath id="clip71"><path d="M-153.5,-49.5 L342.305,-49.5 L342.305,140.5 L-153.5,140.5 L-153.5,-49.5 z"/></clipPath></defs><g clip-path="url(#clip71)" fill="none" opacity="1" stroke="#000000" stroke-linecap="butt" stroke-linejoin="miter" stroke-miterlimit="2" stroke-opacity="1" stroke-width="1" transform="matrix(1,0,0,1,153.5,49.5)"><path d="M0,0 L30,0 L30,31 L0,31 L0,0 z" fill-rule="evenodd" vector-effect="none"/></g><defs><clipPath id="clip74"><path d="M-66,-157 L429.805,-157 L429.805,33 L-66,33 L-66,-157 z"/></clipPath></defs><g clip-path="url(#clip74)" fill="#ffffff" fill-opacity="1" opacity="1" stroke="none" stroke-opacity="0" transform="matrix(1,0,0,1,66,157)"><path d="M0,0 L56,0 L56,30 L0,30 L0,0 z" fill-rule="evenodd" vector-effect="none"/></g><defs><clipPath id="clip78"><path d="M0,0 L57,0 L57,31 L0,31 L0,0 z"/></clipPath></defs><g clip-path="url(#clip78)" fill="none" opacity="1" stroke="none" stroke-opacity="0" transform="matrix(1,0,0,1,65.8047,157)"><path d="M0,0 L57,0 L57,31 L0,31 L0,0 z" fill-rule="evenodd" vector-effect="none"/></g><defs><clipPath id="clip88"><path d="M-10,0 L41,0 L41,30 L-10,30 L-10,0 z"/></clipPath></defs><g clip-path="url(#clip88)" fill="#000000" fill-opacity="1" opacity="1" stroke="none" stroke-opacity="0" transform="matrix(1,0,0,1,78.8047,157)"><path d="M-7.65625,17.5781 L-7.65625,10.4219 L-6.78125,10.4219 L-6.78125,17.5781 L-7.65625,17.5781 M-2.03125,16.9375 C-2.35417,17.2188 -2.66667,17.4167 -2.96875,17.5313 C-3.27083,17.6458 -3.59375,17.7031 -3.9375,17.7031 C-4.51042,17.7031 -4.95052,17.5625 -5.25781,17.2813 C-5.5651,17 -5.71875,16.6406 -5.71875,16.2031 C-5.71875,15.9531 -5.66146,15.724 -5.54688,15.5156 C-5.43229,15.3073 -5.28125,15.138 -5.09375,15.0078 C-4.90625,14.8776 -4.69271,14.7813 -4.45313,14.7188 C-4.28646,14.6771 -4.02604,14.6354 -3.67188,14.5938 C-2.96354,14.5104 -2.44271,14.4063 -2.10938,14.2813 C-2.10938,14.1667 -2.10938,14.0938 -2.10938,14.0625 C-2.10938,13.6979 -2.19271,13.4427 -2.35938,13.2969 C-2.57813,13.099 -2.91146,13 -3.35938,13 C-3.76563,13 -4.06771,13.0729 -4.26563,13.2188 C-4.46354,13.3646 -4.60938,13.6198 -4.70313,13.9844 L-5.5625,13.875 C-5.48958,13.5 -5.36198,13.2005 -5.17969,12.9766 C-4.9974,12.7526 -4.73698,12.5807 -4.39844,12.4609 C-4.0599,12.3411 -3.66667,12.2813 -3.21875,12.2813 C-2.78125,12.2813 -2.42448,12.3333 -2.14844,12.4375 C-1.8724,12.5417 -1.66927,12.6719 -1.53906,12.8281 C-1.40885,12.9844 -1.31771,13.1823 -1.26563,13.4219 C-1.23438,13.5677 -1.21875,13.8385 -1.21875,14.2344 L-1.21875,15.4063 C-1.21875,16.2188 -1.20052,16.7344 -1.16406,16.9531 C-1.1276,17.1719 -1.05208,17.3802 -0.9375,17.5781 L-1.85938,17.5781 C-1.95313,17.3906 -2.01042,17.1771 -2.03125,16.9375 M-2.10938,14.9688 C-2.43229,15.1042 -2.91146,15.2188 -3.54688,15.3125 C-3.90104,15.3646 -4.15365,15.4219 -4.30469,15.4844 C-4.45573,15.5469 -4.57292,15.6406 -4.65625,15.7656 C-4.73958,15.8906 -4.78125,16.0313 -4.78125,16.1875 C-4.78125,16.4167 -4.69271,16.6094 -4.51563,16.7656 C-4.33854,16.9219 -4.07813,17 -3.73438,17 C-3.39063,17 -3.08854,16.9271 -2.82813,16.7813 C-2.56771,16.6354 -2.375,16.4323 -2.25,16.1719 C-2.15625,15.974 -2.10938,15.6823 -2.10938,15.2969 L-2.10938,14.9688 M0.125,17.5781 L0.125,12.3906 L0.921875,12.3906 L0.921875,13.125 C1.07813,12.8646 1.29167,12.6589 1.5625,12.5078 C1.83333,12.3568 2.14063,12.2813 2.48438,12.2813 C2.86979,12.2813 3.1849,12.3594 3.42969,12.5156 C3.67448,12.6719 3.84896,12.8958 3.95313,13.1875 C4.35938,12.5833 4.89063,12.2813 5.54688,12.2813 C6.06771,12.2813 6.46615,12.4219 6.74219,12.7031 C7.01823,12.9844 7.15625,13.4219 7.15625,14.0156 L7.15625,17.5781 L6.28125,17.5781 L6.28125,14.3125 C6.28125,13.9583 6.2526,13.7031 6.19531,13.5469 C6.13802,13.3906 6.03385,13.2656 5.88281,13.1719 C5.73177,13.0781 5.55729,13.0313 5.35938,13.0313 C4.99479,13.0313 4.69271,13.1536 4.45313,13.3984 C4.21354,13.6432 4.09375,14.0313 4.09375,14.5625 L4.09375,17.5781 L3.20313,17.5781 L3.20313,14.2031 C3.20313,13.8177 3.13281,13.526 2.99219,13.3281 C2.85156,13.1302 2.61979,13.0313 2.29688,13.0313 C2.04688,13.0313 1.81771,13.0964 1.60938,13.2266 C1.40104,13.3568 1.2474,13.5469 1.14844,13.7969 C1.04948,14.0469 1,14.4115 1,14.8906 L1,17.5781 L0.125,17.5781 M9.25,17.5781 L8.4375,17.5781 L8.4375,10.4219 L9.3125,10.4219 L9.3125,12.9688 C9.6875,12.5104 10.1615,12.2813 10.7344,12.2813 C11.0573,12.2813 11.3594,12.3438 11.6406,12.4688 C11.9219,12.5938 12.1563,12.7734 12.3438,13.0078 C12.5313,13.2422 12.6771,13.5234 12.7813,13.8516 C12.8854,14.1797 12.9375,14.5313 12.9375,14.9063 C12.9375,15.7917 12.7161,16.4792 12.2734,16.9688 C11.8307,17.4583 11.3021,17.7031 10.6875,17.7031 C10.0833,17.7031 9.60417,17.4427 9.25,16.9219 L9.25,17.5781 M9.23438,14.9531 C9.23438,15.5677 9.32292,16.0156 9.5,16.2969 C9.77083,16.7448 10.1458,16.9688 10.625,16.9688 C11,16.9688 11.3281,16.8021 11.6094,16.4688 C11.8906,16.1354 12.0313,15.6406 12.0313,14.9844 C12.0313,14.3073 11.8984,13.8073 11.6328,13.4844 C11.3672,13.1615 11.0417,13 10.6563,13 C10.2708,13 9.9375,13.1667 9.65625,13.5 C9.375,13.8333 9.23438,14.3177 9.23438,14.9531 M17.3594,17.5781 L17.3594,16.9219 C17.026,17.4427 16.5417,17.7031 15.9063,17.7031 C15.4896,17.7031 15.1068,17.5885 14.7578,17.3594 C14.4089,17.1302 14.1406,16.8099 13.9531,16.3984 C13.7656,15.987 13.6719,15.5156 13.6719,14.9844 C13.6719,14.474 13.7578,14.0078 13.9297,13.5859 C14.1016,13.1641 14.3594,12.8411 14.7031,12.6172 C15.0469,12.3932 15.4323,12.2813 15.8594,12.2813 C16.1719,12.2813 16.4505,12.3464 16.6953,12.4766 C16.9401,12.6068 17.1406,12.776 17.2969,12.9844 L17.2969,10.4219 L18.1719,10.4219 L18.1719,17.5781 L17.3594,17.5781 M14.5781,14.9844 C14.5781,15.651 14.7161,16.1484 14.9922,16.4766 C15.2682,16.8047 15.599,16.9688 15.9844,16.9688 C16.3698,16.9688 16.6953,16.8125 16.9609,16.5 C17.2266,16.1875 17.3594,15.7083 17.3594,15.0625 C17.3594,14.3542 17.224,13.8333 16.9531,13.5 C16.6823,13.1667 16.349,13 15.9531,13 C15.5573,13 15.2292,13.1589 14.9688,13.4766 C14.7083,13.7943 14.5781,14.2969 14.5781,14.9844 M22.9219,16.9375 C22.599,17.2188 22.2865,17.4167 21.9844,17.5313 C21.6823,17.6458 21.3594,17.7031 21.0156,17.7031 C20.4427,17.7031 20.0026,17.5625 19.6953,17.2813 C19.388,17 19.2344,16.6406 19.2344,16.2031 C19.2344,15.9531 19.2917,15.724 19.4063,15.5156 C19.5208,15.3073 19.6719,15.138 19.8594,15.0078 C20.0469,14.8776 20.2604,14.7813 20.5,14.7188 C20.6667,14.6771 20.9271,14.6354 21.2813,14.5938 C21.9896,14.5104 22.5104,14.4063 22.8438,14.2813 C22.8438,14.1667 22.8438,14.0938 22.8438,14.0625 C22.8438,13.6979 22.7604,13.4427 22.5938,13.2969 C22.375,13.099 22.0417,13 21.5938,13 C21.1875,13 20.8854,13.0729 20.6875,13.2188 C20.4896,13.3646 20.3438,13.6198 20.25,13.9844 L19.3906,13.875 C19.4635,13.5 19.5911,13.2005 19.7734,12.9766 C19.9557,12.7526 20.2161,12.5807 20.5547,12.4609 C20.8932,12.3411 21.2865,12.2813 21.7344,12.2813 C22.1719,12.2813 22.5286,12.3333 22.8047,12.4375 C23.0807,12.5417 23.2839,12.6719 23.4141,12.8281 C23.5443,12.9844 23.6354,13.1823 23.6875,13.4219 C23.7188,13.5677 23.7344,13.8385 23.7344,14.2344 L23.7344,15.4063 C23.7344,16.2188 23.7526,16.7344 23.7891,16.9531 C23.8255,17.1719 23.901,17.3802 24.0156,17.5781 L23.0938,17.5781 C23,17.3906 22.9427,17.1771 22.9219,16.9375 M22.8438,14.9688 C22.5208,15.1042 22.0417,15.2188 21.4063,15.3125 C21.0521,15.3646 20.7995,15.4219 20.6484,15.4844 C20.4974,15.5469 20.3802,15.6406 20.2969,15.7656 C20.2135,15.8906 20.1719,16.0313 20.1719,16.1875 C20.1719,16.4167 20.2604,16.6094 20.4375,16.7656 C20.6146,16.9219 20.875,17 21.2188,17 C21.5625,17 21.8646,16.9271 22.125,16.7813 C22.3854,16.6354 22.5781,16.4323 22.7031,16.1719 C22.7969,15.974 22.8438,15.6823 22.8438,15.2969 L22.8438,14.9688 M24.2656,19.5625 L24.2656,18.9375 L30.0938,18.9375 L30.0938,19.5625 L24.2656,19.5625 M30.625,17.5781 L30.625,12.3906 L31.4219,12.3906 L31.4219,13.125 C31.5781,12.8646 31.7917,12.6589 32.0625,12.5078 C32.3333,12.3568 32.6406,12.2813 32.9844,12.2813 C33.3698,12.2813 33.6849,12.3594 33.9297,12.5156 C34.1745,12.6719 34.349,12.8958 34.4531,13.1875 C34.8594,12.5833 35.3906,12.2813 36.0469,12.2813 C36.5677,12.2813 36.9661,12.4219 37.2422,12.7031 C37.5182,12.9844 37.6563,13.4219 37.6563,14.0156 L37.6563,17.5781 L36.7813,17.5781 L36.7813,14.3125 C36.7813,13.9583 36.7526,13.7031 36.6953,13.5469 C36.638,13.3906 36.5339,13.2656 36.3828,13.1719 C36.2318,13.0781 36.0573,13.0313 35.8594,13.0313 C35.4948,13.0313 35.1927,13.1536 34.9531,13.3984 C34.7135,13.6432 34.5938,14.0313 34.5938,14.5625 L34.5938,17.5781 L33.7031,17.5781 L33.7031,14.2031 C33.7031,13.8177 33.6328,13.526 33.4922,13.3281 C33.3516,13.1302 33.1198,13.0313 32.7969,13.0313 C32.5469,13.0313 32.3177,13.0964 32.1094,13.2266 C31.901,13.3568 31.7474,13.5469 31.6484,13.7969 C31.5495,14.0469 31.5,14.4115 31.5,14.8906 L31.5,17.5781 L30.625,17.5781" fill-rule="nonzero" vector-effect="none"/></g><defs><clipPath id="clip108"><path d="M-65.5,-157.5 L430.305,-157.5 L430.305,32.5 L-65.5,32.5 L-65.5,-157.5 z"/></clipPath></defs><g clip-path="url(#clip108)" fill="none" opacity="1" stroke="#000000" stroke-linecap="butt" stroke-linejoin="miter" stroke-miterlimit="2" stroke-opacity="1" stroke-width="1" transform="matrix(1,0,0,1,65.5,157.5)"><path d="M0,0 L56,0 L56,30 L0,30 L0,0 z" fill-rule="evenodd" vector-effect="none"/></g><defs><clipPath id="clip111"><path d="M-79,-102 L416.805,-102 L416.805,88 L-79,88 L-79,-102 z"/></clipPath></defs><g clip-path="url(#clip111)" fill="#ffffff" fill-opacity="1" opacity="1" stroke="none" stroke-opacity="0" transform="matrix(1,0,0,1,79,102)"><path d="M30,15 C30,23.2843 23.2843,30 15,30 C6.71573,30 0,23.2843 0,15 C0,6.71573 6.71573,0 15,0 C23.2843,0 30,6.71573 30,15 z" fill-rule="nonzero" vector-effect="none"/></g><defs><clipPath id="clip115"><path d="M15,135 L45,135 L45,165 L15,165 L15,135 z"/></clipPath></defs><g clip-path="url(#clip115)" fill="none" opacity="1" stroke="#000000" stroke-linecap="butt" stroke-linejoin="miter" stroke-miterlimit="2" stroke-opacity="1" stroke-width="1" transform="matrix(1,0,0,1,64.5,-32.5)"><polyline fill="none" points="18,150 22,150" vector-effect="none"/></g><defs><clipPath id="clip116"><path d="M15,135 L45,135 L45,165 L15,165 L15,135 z"/></clipPath></defs><g clip-path="url(#clip116)" fill="none" opacity="1" stroke="#000000" stroke-linecap="butt" stroke-linejoin="miter" stroke-miterlimit="2" stroke-opacity="1" stroke-width="1" transform="matrix(1,0,0,1,64.5,-32.5)"><polyline fill="none" points="20,148 20,152" vector-effect="none"/></g><defs><clipPath id="clip117"><path d="M15,135 L45,135 L45,165 L15,165 L15,135 z"/></clipPath></defs><g clip-path="url(#clip117)" fill="none" opacity="1" stroke="#000000" stroke-linecap="butt" stroke-linejoin="miter" stroke-miterlimit="2" stroke-opacity="1" stroke-width="1" transform="matrix(1,0,0,1,64.5,-32.5)"><polyline fill="none" points="28,160 32,160" vector-effect="none"/></g><defs><clipPath id="clip118"><path d="M15,135 L45,135 L45,165 L15,165 L15,135 z"/></clipPath></defs><g clip-path="url(#clip118)" fill="none" opacity="1" stroke="#000000" stroke-linecap="butt" stroke-linejoin="miter" stroke-miterlimit="2" stroke-opacity="1" stroke-width="1" transform="matrix(1,0,0,1,64.5,-32.5)"><polyline fill="none" points="30,158 30,162" vector-effect="none"/></g><defs><clipPath id="clip123"><path d="M-78.5,-102.5 L417.305,-102.5 L417.305,87.5 L-78.5,87.5 L-78.5,-102.5 z"/></clipPath></defs><g clip-path="url(#clip123)" fill="none" opacity="1" stroke="#000000" stroke-linecap="butt" stroke-linejoin="miter" stroke-miterlimit="2" stroke-opacity="1" stroke-width="1" transform="matrix(1,0,0,1,78.5,102.5)"><path d="M30,15 C30,23.2843 23.2843,30 15,30 C6.71573,30 0,23.2843 0,15 C0,6.71573 6.71573,0 15,0 C23.2843,0 30,6.71573 30,15 z" fill-rule="nonzero" vector-effect="none"/></g><defs><clipPath id="clip126"><path d="M-344,-64 L151.805,-64 L151.805,126 L-344,126 L-344,-64 z"/></clipPath></defs><g clip-path="url(#clip126)" fill="#ffffff" fill-opacity="1" opacity="1" stroke="none" stroke-opacity="0" transform="matrix(1,0,0,1,344,64)"><path d="M0,0 L30,0 L30,31 L0,31 L0,0 z" fill-rule="evenodd" vector-effect="none"/></g><defs><clipPath id="clip130"><path d="M280,97 L310,97 L310,128 L280,128 L280,97 z"/></clipPath></defs><g clip-path="url(#clip130)" fill="none" opacity="1" stroke="#000000" stroke-linecap="butt" stroke-linejoin="miter" stroke-miterlimit="2" stroke-opacity="1" stroke-width="1" transform="matrix(1,0,0,1,64.5,-32.5)"><polyline fill="none" points="298,115 292,109" vector-effect="none"/></g><defs><clipPath id="clip131"><path d="M280,97 L310,97 L310,128 L280,128 L280,97 z"/></clipPath></defs><g clip-path="url(#clip131)" fill="none" opacity="1" stroke="#000000" stroke-linecap="butt" stroke-linejoin="miter" stroke-miterlimit="2" stroke-opacity="1" stroke-width="1" transform="matrix(1,0,0,1,64.5,-32.5)"><polyline fill="none" points="298,109 292,115" vector-effect="none"/></g><defs><clipPath id="clip136"><path d="M-343.5,-64.5 L152.305,-64.5 L152.305,125.5 L-343.5,125.5 L-343.5,-64.5 z"/></clipPath></defs><g clip-path="url(#clip136)" fill="none" opacity="1" stroke="#000000" stroke-linecap="butt" stroke-linejoin="miter" stroke-miterlimit="2" stroke-opacity="1" stroke-width="1" transform="matrix(1,0,0,1,343.5,64.5)"><path d="M0,0 L30,0 L30,31 L0,31 L0,0 z" fill-rule="evenodd" vector-effect="none"/></g><defs><clipPath id="clip139"><path d="M-269,-2 L226.805,-2 L226.805,188 L-269,188 L-269,-2 z"/></clipPath></defs><g clip-path="url(#clip139)" fill="#ffffff" fill-opacity="1" opacity="1" stroke="none" stroke-opacity="0" transform="matrix(1,0,0,1,269,2)"><path d="M0,0 L40,20 L0,40 L0,0 z" fill-rule="nonzero" vector-effect="none"/></g><defs><clipPath id="clip143"><path d="M0,0 L40,0 L40,40 L0,40 L0,0 z"/></clipPath></defs><g clip-path="url(#clip143)" fill="none" opacity="1" stroke="none" stroke-opacity="0" transform="matrix(1,0,0,1,268.805,2)"><path d="M0,0 L40,20 L0,40 L0,0 z" fill-rule="nonzero" vector-effect="none"/></g><defs><clipPath id="clip153"><path d="M2,-2 L39,-2 L39,32 L2,32 L2,-2 z"/></clipPath></defs><g clip-path="url(#clip153)" fill="#000000" fill-opacity="1" opacity="1" stroke="none" stroke-opacity="0" transform="matrix(1,0,0,1,268.297,7.91406)"><path d="M6.23438,17.5781 L5.35938,17.5781 L5.35938,11.9844 C5.15104,12.1823 4.875,12.3828 4.53125,12.5859 C4.1875,12.7891 3.88021,12.9375 3.60938,13.0313 L3.60938,12.1875 C4.09896,11.9583 4.52865,11.6797 4.89844,11.3516 C5.26823,11.0234 5.52604,10.7031 5.67188,10.3906 L6.23438,10.3906 L6.23438,17.5781 M8.0625,17.7031 L10.1406,10.2969 L10.8438,10.2969 L8.76563,17.7031 L8.0625,17.7031 M11.5625,17.5781 L11.5625,10.4219 L12.5156,10.4219 L12.5156,16.7344 L16.0313,16.7344 L16.0313,17.5781 L11.5625,17.5781 M16.2188,19.5625 L16.2188,18.9375 L22.0469,18.9375 L22.0469,19.5625 L16.2188,19.5625 M25.8906,19.5625 L25.8906,17.0313 C25.7552,17.2188 25.5625,17.3776 25.3125,17.5078 C25.0625,17.638 24.8021,17.7031 24.5313,17.7031 C23.9167,17.7031 23.388,17.4557 22.9453,16.9609 C22.5026,16.4661 22.2813,15.7917 22.2813,14.9375 C22.2813,14.4167 22.3698,13.9505 22.5469,13.5391 C22.724,13.1276 22.9844,12.8151 23.3281,12.6016 C23.6719,12.388 24.0521,12.2813 24.4688,12.2813 C25.1042,12.2813 25.6042,12.5469 25.9688,13.0781 L25.9688,12.3906 L26.7656,12.3906 L26.7656,19.5625 L25.8906,19.5625 M23.1719,14.9688 C23.1719,15.6354 23.3125,16.1354 23.5938,16.4688 C23.875,16.8021 24.2135,16.9688 24.6094,16.9688 C24.9844,16.9688 25.3047,16.8099 25.5703,16.4922 C25.8359,16.1745 25.9688,15.6927 25.9688,15.0469 C25.9688,14.3594 25.8281,13.8411 25.5469,13.4922 C25.2656,13.1432 24.9323,12.9688 24.5469,12.9688 C24.1615,12.9688 23.8359,13.1302 23.5703,13.4531 C23.3047,13.776 23.1719,14.2813 23.1719,14.9688" fill-rule="nonzero" vector-effect="none"/></g><defs><clipPath id="clip173"><path d="M-268.5,-2.5 L227.305,-2.5 L227.305,187.5 L-268.5,187.5 L-268.5,-2.5 z"/></clipPath></defs><g clip-path="url(#clip173)" fill="none" opacity="1" stroke="#000000" stroke-linecap="butt" stroke-linejoin="miter" stroke-miterlimit="2" stroke-opacity="1" stroke-width="1" transform="matrix(1,0,0,1,268.5,2.5)"><path d="M0,0 L40,20 L0,40 L0,0 z" fill-rule="nonzero" vector-effect="none"/></g><defs><clipPath id="clip176"><path d="M-9,-15 L486.805,-15 L486.805,175 L-9,175 L-9,-15 z"/></clipPath></defs><g clip-path="url(#clip176)" fill="#ffffff" fill-opacity="1" opacity="1" stroke="none" stroke-opacity="0" transform="matrix(1,0,0,1,9,15)"><path d="M7,0 L23,0 C26.866,0 30,3.13401 30,7 C30,10.866 26.866,14 23,14 L7,14 C3.13401,14 0,10.866 0,7 C0,3.13401 3.13401,0 7,0 z" fill-rule="nonzero" vector-effect="none"/></g><defs><clipPath id="clip180"><path d="M-15,-7 L15,-7 L15,7 L-15,7 L-15,-7 z"/></clipPath></defs><g clip-path="url(#clip180)" fill="none" opacity="1" stroke="#000000" stroke-linecap="butt" stroke-linejoin="miter" stroke-miterlimit="2" stroke-opacity="1" stroke-width="1" transform="matrix(1,0,0,1,24,22)"><text fill="#000000" fill-opacity="1" font-family="Arial" font-size="10" font-style="normal" font-weight="400" stroke="none" textLength="5.54688" x="-2.76562" xml:space="preserve" y="3.5">1</text></g><defs><clipPath id="clip185"><path d="M-8.5,-15.5 L487.305,-15.5 L487.305,174.5 L-8.5,174.5 L-8.5,-15.5 z"/></clipPath></defs><g clip-path="url(#clip185)" fill="none" opacity="1" stroke="#000000" stroke-linecap="butt" stroke-linejoin="miter" stroke-miterlimit="2" stroke-opacity="1" stroke-width="1" transform="matrix(1,0,0,1,8.5,15.5)"><path d="M7,0 L23,0 C26.866,0 30,3.13401 30,7 C30,10.866 26.866,14 23,14 L7,14 C3.13401,14 0,10.866 0,7 C0,3.13401 3.13401,0 7,0 z" fill-rule="nonzero" vector-effect="none"/></g><defs><clipPath id="clip191"><path d="M0,0 L25,0 L25,14 L0,14 L0,0 z"/></clipPath></defs><g clip-path="url(#clip191)" fill="none" opacity="1" stroke="#000000" stroke-linecap="square" stroke-linejoin="bevel" stroke-opacity="1" stroke-width="1" transform="matrix(1,0,0,1,11.4297,31)"><text fill="#000000" fill-opacity="1" font-family="Arial" font-size="10" font-style="normal" font-weight="400" stroke="none" textLength="22.75" x="1" xml:space="preserve" y="10">V_qs</text></g><defs><clipPath id="clip199"><path d="M-464,-80 L31.8047,-80 L31.8047,110 L-464,110 L-464,-80 z"/></clipPath></defs><g clip-path="url(#clip199)" fill="#ffffff" fill-opacity="1" opacity="1" stroke="none" stroke-opacity="0" transform="matrix(1,0,0,1,464,80)"><path d="M23,14 L7,14 C3.13401,14 0,10.866 0,7 C0,3.13401 3.13401,0 7,0 L23,0 C26.866,0 30,3.13401 30,7 C30,10.866 26.866,14 23,14 z" fill-rule="nonzero" vector-effect="none"/></g><defs><clipPath id="clip203"><path d="M-15,-7 L15,-7 L15,7 L-15,7 L-15,-7 z"/></clipPath></defs><g clip-path="url(#clip203)" fill="none" opacity="1" stroke="#000000" stroke-linecap="butt" stroke-linejoin="miter" stroke-miterlimit="2" stroke-opacity="1" stroke-width="1" transform="matrix(1,0,0,1,479,87)"><text fill="#000000" fill-opacity="1" font-family="Arial" font-size="10" font-style="normal" font-weight="400" stroke="none" textLength="5.54688" x="-2.76562" xml:space="preserve" y="3.5">2</text></g><defs><clipPath id="clip208"><path d="M-463.5,-80.5 L32.3047,-80.5 L32.3047,109.5 L-463.5,109.5 L-463.5,-80.5 z"/></clipPath></defs><g clip-path="url(#clip208)" fill="none" opacity="1" stroke="#000000" stroke-linecap="butt" stroke-linejoin="miter" stroke-miterlimit="2" stroke-opacity="1" stroke-width="1" transform="matrix(1,0,0,1,463.5,80.5)"><path d="M23,14 L7,14 C3.13401,14 0,10.866 0,7 C0,3.13401 3.13401,0 7,0 L23,0 C26.866,0 30,3.13401 30,7 C30,10.866 26.866,14 23,14 z" fill-rule="nonzero" vector-effect="none"/></g><defs><clipPath id="clip214"><path d="M0,0 L20,0 L20,14 L0,14 L0,0 z"/></clipPath></defs><g clip-path="url(#clip214)" fill="none" opacity="1" stroke="#000000" stroke-linecap="square" stroke-linejoin="bevel" stroke-opacity="1" stroke-width="1" transform="matrix(1,0,0,1,468.922,96)"><text fill="#000000" fill-opacity="1" font-family="Arial" font-size="10" font-style="normal" font-weight="400" stroke="none" textLength="17.7656" x="1" xml:space="preserve" y="10">R_s</text></g><defs><clipPath id="clip222"><path d="M-9,-110 L486.805,-110 L486.805,80 L-9,80 L-9,-110 z"/></clipPath></defs><g clip-path="url(#clip222)" fill="#ffffff" fill-opacity="1" opacity="1" stroke="none" stroke-opacity="0" transform="matrix(1,0,0,1,9,110)"><path d="M7,0 L23,0 C26.866,0 30,3.13401 30,7 C30,10.866 26.866,14 23,14 L7,14 C3.13401,14 0,10.866 0,7 C0,3.13401 3.13401,0 7,0 z" fill-rule="nonzero" vector-effect="none"/></g><defs><clipPath id="clip226"><path d="M-15,-7 L15,-7 L15,7 L-15,7 L-15,-7 z"/></clipPath></defs><g clip-path="url(#clip226)" fill="none" opacity="1" stroke="#000000" stroke-linecap="butt" stroke-linejoin="miter" stroke-miterlimit="2" stroke-opacity="1" stroke-width="1" transform="matrix(1,0,0,1,24,117)"><text fill="#000000" fill-opacity="1" font-family="Arial" font-size="10" font-style="normal" font-weight="400" stroke="none" textLength="5.54688" x="-2.76562" xml:space="preserve" y="3.5">4</text></g><defs><clipPath id="clip231"><path d="M-8.5,-110.5 L487.305,-110.5 L487.305,79.5 L-8.5,79.5 L-8.5,-110.5 z"/></clipPath></defs><g clip-path="url(#clip231)" fill="none" opacity="1" stroke="#000000" stroke-linecap="butt" stroke-linejoin="miter" stroke-miterlimit="2" stroke-opacity="1" stroke-width="1" transform="matrix(1,0,0,1,8.5,110.5)"><path d="M7,0 L23,0 C26.866,0 30,3.13401 30,7 C30,10.866 26.866,14 23,14 L7,14 C3.13401,14 0,10.866 0,7 C0,3.13401 3.13401,0 7,0 z" fill-rule="nonzero" vector-effect="none"/></g><defs><clipPath id="clip237"><path d="M0,0 L41,0 L41,14 L0,14 L0,0 z"/></clipPath></defs><g clip-path="url(#clip237)" fill="none" opacity="1" stroke="#000000" stroke-linecap="square" stroke-linejoin="bevel" stroke-opacity="1" stroke-width="1" transform="matrix(1,0,0,1,3.38281,126)"><text fill="#000000" fill-opacity="1" font-family="Arial" font-size="10" font-style="normal" font-weight="400" stroke="none" textLength="38.8438" x="1" xml:space="preserve" y="10">i_ds*L_d</text></g><defs><clipPath id="clip245"><path d="M-9,-50 L486.805,-50 L486.805,140 L-9,140 L-9,-50 z"/></clipPath></defs><g clip-path="url(#clip245)" fill="#ffffff" fill-opacity="1" opacity="1" stroke="none" stroke-opacity="0" transform="matrix(1,0,0,1,9,50)"><path d="M7,0 L23,0 C26.866,0 30,3.13401 30,7 C30,10.866 26.866,14 23,14 L7,14 C3.13401,14 0,10.866 0,7 C0,3.13401 3.13401,0 7,0 z" fill-rule="nonzero" vector-effect="none"/></g><defs><clipPath id="clip249"><path d="M-15,-7 L15,-7 L15,7 L-15,7 L-15,-7 z"/></clipPath></defs><g clip-path="url(#clip249)" fill="none" opacity="1" stroke="#000000" stroke-linecap="butt" stroke-linejoin="miter" stroke-miterlimit="2" stroke-opacity="1" stroke-width="1" transform="matrix(1,0,0,1,24,57)"><text fill="#000000" fill-opacity="1" font-family="Arial" font-size="10" font-style="normal" font-weight="400" stroke="none" textLength="5.54688" x="-2.76562" xml:space="preserve" y="3.5">3</text></g><defs><clipPath id="clip254"><path d="M-8.5,-50.5 L487.305,-50.5 L487.305,139.5 L-8.5,139.5 L-8.5,-50.5 z"/></clipPath></defs><g clip-path="url(#clip254)" fill="none" opacity="1" stroke="#000000" stroke-linecap="butt" stroke-linejoin="miter" stroke-miterlimit="2" stroke-opacity="1" stroke-width="1" transform="matrix(1,0,0,1,8.5,50.5)"><path d="M7,0 L23,0 C26.866,0 30,3.13401 30,7 C30,10.866 26.866,14 23,14 L7,14 C3.13401,14 0,10.866 0,7 C0,3.13401 3.13401,0 7,0 z" fill-rule="nonzero" vector-effect="none"/></g><defs><clipPath id="clip260"><path d="M0,0 L44,0 L44,14 L0,14 L0,0 z"/></clipPath></defs><g clip-path="url(#clip260)" fill="none" opacity="1" stroke="#000000" stroke-linecap="square" stroke-linejoin="bevel" stroke-opacity="1" stroke-width="1" transform="matrix(1,0,0,1,2,66)"><text fill="#000000" fill-opacity="1" font-family="Arial" font-size="10" font-style="normal" font-weight="400" stroke="none" textLength="41.6094" x="1" xml:space="preserve" y="10">omega_e</text></g><defs><clipPath id="clip268"><path d="M-464,-15 L31.8047,-15 L31.8047,175 L-464,175 L-464,-15 z"/></clipPath></defs><g clip-path="url(#clip268)" fill="#ffffff" fill-opacity="1" opacity="1" stroke="none" stroke-opacity="0" transform="matrix(1,0,0,1,464,15)"><path d="M7,0 L23,0 C26.866,0 30,3.13401 30,7 C30,10.866 26.866,14 23,14 L7,14 C3.13401,14 0,10.866 0,7 C0,3.13401 3.13401,0 7,0 z" fill-rule="nonzero" vector-effect="none"/></g><defs><clipPath id="clip272"><path d="M-15,-7 L15,-7 L15,7 L-15,7 L-15,-7 z"/></clipPath></defs><g clip-path="url(#clip272)" fill="none" opacity="1" stroke="#000000" stroke-linecap="butt" stroke-linejoin="miter" stroke-miterlimit="2" stroke-opacity="1" stroke-width="1" transform="matrix(1,0,0,1,479,22)"><text fill="#000000" fill-opacity="1" font-family="Arial" font-size="10" font-style="normal" font-weight="400" stroke="none" textLength="5.54688" x="-2.76562" xml:space="preserve" y="3.5">1</text></g><defs><clipPath id="clip277"><path d="M-463.5,-15.5 L32.3047,-15.5 L32.3047,174.5 L-463.5,174.5 L-463.5,-15.5 z"/></clipPath></defs><g clip-path="url(#clip277)" fill="none" opacity="1" stroke="#000000" stroke-linecap="butt" stroke-linejoin="miter" stroke-miterlimit="2" stroke-opacity="1" stroke-width="1" transform="matrix(1,0,0,1,463.5,15.5)"><path d="M7,0 L23,0 C26.866,0 30,3.13401 30,7 C30,10.866 26.866,14 23,14 L7,14 C3.13401,14 0,10.866 0,7 C0,3.13401 3.13401,0 7,0 z" fill-rule="nonzero" vector-effect="none"/></g><defs><clipPath id="clip283"><path d="M0,0 L20,0 L20,14 L0,14 L0,0 z"/></clipPath></defs><g clip-path="url(#clip283)" fill="none" opacity="1" stroke="#000000" stroke-linecap="square" stroke-linejoin="bevel" stroke-opacity="1" stroke-width="1" transform="matrix(1,0,0,1,468.648,31)"><text fill="#000000" fill-opacity="1" font-family="Arial" font-size="10" font-style="normal" font-weight="400" stroke="none" textLength="18.3125" x="1" xml:space="preserve" y="10">i_qs</text></g><defs><clipPath id="clip291"><path d="M-131.771,-177.517 L218.815,173.07 L84.4651,307.42 L-266.122,-43.167 L-131.771,-177.517 z"/></clipPath></defs><g clip-path="url(#clip291)" fill="#000000" fill-opacity="1" opacity="1" stroke="none" stroke-opacity="0" transform="matrix(0.707107,-0.707107,0.707107,0.707107,218.7,32.3472)"><path d="M0,0 L-8,-4 L-8,4 L0,0 z" fill-rule="nonzero" vector-effect="none"/></g><defs><clipPath id="clip294"><path d="M-63.8047,33 L432,33 L432,223 L-63.8047,223 L-63.8047,33 z"/></clipPath></defs><g clip-path="url(#clip294)" fill="none" opacity="1" stroke="#000000" stroke-linecap="butt" stroke-linejoin="miter" stroke-miterlimit="2" stroke-opacity="1" stroke-width="1" transform="matrix(1,0,0,1,63.8047,-33)"><path d="M120.695,100.5 L144.695,100.5 L144.695,76.5 L150.038,71.1569" fill-rule="evenodd" vector-effect="none"/></g><defs><clipPath id="clip297"><path d="M36.8047,-228.805 L36.8047,267 L-153.195,267 L-153.195,-228.805 L36.8047,-228.805 z"/></clipPath></defs><g clip-path="url(#clip297)" fill="#000000" fill-opacity="1" opacity="1" stroke="none" stroke-opacity="0" transform="matrix(6.12323e-17,-1,1,6.12323e-17,228.805,36.8047)"><path d="M0,0 L-8,-4 L-8,4 L0,0 z" fill-rule="nonzero" vector-effect="none"/></g><defs><clipPath id="clip300"><path d="M-63.8047,33 L432,33 L432,223 L-63.8047,223 L-63.8047,33 z"/></clipPath></defs><g clip-path="url(#clip300)" fill="none" opacity="1" stroke="#000000" stroke-linecap="butt" stroke-linejoin="miter" stroke-miterlimit="2" stroke-opacity="1" stroke-width="1" transform="matrix(1,0,0,1,63.8047,-33)"><path d="M280.695,115.5 L165.695,115.5 L165.695,78.5" fill-rule="evenodd" vector-effect="none"/></g><defs><clipPath id="clip303"><path d="M-269,-22 L226.805,-22 L226.805,168 L-269,168 L-269,-22 z"/></clipPath></defs><g clip-path="url(#clip303)" fill="#000000" fill-opacity="1" opacity="1" stroke="none" stroke-opacity="0" transform="matrix(1,0,0,1,269,22)"><path d="M0,0 L-8,-4 L-8,4 L0,0 z" fill-rule="nonzero" vector-effect="none"/></g><defs><clipPath id="clip306"><path d="M-63.8047,33 L432,33 L432,223 L-63.8047,223 L-63.8047,33 z"/></clipPath></defs><g clip-path="url(#clip306)" fill="none" opacity="1" stroke="#000000" stroke-linecap="butt" stroke-linejoin="miter" stroke-miterlimit="2" stroke-opacity="1" stroke-width="1" transform="matrix(1,0,0,1,63.8047,-33)"><path d="M180.695,55.5 L197.695,55.5" fill-rule="evenodd" vector-effect="none"/></g><defs><clipPath id="clip309"><path d="M-344,-22 L151.805,-22 L151.805,168 L-344,168 L-344,-22 z"/></clipPath></defs><g clip-path="url(#clip309)" fill="#000000" fill-opacity="1" opacity="1" stroke="none" stroke-opacity="0" transform="matrix(1,0,0,1,344,22)"><path d="M0,0 L-8,-4 L-8,4 L0,0 z" fill-rule="nonzero" vector-effect="none"/></g><defs><clipPath id="clip312"><path d="M-63.8047,33 L432,33 L432,223 L-63.8047,223 L-63.8047,33 z"/></clipPath></defs><g clip-path="url(#clip312)" fill="none" opacity="1" stroke="#000000" stroke-linecap="butt" stroke-linejoin="miter" stroke-miterlimit="2" stroke-opacity="1" stroke-width="1" transform="matrix(1,0,0,1,63.8047,-33)"><path d="M245.695,55.5 L272.695,55.5" fill-rule="evenodd" vector-effect="none"/></g><defs><clipPath id="clip315"><path d="M-214,-22 L281.805,-22 L281.805,168 L-214,168 L-214,-22 z"/></clipPath></defs><g clip-path="url(#clip315)" fill="#000000" fill-opacity="1" opacity="1" stroke="none" stroke-opacity="0" transform="matrix(1,0,0,1,214,22)"><path d="M0,0 L-8,-4 L-8,4 L0,0 z" fill-rule="nonzero" vector-effect="none"/></g><defs><clipPath id="clip318"><path d="M-63.8047,33 L432,33 L432,223 L-63.8047,223 L-63.8047,33 z"/></clipPath></defs><g clip-path="url(#clip318)" fill="none" opacity="1" stroke="#000000" stroke-linecap="butt" stroke-linejoin="miter" stroke-miterlimit="2" stroke-opacity="1" stroke-width="1" transform="matrix(1,0,0,1,63.8047,-33)"><path d="M-24.3047,55.5 L142.695,55.5" fill-rule="evenodd" vector-effect="none"/></g><defs><clipPath id="clip321"><path d="M373.609,87 L-122.195,87 L-122.195,-103 L373.609,-103 L373.609,87 z"/></clipPath></defs><g clip-path="url(#clip321)" fill="#000000" fill-opacity="1" opacity="1" stroke="none" stroke-opacity="0" transform="matrix(-1,1.22465e-16,-1.22465e-16,-1,373.609,87)"><path d="M0,0 L-8,-4 L-8,4 L0,0 z" fill-rule="nonzero" vector-effect="none"/></g><defs><clipPath id="clip324"><path d="M-63.8047,33 L432,33 L432,223 L-63.8047,223 L-63.8047,33 z"/></clipPath></defs><g clip-path="url(#clip324)" fill="none" opacity="1" stroke="#000000" stroke-linecap="butt" stroke-linejoin="miter" stroke-miterlimit="2" stroke-opacity="1" stroke-width="1" transform="matrix(1,0,0,1,63.8047,-33)"><path d="M400.695,120.5 L318.695,120.5" fill-rule="evenodd" vector-effect="none"/></g><defs><clipPath id="clip329"><path d="M-63.8047,33 L432,33 L432,223 L-63.8047,223 L-63.8047,33 z"/></clipPath></defs><g clip-path="url(#clip329)" fill="none" opacity="1" stroke="#000000" stroke-linecap="butt" stroke-linejoin="miter" stroke-miterlimit="2" stroke-opacity="1" stroke-width="1" transform="matrix(1,0,0,1,63.8047,-33)"><path d="M310.695,55.5 L363.695,55.5" fill-rule="evenodd" vector-effect="none"/></g><defs><clipPath id="clip335"><path d="M0,0 L18,0 L18,12 L0,12 L0,0 z"/></clipPath></defs><g clip-path="url(#clip335)" fill="none" opacity="1" stroke="#000000" stroke-linecap="square" stroke-linejoin="bevel" stroke-opacity="1" stroke-width="1" transform="matrix(1,0,0,1,378.805,23.5)"><text fill="#000000" fill-opacity="1" font-family="Arial" font-size="9" font-style="normal" font-weight="400" stroke="none" textLength="16.4844" x="1" xml:space="preserve" y="9">i_qs</text></g><defs><clipPath id="clip343"><path d="M-464,-22 L31.8047,-22 L31.8047,168 L-464,168 L-464,-22 z"/></clipPath></defs><g clip-path="url(#clip343)" fill="#000000" fill-opacity="1" opacity="1" stroke="none" stroke-opacity="0" transform="matrix(1,0,0,1,464,22)"><path d="M0,0 L-8,-4 L-8,4 L0,0 z" fill-rule="nonzero" vector-effect="none"/></g><defs><clipPath id="clip346"><path d="M-63.8047,33 L432,33 L432,223 L-63.8047,223 L-63.8047,33 z"/></clipPath></defs><g clip-path="url(#clip346)" fill="none" opacity="1" stroke="#000000" stroke-linecap="butt" stroke-linejoin="miter" stroke-miterlimit="2" stroke-opacity="1" stroke-width="1" transform="matrix(1,0,0,1,63.8047,-33)"><path d="M363.695,55.5 L392.695,55.5" fill-rule="evenodd" vector-effect="none"/></g><defs><clipPath id="clip349"><path d="M373.609,72 L-122.195,72 L-122.195,-118 L373.609,-118 L373.609,72 z"/></clipPath></defs><g clip-path="url(#clip349)" fill="#000000" fill-opacity="1" opacity="1" stroke="none" stroke-opacity="0" transform="matrix(-1,1.22465e-16,-1.22465e-16,-1,373.609,72)"><path d="M0,0 L-8,-4 L-8,4 L0,0 z" fill-rule="nonzero" vector-effect="none"/></g><defs><clipPath id="clip352"><path d="M-63.8047,33 L432,33 L432,223 L-63.8047,223 L-63.8047,33 z"/></clipPath></defs><g clip-path="url(#clip352)" fill="none" opacity="1" stroke="#000000" stroke-linecap="butt" stroke-linejoin="miter" stroke-miterlimit="2" stroke-opacity="1" stroke-width="1" transform="matrix(1,0,0,1,63.8047,-33)"><path d="M363.695,55.5 L363.695,105.5 L318.695,105.5" fill-rule="evenodd" vector-effect="none"/></g><defs><clipPath id="clip355"><path d="M-426.805,-22 L69,-22 L69,168 L-426.805,168 L-426.805,-22 z"/></clipPath></defs><g clip-path="url(#clip355)" fill="#000000" fill-opacity="1" opacity="1" stroke="none" stroke-opacity="0" transform="matrix(1,0,0,1,426.805,22)"><path d="M3.19531,0.5 C3.19531,1.88071 2.07602,3 0.695313,3 C-0.685399,3 -1.80469,1.88071 -1.80469,0.5 C-1.80469,-0.880712 -0.685399,-2 0.695313,-2 C2.07602,-2 3.19531,-0.880712 3.19531,0.5 z" fill-rule="evenodd" vector-effect="none"/></g><defs><clipPath id="clip358"><path d="M-154,-72 L341.805,-72 L341.805,118 L-154,118 L-154,-72 z"/></clipPath></defs><g clip-path="url(#clip358)" fill="#000000" fill-opacity="1" opacity="1" stroke="none" stroke-opacity="0" transform="matrix(1,0,0,1,154,72)"><path d="M0,0 L-8,-4 L-8,4 L0,0 z" fill-rule="nonzero" vector-effect="none"/></g><defs><clipPath id="clip361"><path d="M-63.8047,33 L432,33 L432,223 L-63.8047,223 L-63.8047,33 z"/></clipPath></defs><g clip-path="url(#clip361)" fill="none" opacity="1" stroke="#000000" stroke-linecap="butt" stroke-linejoin="miter" stroke-miterlimit="2" stroke-opacity="1" stroke-width="1" transform="matrix(1,0,0,1,63.8047,-33)"><path d="M45.6953,150.5 L68.6953,150.5 L68.6953,105.5 L82.6953,105.5" fill-rule="evenodd" vector-effect="none"/></g><defs><clipPath id="clip364"><path d="M131.805,-93.8047 L131.805,402 L-58.1953,402 L-58.1953,-93.8047 L131.805,-93.8047 z"/></clipPath></defs><g clip-path="url(#clip364)" fill="#000000" fill-opacity="1" opacity="1" stroke="none" stroke-opacity="0" transform="matrix(6.12323e-17,-1,1,6.12323e-17,93.8047,131.805)"><path d="M0,0 L-8,-4 L-8,4 L0,0 z" fill-rule="nonzero" vector-effect="none"/></g><defs><clipPath id="clip367"><path d="M-63.8047,33 L432,33 L432,223 L-63.8047,223 L-63.8047,33 z"/></clipPath></defs><g clip-path="url(#clip367)" fill="none" opacity="1" stroke="#000000" stroke-linecap="butt" stroke-linejoin="miter" stroke-miterlimit="2" stroke-opacity="1" stroke-width="1" transform="matrix(1,0,0,1,63.8047,-33)"><path d="M30.6953,190.5 L30.6953,173.5" fill-rule="evenodd" vector-effect="none"/></g><defs><clipPath id="clip370"><path d="M-79,-117 L416.805,-117 L416.805,73 L-79,73 L-79,-117 z"/></clipPath></defs><g clip-path="url(#clip370)" fill="#000000" fill-opacity="1" opacity="1" stroke="none" stroke-opacity="0" transform="matrix(1,0,0,1,79,117)"><path d="M0,0 L-8,-4 L-8,4 L0,0 z" fill-rule="nonzero" vector-effect="none"/></g><defs><clipPath id="clip373"><path d="M-63.8047,33 L432,33 L432,223 L-63.8047,223 L-63.8047,33 z"/></clipPath></defs><g clip-path="url(#clip373)" fill="none" opacity="1" stroke="#000000" stroke-linecap="butt" stroke-linejoin="miter" stroke-miterlimit="2" stroke-opacity="1" stroke-width="1" transform="matrix(1,0,0,1,63.8047,-33)"><path d="M-24.3047,150.5 L7.69531,150.5" fill-rule="evenodd" vector-effect="none"/></g><defs><clipPath id="clip376"><path d="M-154,-57 L341.805,-57 L341.805,133 L-154,133 L-154,-57 z"/></clipPath></defs><g clip-path="url(#clip376)" fill="#000000" fill-opacity="1" opacity="1" stroke="none" stroke-opacity="0" transform="matrix(1,0,0,1,154,57)"><path d="M0,0 L-8,-4 L-8,4 L0,0 z" fill-rule="nonzero" vector-effect="none"/></g><defs><clipPath id="clip379"><path d="M-63.8047,33 L432,33 L432,223 L-63.8047,223 L-63.8047,33 z"/></clipPath></defs><g clip-path="url(#clip379)" fill="none" opacity="1" stroke="#000000" stroke-linecap="butt" stroke-linejoin="miter" stroke-miterlimit="2" stroke-opacity="1" stroke-width="1" transform="matrix(1,0,0,1,63.8047,-33)"><path d="M-24.3047,90.5 L82.6953,90.5" fill-rule="evenodd" vector-effect="none"/></g></g><!--generated on windows @ 2024-05-15 00:20:49 Hora estándar de Argentina--></svg>
