<?xml version="1.0" encoding="UTF-8"?><svg width="94.1917mm" height="30.4271mm" viewBox="0 0 356 115" xmlns="http://www.w3.org/2000/svg" xmlns:xlink="http://www.w3.org/1999/xlink"><g fill="none" stroke="black" stroke-width="1" fill-rule="evenodd" stroke-linecap="square" stroke-linejoin="bevel"><g clip-path="none" fill="#ffffff" fill-opacity="1" opacity="1" stroke="none" stroke-opacity="0" transform="matrix(1,0,0,1,0,0)"><path d="M0,0 L355.805,0 L355.805,115 L0,115 L0,0 z" fill-rule="evenodd" vector-effect="none"/></g><defs><clipPath id="clip3"><path d="M-239,-5 L116.805,-5 L116.805,110 L-239,110 L-239,-5 z"/></clipPath></defs><g clip-path="url(#clip3)" fill="#ffffff" fill-opacity="1" opacity="1" stroke="none" stroke-opacity="0" transform="matrix(1,0,0,1,239,5)"><path d="M0,0 L30,0 L30,30 L0,30 L0,0 z" fill-rule="evenodd" vector-effect="none"/></g><defs><clipPath id="clip7"><path d="M0,0 L31,0 L31,31 L0,31 L0,0 z"/></clipPath></defs><g clip-path="url(#clip7)" fill="none" opacity="1" stroke="none" stroke-opacity="0" transform="matrix(1,0,0,1,238.805,5)"><path d="M0,0 L31,0 L31,31 L0,31 L0,0 z" fill-rule="evenodd" vector-effect="none"/></g><defs><clipPath id="clip18"><path d="M0,0 L9,0 L9,31 L0,31 L0,0 z"/></clipPath></defs><g clip-path="url(#clip18)" fill="#000000" fill-opacity="1" opacity="1" stroke="none" stroke-opacity="0" transform="matrix(0.85,0,0,0.85,249.98,6.825)"><path d="M1,15 L8,15 L8,16 L1,16 L1,15 z" fill-rule="evenodd" vector-effect="none"/></g><defs><clipPath id="clip19"><path d="M0,0 L9,0 L9,31 L0,31 L0,0 z"/></clipPath></defs><g clip-path="url(#clip19)" fill="#000000" fill-opacity="1" opacity="1" stroke="none" stroke-opacity="0" transform="matrix(0.85,0,0,0.85,249.98,6.825)"><path d="M6.125,11 L6.125,10.8125 C5.14063,10.8125 4.89063,10.5781 4.89063,10.0156 L4.89063,2.25 L4.76563,2.21875 L2.4375,3.39063 L2.4375,3.57813 L2.79688,3.45313 C3.03125,3.35938 3.25,3.29688 3.375,3.29688 C3.65625,3.29688 3.76563,3.48438 3.76563,3.92188 L3.76563,9.76563 C3.76563,10.4844 3.5,10.75 2.53125,10.8125 L2.53125,11 L6.125,11 z" fill-rule="nonzero" vector-effect="none"/></g><defs><clipPath id="clip20"><path d="M0,0 L9,0 L9,31 L0,31 L0,0 z"/></clipPath></defs><g clip-path="url(#clip20)" fill="#000000" fill-opacity="1" opacity="1" stroke="none" stroke-opacity="0" transform="matrix(0.85,0,0,0.85,249.98,6.825)"><path d="M6.23438,21.25 L6.04688,21.25 C5.9375,21.4375 5.84375,21.4844 5.65625,21.4844 C5.54688,21.4844 5.4375,21.4688 5.1875,21.3906 C4.85938,21.3125 4.6875,21.2656 4.45313,21.2656 C3.5,21.2656 2.89063,21.8125 2.89063,22.6719 C2.89063,23.0938 3.14063,23.6719 3.70313,24.375 C4.21875,25.0156 4.4375,25.4531 4.4375,25.875 C4.4375,26.5 4.0625,26.875 3.4375,26.875 C2.76563,26.875 2.32813,26.3438 2.14063,25.1094 L1.9375,25.1094 L1.67188,27.1719 L1.89063,27.1719 C1.96875,26.9688 2.125,26.8906 2.26563,26.8906 C2.40625,26.8906 2.59375,26.9063 2.82813,27.0156 C3.14063,27.125 3.32813,27.1406 3.54688,27.1406 C4.625,27.1406 5.42188,26.4844 5.42188,25.4063 C5.42188,24.8906 5.1875,24.3906 4.53125,23.6406 C4.03125,23.0313 3.82813,22.6563 3.82813,22.3125 C3.82813,21.8281 4.14063,21.5625 4.60938,21.5625 C5.23438,21.5625 5.625,22 5.76563,23.0781 L5.96875,23.0781 L6.23438,21.25 z" fill-rule="nonzero" vector-effect="none"/></g><defs><clipPath id="clip43"><path d="M-238.5,-5.5 L117.305,-5.5 L117.305,109.5 L-238.5,109.5 L-238.5,-5.5 z"/></clipPath></defs><g clip-path="url(#clip43)" fill="none" opacity="1" stroke="#000000" stroke-linecap="butt" stroke-linejoin="miter" stroke-miterlimit="2" stroke-opacity="1" stroke-width="1" transform="matrix(1,0,0,1,238.5,5.5)"><path d="M0,0 L30,0 L30,30 L0,30 L0,0 z" fill-rule="evenodd" vector-effect="none"/></g><defs><clipPath id="clip46"><path d="M-109,-5 L246.805,-5 L246.805,110 L-109,110 L-109,-5 z"/></clipPath></defs><g clip-path="url(#clip46)" fill="#ffffff" fill-opacity="1" opacity="1" stroke="none" stroke-opacity="0" transform="matrix(1,0,0,1,109,5)"><path d="M30,15 C30,23.2843 23.2843,30 15,30 C6.71573,30 0,23.2843 0,15 C0,6.71573 6.71573,0 15,0 C23.2843,0 30,6.71573 30,15 z" fill-rule="nonzero" vector-effect="none"/></g><defs><clipPath id="clip50"><path d="M95,60 L125,60 L125,90 L95,90 L95,60 z"/></clipPath></defs><g clip-path="url(#clip50)" fill="none" opacity="1" stroke="#000000" stroke-linecap="butt" stroke-linejoin="miter" stroke-miterlimit="2" stroke-opacity="1" stroke-width="1" transform="matrix(1,0,0,1,14.5,-54.5)"><polyline fill="none" points="98,75 102,75" vector-effect="none"/></g><defs><clipPath id="clip51"><path d="M95,60 L125,60 L125,90 L95,90 L95,60 z"/></clipPath></defs><g clip-path="url(#clip51)" fill="none" opacity="1" stroke="#000000" stroke-linecap="butt" stroke-linejoin="miter" stroke-miterlimit="2" stroke-opacity="1" stroke-width="1" transform="matrix(1,0,0,1,14.5,-54.5)"><polyline fill="none" points="100,73 100,77" vector-effect="none"/></g><defs><clipPath id="clip52"><path d="M95,60 L125,60 L125,90 L95,90 L95,60 z"/></clipPath></defs><g clip-path="url(#clip52)" fill="none" opacity="1" stroke="#000000" stroke-linecap="butt" stroke-linejoin="miter" stroke-miterlimit="2" stroke-opacity="1" stroke-width="1" transform="matrix(1,0,0,1,14.5,-54.5)"><polyline fill="none" points="100,82 104,82" vector-effect="none"/></g><defs><clipPath id="clip53"><path d="M95,60 L125,60 L125,90 L95,90 L95,60 z"/></clipPath></defs><g clip-path="url(#clip53)" fill="none" opacity="1" stroke="#000000" stroke-linecap="butt" stroke-linejoin="miter" stroke-miterlimit="2" stroke-opacity="1" stroke-width="1" transform="matrix(1,0,0,1,14.5,-54.5)"><polyline fill="none" points="102,80 102,84" vector-effect="none"/></g><defs><clipPath id="clip54"><path d="M95,60 L125,60 L125,90 L95,90 L95,60 z"/></clipPath></defs><g clip-path="url(#clip54)" fill="none" opacity="1" stroke="#000000" stroke-linecap="butt" stroke-linejoin="miter" stroke-miterlimit="2" stroke-opacity="1" stroke-width="1" transform="matrix(1,0,0,1,14.5,-54.5)"><polyline fill="none" points="108,85 112,85" vector-effect="none"/></g><defs><clipPath id="clip59"><path d="M-108.5,-5.5 L247.305,-5.5 L247.305,109.5 L-108.5,109.5 L-108.5,-5.5 z"/></clipPath></defs><g clip-path="url(#clip59)" fill="none" opacity="1" stroke="#000000" stroke-linecap="butt" stroke-linejoin="miter" stroke-miterlimit="2" stroke-opacity="1" stroke-width="1" transform="matrix(1,0,0,1,108.5,5.5)"><path d="M30,15 C30,23.2843 23.2843,30 15,30 C6.71573,30 0,23.2843 0,15 C0,6.71573 6.71573,0 15,0 C23.2843,0 30,6.71573 30,15 z" fill-rule="nonzero" vector-effect="none"/></g><defs><clipPath id="clip62"><path d="M-64,-67 L291.805,-67 L291.805,48 L-64,48 L-64,-67 z"/></clipPath></defs><g clip-path="url(#clip62)" fill="#ffffff" fill-opacity="1" opacity="1" stroke="none" stroke-opacity="0" transform="matrix(1,0,0,1,64,67)"><path d="M0,0 L30,0 L30,31 L0,31 L0,0 z" fill-rule="evenodd" vector-effect="none"/></g><defs><clipPath id="clip66"><path d="M50,122 L80,122 L80,153 L50,153 L50,122 z"/></clipPath></defs><g clip-path="url(#clip66)" fill="none" opacity="1" stroke="#000000" stroke-linecap="butt" stroke-linejoin="miter" stroke-miterlimit="2" stroke-opacity="1" stroke-width="1" transform="matrix(1,0,0,1,14.5,-54.5)"><polyline fill="none" points="68,140 62,134" vector-effect="none"/></g><defs><clipPath id="clip67"><path d="M50,122 L80,122 L80,153 L50,153 L50,122 z"/></clipPath></defs><g clip-path="url(#clip67)" fill="none" opacity="1" stroke="#000000" stroke-linecap="butt" stroke-linejoin="miter" stroke-miterlimit="2" stroke-opacity="1" stroke-width="1" transform="matrix(1,0,0,1,14.5,-54.5)"><polyline fill="none" points="68,134 62,140" vector-effect="none"/></g><defs><clipPath id="clip72"><path d="M-63.5,-67.5 L292.305,-67.5 L292.305,47.5 L-63.5,47.5 L-63.5,-67.5 z"/></clipPath></defs><g clip-path="url(#clip72)" fill="none" opacity="1" stroke="#000000" stroke-linecap="butt" stroke-linejoin="miter" stroke-miterlimit="2" stroke-opacity="1" stroke-width="1" transform="matrix(1,0,0,1,63.5,67.5)"><path d="M0,0 L30,0 L30,31 L0,31 L0,0 z" fill-rule="evenodd" vector-effect="none"/></g><defs><clipPath id="clip75"><path d="M-239,-57 L116.805,-57 L116.805,58 L-239,58 L-239,-57 z"/></clipPath></defs><g clip-path="url(#clip75)" fill="#ffffff" fill-opacity="1" opacity="1" stroke="none" stroke-opacity="0" transform="matrix(1,0,0,1,239,57)"><path d="M0,0 L30,0 L30,31 L0,31 L0,0 z" fill-rule="evenodd" vector-effect="none"/></g><defs><clipPath id="clip79"><path d="M225,112 L255,112 L255,143 L225,143 L225,112 z"/></clipPath></defs><g clip-path="url(#clip79)" fill="none" opacity="1" stroke="#000000" stroke-linecap="butt" stroke-linejoin="miter" stroke-miterlimit="2" stroke-opacity="1" stroke-width="1" transform="matrix(1,0,0,1,14.5,-54.5)"><polyline fill="none" points="243,130 237,124" vector-effect="none"/></g><defs><clipPath id="clip80"><path d="M225,112 L255,112 L255,143 L225,143 L225,112 z"/></clipPath></defs><g clip-path="url(#clip80)" fill="none" opacity="1" stroke="#000000" stroke-linecap="butt" stroke-linejoin="miter" stroke-miterlimit="2" stroke-opacity="1" stroke-width="1" transform="matrix(1,0,0,1,14.5,-54.5)"><polyline fill="none" points="243,124 237,130" vector-effect="none"/></g><defs><clipPath id="clip85"><path d="M-238.5,-57.5 L117.305,-57.5 L117.305,57.5 L-238.5,57.5 L-238.5,-57.5 z"/></clipPath></defs><g clip-path="url(#clip85)" fill="none" opacity="1" stroke="#000000" stroke-linecap="butt" stroke-linejoin="miter" stroke-miterlimit="2" stroke-opacity="1" stroke-width="1" transform="matrix(1,0,0,1,238.5,57.5)"><path d="M0,0 L30,0 L30,31 L0,31 L0,0 z" fill-rule="evenodd" vector-effect="none"/></g><defs><clipPath id="clip88"><path d="M-164,-2 L191.805,-2 L191.805,113 L-164,113 L-164,-2 z"/></clipPath></defs><g clip-path="url(#clip88)" fill="#ffffff" fill-opacity="1" opacity="1" stroke="none" stroke-opacity="0" transform="matrix(1,0,0,1,164,2)"><path d="M0,0 L50,18 L0,36 L0,0 z" fill-rule="nonzero" vector-effect="none"/></g><defs><clipPath id="clip92"><path d="M0,0 L50,0 L50,36 L0,36 L0,0 z"/></clipPath></defs><g clip-path="url(#clip92)" fill="none" opacity="1" stroke="none" stroke-opacity="0" transform="matrix(1,0,0,1,163.805,2)"><path d="M0,0 L50,18 L0,36 L0,0 z" fill-rule="nonzero" vector-effect="none"/></g><defs><clipPath id="clip102"><path d="M1,-2 L41,-2 L41,32 L1,32 L1,-2 z"/></clipPath></defs><g clip-path="url(#clip102)" fill="#000000" fill-opacity="1" opacity="1" stroke="none" stroke-opacity="0" transform="matrix(1,0,0,1,166.155,5.91406)"><path d="M6.23438,17.5781 L5.35938,17.5781 L5.35938,11.9844 C5.15104,12.1823 4.875,12.3828 4.53125,12.5859 C4.1875,12.7891 3.88021,12.9375 3.60938,13.0313 L3.60938,12.1875 C4.09896,11.9583 4.52865,11.6797 4.89844,11.3516 C5.26823,11.0234 5.52604,10.7031 5.67188,10.3906 L6.23438,10.3906 L6.23438,17.5781 M8.0625,17.7031 L10.1406,10.2969 L10.8438,10.2969 L8.76563,17.7031 L8.0625,17.7031 M11.5625,17.5781 L11.5625,10.4219 L12.5156,10.4219 L12.5156,16.7344 L16.0313,16.7344 L16.0313,17.5781 L11.5625,17.5781 M16.2188,19.5625 L16.2188,18.9375 L22.0469,18.9375 L22.0469,19.5625 L16.2188,19.5625 M25.9531,17.5781 L25.9531,16.9219 C25.6198,17.4427 25.1354,17.7031 24.5,17.7031 C24.0833,17.7031 23.7005,17.5885 23.3516,17.3594 C23.0026,17.1302 22.7344,16.8099 22.5469,16.3984 C22.3594,15.987 22.2656,15.5156 22.2656,14.9844 C22.2656,14.474 22.3516,14.0078 22.5234,13.5859 C22.6953,13.1641 22.9531,12.8411 23.2969,12.6172 C23.6406,12.3932 24.026,12.2813 24.4531,12.2813 C24.7656,12.2813 25.0443,12.3464 25.2891,12.4766 C25.5339,12.6068 25.7344,12.776 25.8906,12.9844 L25.8906,10.4219 L26.7656,10.4219 L26.7656,17.5781 L25.9531,17.5781 M23.1719,14.9844 C23.1719,15.651 23.3099,16.1484 23.5859,16.4766 C23.862,16.8047 24.1927,16.9688 24.5781,16.9688 C24.9635,16.9688 25.2891,16.8125 25.5547,16.5 C25.8203,16.1875 25.9531,15.7083 25.9531,15.0625 C25.9531,14.3542 25.8177,13.8333 25.5469,13.5 C25.276,13.1667 24.9427,13 24.5469,13 C24.151,13 23.8229,13.1589 23.5625,13.4766 C23.3021,13.7943 23.1719,14.2969 23.1719,14.9844" fill-rule="nonzero" vector-effect="none"/></g><defs><clipPath id="clip122"><path d="M-163.5,-2.5 L192.305,-2.5 L192.305,112.5 L-163.5,112.5 L-163.5,-2.5 z"/></clipPath></defs><g clip-path="url(#clip122)" fill="none" opacity="1" stroke="#000000" stroke-linecap="butt" stroke-linejoin="miter" stroke-miterlimit="2" stroke-opacity="1" stroke-width="1" transform="matrix(1,0,0,1,163.5,2.5)"><path d="M0,0 L50,18 L0,36 L0,0 z" fill-rule="nonzero" vector-effect="none"/></g><defs><clipPath id="clip125"><path d="M-9,-68 L346.805,-68 L346.805,47 L-9,47 L-9,-68 z"/></clipPath></defs><g clip-path="url(#clip125)" fill="#ffffff" fill-opacity="1" opacity="1" stroke="none" stroke-opacity="0" transform="matrix(1,0,0,1,9,68)"><path d="M7,0 L23,0 C26.866,0 30,3.13401 30,7 C30,10.866 26.866,14 23,14 L7,14 C3.13401,14 0,10.866 0,7 C0,3.13401 3.13401,0 7,0 z" fill-rule="nonzero" vector-effect="none"/></g><defs><clipPath id="clip129"><path d="M-15,-7 L15,-7 L15,7 L-15,7 L-15,-7 z"/></clipPath></defs><g clip-path="url(#clip129)" fill="none" opacity="1" stroke="#000000" stroke-linecap="butt" stroke-linejoin="miter" stroke-miterlimit="2" stroke-opacity="1" stroke-width="1" transform="matrix(1,0,0,1,24,75)"><text fill="#000000" fill-opacity="1" font-family="Arial" font-size="10" font-style="normal" font-weight="400" stroke="none" textLength="5.54688" x="-2.76562" xml:space="preserve" y="3.5">1</text></g><defs><clipPath id="clip134"><path d="M-8.5,-68.5 L347.305,-68.5 L347.305,46.5 L-8.5,46.5 L-8.5,-68.5 z"/></clipPath></defs><g clip-path="url(#clip134)" fill="none" opacity="1" stroke="#000000" stroke-linecap="butt" stroke-linejoin="miter" stroke-miterlimit="2" stroke-opacity="1" stroke-width="1" transform="matrix(1,0,0,1,8.5,68.5)"><path d="M7,0 L23,0 C26.866,0 30,3.13401 30,7 C30,10.866 26.866,14 23,14 L7,14 C3.13401,14 0,10.866 0,7 C0,3.13401 3.13401,0 7,0 z" fill-rule="nonzero" vector-effect="none"/></g><defs><clipPath id="clip140"><path d="M0,0 L35,0 L35,14 L0,14 L0,0 z"/></clipPath></defs><g clip-path="url(#clip140)" fill="none" opacity="1" stroke="#000000" stroke-linecap="square" stroke-linejoin="bevel" stroke-opacity="1" stroke-width="1" transform="matrix(1,0,0,1,6.15625,52)"><text fill="#000000" fill-opacity="1" font-family="Arial" font-size="10" font-style="normal" font-weight="400" stroke="none" textLength="33.2969" x="1" xml:space="preserve" y="10">i_qs*Lq</text></g><defs><clipPath id="clip148"><path d="M-9,-13 L346.805,-13 L346.805,102 L-9,102 L-9,-13 z"/></clipPath></defs><g clip-path="url(#clip148)" fill="#ffffff" fill-opacity="1" opacity="1" stroke="none" stroke-opacity="0" transform="matrix(1,0,0,1,9,13)"><path d="M7,0 L23,0 C26.866,0 30,3.13401 30,7 C30,10.866 26.866,14 23,14 L7,14 C3.13401,14 0,10.866 0,7 C0,3.13401 3.13401,0 7,0 z" fill-rule="nonzero" vector-effect="none"/></g><defs><clipPath id="clip152"><path d="M-15,-7 L15,-7 L15,7 L-15,7 L-15,-7 z"/></clipPath></defs><g clip-path="url(#clip152)" fill="none" opacity="1" stroke="#000000" stroke-linecap="butt" stroke-linejoin="miter" stroke-miterlimit="2" stroke-opacity="1" stroke-width="1" transform="matrix(1,0,0,1,24,20)"><text fill="#000000" fill-opacity="1" font-family="Arial" font-size="10" font-style="normal" font-weight="400" stroke="none" textLength="5.54688" x="-2.76562" xml:space="preserve" y="3.5">2</text></g><defs><clipPath id="clip157"><path d="M-8.5,-13.5 L347.305,-13.5 L347.305,101.5 L-8.5,101.5 L-8.5,-13.5 z"/></clipPath></defs><g clip-path="url(#clip157)" fill="none" opacity="1" stroke="#000000" stroke-linecap="butt" stroke-linejoin="miter" stroke-miterlimit="2" stroke-opacity="1" stroke-width="1" transform="matrix(1,0,0,1,8.5,13.5)"><path d="M7,0 L23,0 C26.866,0 30,3.13401 30,7 C30,10.866 26.866,14 23,14 L7,14 C3.13401,14 0,10.866 0,7 C0,3.13401 3.13401,0 7,0 z" fill-rule="nonzero" vector-effect="none"/></g><defs><clipPath id="clip163"><path d="M0,0 L25,0 L25,14 L0,14 L0,0 z"/></clipPath></defs><g clip-path="url(#clip163)" fill="none" opacity="1" stroke="#000000" stroke-linecap="square" stroke-linejoin="bevel" stroke-opacity="1" stroke-width="1" transform="matrix(1,0,0,1,11.4297,29)"><text fill="#000000" fill-opacity="1" font-family="Arial" font-size="10" font-style="normal" font-weight="400" stroke="none" textLength="22.75" x="1" xml:space="preserve" y="10">V_ds</text></g><defs><clipPath id="clip171"><path d="M-324,-73 L31.8047,-73 L31.8047,42 L-324,42 L-324,-73 z"/></clipPath></defs><g clip-path="url(#clip171)" fill="#ffffff" fill-opacity="1" opacity="1" stroke="none" stroke-opacity="0" transform="matrix(1,0,0,1,324,73)"><path d="M23,14 L7,14 C3.13401,14 0,10.866 0,7 C0,3.13401 3.13401,0 7,0 L23,0 C26.866,0 30,3.13401 30,7 C30,10.866 26.866,14 23,14 z" fill-rule="nonzero" vector-effect="none"/></g><defs><clipPath id="clip175"><path d="M-15,-7 L15,-7 L15,7 L-15,7 L-15,-7 z"/></clipPath></defs><g clip-path="url(#clip175)" fill="none" opacity="1" stroke="#000000" stroke-linecap="butt" stroke-linejoin="miter" stroke-miterlimit="2" stroke-opacity="1" stroke-width="1" transform="matrix(1,0,0,1,339,80)"><text fill="#000000" fill-opacity="1" font-family="Arial" font-size="10" font-style="normal" font-weight="400" stroke="none" textLength="5.54688" x="-2.76562" xml:space="preserve" y="3.5">3</text></g><defs><clipPath id="clip180"><path d="M-323.5,-73.5 L32.3047,-73.5 L32.3047,41.5 L-323.5,41.5 L-323.5,-73.5 z"/></clipPath></defs><g clip-path="url(#clip180)" fill="none" opacity="1" stroke="#000000" stroke-linecap="butt" stroke-linejoin="miter" stroke-miterlimit="2" stroke-opacity="1" stroke-width="1" transform="matrix(1,0,0,1,323.5,73.5)"><path d="M23,14 L7,14 C3.13401,14 0,10.866 0,7 C0,3.13401 3.13401,0 7,0 L23,0 C26.866,0 30,3.13401 30,7 C30,10.866 26.866,14 23,14 z" fill-rule="nonzero" vector-effect="none"/></g><defs><clipPath id="clip186"><path d="M0,0 L20,0 L20,14 L0,14 L0,0 z"/></clipPath></defs><g clip-path="url(#clip186)" fill="none" opacity="1" stroke="#000000" stroke-linecap="square" stroke-linejoin="bevel" stroke-opacity="1" stroke-width="1" transform="matrix(1,0,0,1,328.922,89)"><text fill="#000000" fill-opacity="1" font-family="Arial" font-size="10" font-style="normal" font-weight="400" stroke="none" textLength="17.7656" x="1" xml:space="preserve" y="10">R_s</text></g><defs><clipPath id="clip194"><path d="M-9,-83 L346.805,-83 L346.805,32 L-9,32 L-9,-83 z"/></clipPath></defs><g clip-path="url(#clip194)" fill="#ffffff" fill-opacity="1" opacity="1" stroke="none" stroke-opacity="0" transform="matrix(1,0,0,1,9,83)"><path d="M7,0 L23,0 C26.866,0 30,3.13401 30,7 C30,10.866 26.866,14 23,14 L7,14 C3.13401,14 0,10.866 0,7 C0,3.13401 3.13401,0 7,0 z" fill-rule="nonzero" vector-effect="none"/></g><defs><clipPath id="clip198"><path d="M-15,-7 L15,-7 L15,7 L-15,7 L-15,-7 z"/></clipPath></defs><g clip-path="url(#clip198)" fill="none" opacity="1" stroke="#000000" stroke-linecap="butt" stroke-linejoin="miter" stroke-miterlimit="2" stroke-opacity="1" stroke-width="1" transform="matrix(1,0,0,1,24,90)"><text fill="#000000" fill-opacity="1" font-family="Arial" font-size="10" font-style="normal" font-weight="400" stroke="none" textLength="5.54688" x="-2.76562" xml:space="preserve" y="3.5">4</text></g><defs><clipPath id="clip203"><path d="M-8.5,-83.5 L347.305,-83.5 L347.305,31.5 L-8.5,31.5 L-8.5,-83.5 z"/></clipPath></defs><g clip-path="url(#clip203)" fill="none" opacity="1" stroke="#000000" stroke-linecap="butt" stroke-linejoin="miter" stroke-miterlimit="2" stroke-opacity="1" stroke-width="1" transform="matrix(1,0,0,1,8.5,83.5)"><path d="M7,0 L23,0 C26.866,0 30,3.13401 30,7 C30,10.866 26.866,14 23,14 L7,14 C3.13401,14 0,10.866 0,7 C0,3.13401 3.13401,0 7,0 z" fill-rule="nonzero" vector-effect="none"/></g><defs><clipPath id="clip209"><path d="M0,0 L44,0 L44,14 L0,14 L0,0 z"/></clipPath></defs><g clip-path="url(#clip209)" fill="none" opacity="1" stroke="#000000" stroke-linecap="square" stroke-linejoin="bevel" stroke-opacity="1" stroke-width="1" transform="matrix(1,0,0,1,2,99)"><text fill="#000000" fill-opacity="1" font-family="Arial" font-size="10" font-style="normal" font-weight="400" stroke="none" textLength="41.6094" x="1" xml:space="preserve" y="10">omega_e</text></g><defs><clipPath id="clip217"><path d="M-324,-13 L31.8047,-13 L31.8047,102 L-324,102 L-324,-13 z"/></clipPath></defs><g clip-path="url(#clip217)" fill="#ffffff" fill-opacity="1" opacity="1" stroke="none" stroke-opacity="0" transform="matrix(1,0,0,1,324,13)"><path d="M7,0 L23,0 C26.866,0 30,3.13401 30,7 C30,10.866 26.866,14 23,14 L7,14 C3.13401,14 0,10.866 0,7 C0,3.13401 3.13401,0 7,0 z" fill-rule="nonzero" vector-effect="none"/></g><defs><clipPath id="clip221"><path d="M-15,-7 L15,-7 L15,7 L-15,7 L-15,-7 z"/></clipPath></defs><g clip-path="url(#clip221)" fill="none" opacity="1" stroke="#000000" stroke-linecap="butt" stroke-linejoin="miter" stroke-miterlimit="2" stroke-opacity="1" stroke-width="1" transform="matrix(1,0,0,1,339,20)"><text fill="#000000" fill-opacity="1" font-family="Arial" font-size="10" font-style="normal" font-weight="400" stroke="none" textLength="5.54688" x="-2.76562" xml:space="preserve" y="3.5">1</text></g><defs><clipPath id="clip226"><path d="M-323.5,-13.5 L32.3047,-13.5 L32.3047,101.5 L-323.5,101.5 L-323.5,-13.5 z"/></clipPath></defs><g clip-path="url(#clip226)" fill="none" opacity="1" stroke="#000000" stroke-linecap="butt" stroke-linejoin="miter" stroke-miterlimit="2" stroke-opacity="1" stroke-width="1" transform="matrix(1,0,0,1,323.5,13.5)"><path d="M7,0 L23,0 C26.866,0 30,3.13401 30,7 C30,10.866 26.866,14 23,14 L7,14 C3.13401,14 0,10.866 0,7 C0,3.13401 3.13401,0 7,0 z" fill-rule="nonzero" vector-effect="none"/></g><defs><clipPath id="clip232"><path d="M0,0 L20,0 L20,14 L0,14 L0,0 z"/></clipPath></defs><g clip-path="url(#clip232)" fill="none" opacity="1" stroke="#000000" stroke-linecap="square" stroke-linejoin="bevel" stroke-opacity="1" stroke-width="1" transform="matrix(1,0,0,1,328.648,29)"><text fill="#000000" fill-opacity="1" font-family="Arial" font-size="10" font-style="normal" font-weight="400" stroke="none" textLength="18.3125" x="1" xml:space="preserve" y="10">i_ds</text></g><defs><clipPath id="clip240"><path d="M-58.9395,-101.857 L192.652,149.735 L111.335,231.052 L-140.257,-20.5396 L-58.9395,-101.857 z"/></clipPath></defs><g clip-path="url(#clip240)" fill="#000000" fill-opacity="1" opacity="1" stroke="none" stroke-opacity="0" transform="matrix(0.707107,-0.707107,0.707107,0.707107,113.7,30.3472)"><path d="M0,0 L-8,-4 L-8,4 L0,0 z" fill-rule="nonzero" vector-effect="none"/></g><defs><clipPath id="clip243"><path d="M-13.8047,55 L342,55 L342,170 L-13.8047,170 L-13.8047,55 z"/></clipPath></defs><g clip-path="url(#clip243)" fill="none" opacity="1" stroke="#000000" stroke-linecap="butt" stroke-linejoin="miter" stroke-miterlimit="2" stroke-opacity="1" stroke-width="1" transform="matrix(1,0,0,1,13.8047,-55)"><path d="M80.6953,140.5 L89.6953,140.5 L89.6953,96.5 L95.0385,91.1569" fill-rule="evenodd" vector-effect="none"/></g><defs><clipPath id="clip246"><path d="M34.8047,-123.805 L34.8047,232 L-80.1953,232 L-80.1953,-123.805 L34.8047,-123.805 z"/></clipPath></defs><g clip-path="url(#clip246)" fill="#000000" fill-opacity="1" opacity="1" stroke="none" stroke-opacity="0" transform="matrix(6.12323e-17,-1,1,6.12323e-17,123.805,34.8047)"><path d="M0,0 L-8,-4 L-8,4 L0,0 z" fill-rule="nonzero" vector-effect="none"/></g><defs><clipPath id="clip249"><path d="M-13.8047,55 L342,55 L342,170 L-13.8047,170 L-13.8047,55 z"/></clipPath></defs><g clip-path="url(#clip249)" fill="none" opacity="1" stroke="#000000" stroke-linecap="butt" stroke-linejoin="miter" stroke-miterlimit="2" stroke-opacity="1" stroke-width="1" transform="matrix(1,0,0,1,13.8047,-55)"><path d="M225.695,130.5 L110.695,130.5 L110.695,98.5" fill-rule="evenodd" vector-effect="none"/></g><defs><clipPath id="clip252"><path d="M-164,-20 L191.805,-20 L191.805,95 L-164,95 L-164,-20 z"/></clipPath></defs><g clip-path="url(#clip252)" fill="#000000" fill-opacity="1" opacity="1" stroke="none" stroke-opacity="0" transform="matrix(1,0,0,1,164,20)"><path d="M0,0 L-8,-4 L-8,4 L0,0 z" fill-rule="nonzero" vector-effect="none"/></g><defs><clipPath id="clip255"><path d="M-13.8047,55 L342,55 L342,170 L-13.8047,170 L-13.8047,55 z"/></clipPath></defs><g clip-path="url(#clip255)" fill="none" opacity="1" stroke="#000000" stroke-linecap="butt" stroke-linejoin="miter" stroke-miterlimit="2" stroke-opacity="1" stroke-width="1" transform="matrix(1,0,0,1,13.8047,-55)"><path d="M125.695,75.5 L142.695,75.5" fill-rule="evenodd" vector-effect="none"/></g><defs><clipPath id="clip258"><path d="M-239,-20 L116.805,-20 L116.805,95 L-239,95 L-239,-20 z"/></clipPath></defs><g clip-path="url(#clip258)" fill="#000000" fill-opacity="1" opacity="1" stroke="none" stroke-opacity="0" transform="matrix(1,0,0,1,239,20)"><path d="M0,0 L-8,-4 L-8,4 L0,0 z" fill-rule="nonzero" vector-effect="none"/></g><defs><clipPath id="clip261"><path d="M-13.8047,55 L342,55 L342,170 L-13.8047,170 L-13.8047,55 z"/></clipPath></defs><g clip-path="url(#clip261)" fill="none" opacity="1" stroke="#000000" stroke-linecap="butt" stroke-linejoin="miter" stroke-miterlimit="2" stroke-opacity="1" stroke-width="1" transform="matrix(1,0,0,1,13.8047,-55)"><path d="M200.695,75.5 L217.695,75.5" fill-rule="evenodd" vector-effect="none"/></g><defs><clipPath id="clip264"><path d="M-64,-75 L291.805,-75 L291.805,40 L-64,40 L-64,-75 z"/></clipPath></defs><g clip-path="url(#clip264)" fill="#000000" fill-opacity="1" opacity="1" stroke="none" stroke-opacity="0" transform="matrix(1,0,0,1,64,75)"><path d="M0,0 L-8,-4 L-8,4 L0,0 z" fill-rule="nonzero" vector-effect="none"/></g><defs><clipPath id="clip267"><path d="M-13.8047,55 L342,55 L342,170 L-13.8047,170 L-13.8047,55 z"/></clipPath></defs><g clip-path="url(#clip267)" fill="none" opacity="1" stroke="#000000" stroke-linecap="butt" stroke-linejoin="miter" stroke-miterlimit="2" stroke-opacity="1" stroke-width="1" transform="matrix(1,0,0,1,13.8047,-55)"><path d="M25.6953,130.5 L42.6953,130.5" fill-rule="evenodd" vector-effect="none"/></g><defs><clipPath id="clip270"><path d="M-109,-20 L246.805,-20 L246.805,95 L-109,95 L-109,-20 z"/></clipPath></defs><g clip-path="url(#clip270)" fill="#000000" fill-opacity="1" opacity="1" stroke="none" stroke-opacity="0" transform="matrix(1,0,0,1,109,20)"><path d="M0,0 L-8,-4 L-8,4 L0,0 z" fill-rule="nonzero" vector-effect="none"/></g><defs><clipPath id="clip273"><path d="M-13.8047,55 L342,55 L342,170 L-13.8047,170 L-13.8047,55 z"/></clipPath></defs><g clip-path="url(#clip273)" fill="none" opacity="1" stroke="#000000" stroke-linecap="butt" stroke-linejoin="miter" stroke-miterlimit="2" stroke-opacity="1" stroke-width="1" transform="matrix(1,0,0,1,13.8047,-55)"><path d="M25.6953,75.5 L87.6953,75.5" fill-rule="evenodd" vector-effect="none"/></g><defs><clipPath id="clip276"><path d="M268.609,80 L-87.1953,80 L-87.1953,-35 L268.609,-35 L268.609,80 z"/></clipPath></defs><g clip-path="url(#clip276)" fill="#000000" fill-opacity="1" opacity="1" stroke="none" stroke-opacity="0" transform="matrix(-1,1.22465e-16,-1.22465e-16,-1,268.609,80)"><path d="M0,0 L-8,-4 L-8,4 L0,0 z" fill-rule="nonzero" vector-effect="none"/></g><defs><clipPath id="clip279"><path d="M-13.8047,55 L342,55 L342,170 L-13.8047,170 L-13.8047,55 z"/></clipPath></defs><g clip-path="url(#clip279)" fill="none" opacity="1" stroke="#000000" stroke-linecap="butt" stroke-linejoin="miter" stroke-miterlimit="2" stroke-opacity="1" stroke-width="1" transform="matrix(1,0,0,1,13.8047,-55)"><path d="M310.695,135.5 L263.695,135.5" fill-rule="evenodd" vector-effect="none"/></g><defs><clipPath id="clip282"><path d="M-64,-90 L291.805,-90 L291.805,25 L-64,25 L-64,-90 z"/></clipPath></defs><g clip-path="url(#clip282)" fill="#000000" fill-opacity="1" opacity="1" stroke="none" stroke-opacity="0" transform="matrix(1,0,0,1,64,90)"><path d="M0,0 L-8,-4 L-8,4 L0,0 z" fill-rule="nonzero" vector-effect="none"/></g><defs><clipPath id="clip285"><path d="M-13.8047,55 L342,55 L342,170 L-13.8047,170 L-13.8047,55 z"/></clipPath></defs><g clip-path="url(#clip285)" fill="none" opacity="1" stroke="#000000" stroke-linecap="butt" stroke-linejoin="miter" stroke-miterlimit="2" stroke-opacity="1" stroke-width="1" transform="matrix(1,0,0,1,13.8047,-55)"><path d="M25.6953,145.5 L42.6953,145.5" fill-rule="evenodd" vector-effect="none"/></g><defs><clipPath id="clip290"><path d="M-13.8047,55 L342,55 L342,170 L-13.8047,170 L-13.8047,55 z"/></clipPath></defs><g clip-path="url(#clip290)" fill="none" opacity="1" stroke="#000000" stroke-linecap="butt" stroke-linejoin="miter" stroke-miterlimit="2" stroke-opacity="1" stroke-width="1" transform="matrix(1,0,0,1,13.8047,-55)"><path d="M255.695,75.5 L289.695,75.5" fill-rule="evenodd" vector-effect="none"/></g><defs><clipPath id="clip296"><path d="M0,0 L18,0 L18,12 L0,12 L0,0 z"/></clipPath></defs><g clip-path="url(#clip296)" fill="none" opacity="1" stroke="#000000" stroke-linecap="square" stroke-linejoin="bevel" stroke-opacity="1" stroke-width="1" transform="matrix(1,0,0,1,273.805,21.5)"><text fill="#000000" fill-opacity="1" font-family="Arial" font-size="9" font-style="normal" font-weight="400" stroke="none" textLength="16.4844" x="1" xml:space="preserve" y="9">i_ds</text></g><defs><clipPath id="clip304"><path d="M268.609,65 L-87.1953,65 L-87.1953,-50 L268.609,-50 L268.609,65 z"/></clipPath></defs><g clip-path="url(#clip304)" fill="#000000" fill-opacity="1" opacity="1" stroke="none" stroke-opacity="0" transform="matrix(-1,1.22465e-16,-1.22465e-16,-1,268.609,65)"><path d="M0,0 L-8,-4 L-8,4 L0,0 z" fill-rule="nonzero" vector-effect="none"/></g><defs><clipPath id="clip307"><path d="M-13.8047,55 L342,55 L342,170 L-13.8047,170 L-13.8047,55 z"/></clipPath></defs><g clip-path="url(#clip307)" fill="none" opacity="1" stroke="#000000" stroke-linecap="butt" stroke-linejoin="miter" stroke-miterlimit="2" stroke-opacity="1" stroke-width="1" transform="matrix(1,0,0,1,13.8047,-55)"><path d="M289.695,75.5 L289.695,120.5 L263.695,120.5" fill-rule="evenodd" vector-effect="none"/></g><defs><clipPath id="clip310"><path d="M-324,-20 L31.8047,-20 L31.8047,95 L-324,95 L-324,-20 z"/></clipPath></defs><g clip-path="url(#clip310)" fill="#000000" fill-opacity="1" opacity="1" stroke="none" stroke-opacity="0" transform="matrix(1,0,0,1,324,20)"><path d="M0,0 L-8,-4 L-8,4 L0,0 z" fill-rule="nonzero" vector-effect="none"/></g><defs><clipPath id="clip313"><path d="M-13.8047,55 L342,55 L342,170 L-13.8047,170 L-13.8047,55 z"/></clipPath></defs><g clip-path="url(#clip313)" fill="none" opacity="1" stroke="#000000" stroke-linecap="butt" stroke-linejoin="miter" stroke-miterlimit="2" stroke-opacity="1" stroke-width="1" transform="matrix(1,0,0,1,13.8047,-55)"><path d="M289.695,75.5 L302.695,75.5" fill-rule="evenodd" vector-effect="none"/></g><defs><clipPath id="clip316"><path d="M-302.805,-20 L53,-20 L53,95 L-302.805,95 L-302.805,-20 z"/></clipPath></defs><g clip-path="url(#clip316)" fill="#000000" fill-opacity="1" opacity="1" stroke="none" stroke-opacity="0" transform="matrix(1,0,0,1,302.805,20)"><path d="M3.19531,0.5 C3.19531,1.88071 2.07602,3 0.695313,3 C-0.685399,3 -1.80469,1.88071 -1.80469,0.5 C-1.80469,-0.880712 -0.685399,-2 0.695313,-2 C2.07602,-2 3.19531,-0.880712 3.19531,0.5 z" fill-rule="evenodd" vector-effect="none"/></g></g><!--generated on windows @ 2024-05-15 00:20:15 Hora estándar de Argentina--></svg>
