<?xml version="1.0" encoding="UTF-8"?><svg width="84.4021mm" height="26.4583mm" viewBox="0 0 319 100" xmlns="http://www.w3.org/2000/svg" xmlns:xlink="http://www.w3.org/1999/xlink"><g fill="none" stroke="black" stroke-width="1" fill-rule="evenodd" stroke-linecap="square" stroke-linejoin="bevel"><g clip-path="none" fill="#ffffff" fill-opacity="1" opacity="1" stroke="none" stroke-opacity="0" transform="matrix(1,0,0,1,0,0)"><path d="M0,0 L319,0 L319,100 L0,100 L0,0 z" fill-rule="evenodd" vector-effect="none"/></g><defs><clipPath id="clip3"><path d="M-192,-5 L127,-5 L127,95 L-192,95 L-192,-5 z"/></clipPath></defs><g clip-path="url(#clip3)" fill="#ffffff" fill-opacity="1" opacity="1" stroke="none" stroke-opacity="0" transform="matrix(1,0,0,1,192,5)"><path d="M0,0 L30,0 L30,30 L0,30 L0,0 z" fill-rule="evenodd" vector-effect="none"/></g><defs><clipPath id="clip7"><path d="M0,0 L31,0 L31,31 L0,31 L0,0 z"/></clipPath></defs><g clip-path="url(#clip7)" fill="none" opacity="1" stroke="none" stroke-opacity="0" transform="matrix(1,0,0,1,192,5)"><path d="M0,0 L31,0 L31,31 L0,31 L0,0 z" fill-rule="evenodd" vector-effect="none"/></g><defs><clipPath id="clip18"><path d="M0,0 L9,0 L9,31 L0,31 L0,0 z"/></clipPath></defs><g clip-path="url(#clip18)" fill="#000000" fill-opacity="1" opacity="1" stroke="none" stroke-opacity="0" transform="matrix(0.85,0,0,0.85,203.175,6.825)"><path d="M1,15 L8,15 L8,16 L1,16 L1,15 z" fill-rule="evenodd" vector-effect="none"/></g><defs><clipPath id="clip19"><path d="M0,0 L9,0 L9,31 L0,31 L0,0 z"/></clipPath></defs><g clip-path="url(#clip19)" fill="#000000" fill-opacity="1" opacity="1" stroke="none" stroke-opacity="0" transform="matrix(0.85,0,0,0.85,203.175,6.825)"><path d="M6.125,11 L6.125,10.8125 C5.14063,10.8125 4.89063,10.5781 4.89063,10.0156 L4.89063,2.25 L4.76563,2.21875 L2.4375,3.39063 L2.4375,3.57813 L2.79688,3.45313 C3.03125,3.35938 3.25,3.29688 3.375,3.29688 C3.65625,3.29688 3.76563,3.48438 3.76563,3.92188 L3.76563,9.76563 C3.76563,10.4844 3.5,10.75 2.53125,10.8125 L2.53125,11 L6.125,11 z" fill-rule="nonzero" vector-effect="none"/></g><defs><clipPath id="clip20"><path d="M0,0 L9,0 L9,31 L0,31 L0,0 z"/></clipPath></defs><g clip-path="url(#clip20)" fill="#000000" fill-opacity="1" opacity="1" stroke="none" stroke-opacity="0" transform="matrix(0.85,0,0,0.85,203.175,6.825)"><path d="M6.23438,21.25 L6.04688,21.25 C5.9375,21.4375 5.84375,21.4844 5.65625,21.4844 C5.54688,21.4844 5.4375,21.4688 5.1875,21.3906 C4.85938,21.3125 4.6875,21.2656 4.45313,21.2656 C3.5,21.2656 2.89063,21.8125 2.89063,22.6719 C2.89063,23.0938 3.14063,23.6719 3.70313,24.375 C4.21875,25.0156 4.4375,25.4531 4.4375,25.875 C4.4375,26.5 4.0625,26.875 3.4375,26.875 C2.76563,26.875 2.32813,26.3438 2.14063,25.1094 L1.9375,25.1094 L1.67188,27.1719 L1.89063,27.1719 C1.96875,26.9688 2.125,26.8906 2.26563,26.8906 C2.40625,26.8906 2.59375,26.9063 2.82813,27.0156 C3.14063,27.125 3.32813,27.1406 3.54688,27.1406 C4.625,27.1406 5.42188,26.4844 5.42188,25.4063 C5.42188,24.8906 5.1875,24.3906 4.53125,23.6406 C4.03125,23.0313 3.82813,22.6563 3.82813,22.3125 C3.82813,21.8281 4.14063,21.5625 4.60938,21.5625 C5.23438,21.5625 5.625,22 5.76563,23.0781 L5.96875,23.0781 L6.23438,21.25 z" fill-rule="nonzero" vector-effect="none"/></g><defs><clipPath id="clip43"><path d="M-192.5,-5.5 L126.5,-5.5 L126.5,94.5 L-192.5,94.5 L-192.5,-5.5 z"/></clipPath></defs><g clip-path="url(#clip43)" fill="none" opacity="1" stroke="#000000" stroke-linecap="butt" stroke-linejoin="miter" stroke-miterlimit="2" stroke-opacity="1" stroke-width="1" transform="matrix(1,0,0,1,192.5,5.5)"><path d="M0,0 L30,0 L30,30 L0,30 L0,0 z" fill-rule="evenodd" vector-effect="none"/></g><defs><clipPath id="clip46"><path d="M-67,-5 L252,-5 L252,95 L-67,95 L-67,-5 z"/></clipPath></defs><g clip-path="url(#clip46)" fill="#ffffff" fill-opacity="1" opacity="1" stroke="none" stroke-opacity="0" transform="matrix(1,0,0,1,67,5)"><path d="M30,15 C30,23.2843 23.2843,30 15,30 C6.71573,30 0,23.2843 0,15 C0,6.71573 6.71573,0 15,0 C23.2843,0 30,6.71573 30,15 z" fill-rule="nonzero" vector-effect="none"/></g><defs><clipPath id="clip50"><path d="M105,180 L135,180 L135,210 L105,210 L105,180 z"/></clipPath></defs><g clip-path="url(#clip50)" fill="none" opacity="1" stroke="#000000" stroke-linecap="butt" stroke-linejoin="miter" stroke-miterlimit="2" stroke-opacity="1" stroke-width="1" transform="matrix(1,0,0,1,-37.5,-174.5)"><polyline fill="none" points="108,195 112,195" vector-effect="none"/></g><defs><clipPath id="clip51"><path d="M105,180 L135,180 L135,210 L105,210 L105,180 z"/></clipPath></defs><g clip-path="url(#clip51)" fill="none" opacity="1" stroke="#000000" stroke-linecap="butt" stroke-linejoin="miter" stroke-miterlimit="2" stroke-opacity="1" stroke-width="1" transform="matrix(1,0,0,1,-37.5,-174.5)"><polyline fill="none" points="110,193 110,197" vector-effect="none"/></g><defs><clipPath id="clip52"><path d="M105,180 L135,180 L135,210 L105,210 L105,180 z"/></clipPath></defs><g clip-path="url(#clip52)" fill="none" opacity="1" stroke="#000000" stroke-linecap="butt" stroke-linejoin="miter" stroke-miterlimit="2" stroke-opacity="1" stroke-width="1" transform="matrix(1,0,0,1,-37.5,-174.5)"><polyline fill="none" points="118,205 122,205" vector-effect="none"/></g><defs><clipPath id="clip57"><path d="M-67.5,-5.5 L251.5,-5.5 L251.5,94.5 L-67.5,94.5 L-67.5,-5.5 z"/></clipPath></defs><g clip-path="url(#clip57)" fill="none" opacity="1" stroke="#000000" stroke-linecap="butt" stroke-linejoin="miter" stroke-miterlimit="2" stroke-opacity="1" stroke-width="1" transform="matrix(1,0,0,1,67.5,5.5)"><path d="M30,15 C30,23.2843 23.2843,30 15,30 C6.71573,30 0,23.2843 0,15 C0,6.71573 6.71573,0 15,0 C23.2843,0 30,6.71573 30,15 z" fill-rule="nonzero" vector-effect="none"/></g><defs><clipPath id="clip60"><path d="M-192,-67 L127,-67 L127,33 L-192,33 L-192,-67 z"/></clipPath></defs><g clip-path="url(#clip60)" fill="#ffffff" fill-opacity="1" opacity="1" stroke="none" stroke-opacity="0" transform="matrix(1,0,0,1,192,67)"><path d="M0,0 L30,0 L30,31 L0,31 L0,0 z" fill-rule="evenodd" vector-effect="none"/></g><defs><clipPath id="clip64"><path d="M230,242 L260,242 L260,273 L230,273 L230,242 z"/></clipPath></defs><g clip-path="url(#clip64)" fill="none" opacity="1" stroke="#000000" stroke-linecap="butt" stroke-linejoin="miter" stroke-miterlimit="2" stroke-opacity="1" stroke-width="1" transform="matrix(1,0,0,1,-37.5,-174.5)"><polyline fill="none" points="248,260 242,254" vector-effect="none"/></g><defs><clipPath id="clip65"><path d="M230,242 L260,242 L260,273 L230,273 L230,242 z"/></clipPath></defs><g clip-path="url(#clip65)" fill="none" opacity="1" stroke="#000000" stroke-linecap="butt" stroke-linejoin="miter" stroke-miterlimit="2" stroke-opacity="1" stroke-width="1" transform="matrix(1,0,0,1,-37.5,-174.5)"><polyline fill="none" points="248,254 242,260" vector-effect="none"/></g><defs><clipPath id="clip70"><path d="M-192.5,-67.5 L126.5,-67.5 L126.5,32.5 L-192.5,32.5 L-192.5,-67.5 z"/></clipPath></defs><g clip-path="url(#clip70)" fill="none" opacity="1" stroke="#000000" stroke-linecap="butt" stroke-linejoin="miter" stroke-miterlimit="2" stroke-opacity="1" stroke-width="1" transform="matrix(1,0,0,1,192.5,67.5)"><path d="M0,0 L30,0 L30,31 L0,31 L0,0 z" fill-rule="evenodd" vector-effect="none"/></g><defs><clipPath id="clip73"><path d="M-117,-2 L202,-2 L202,98 L-117,98 L-117,-2 z"/></clipPath></defs><g clip-path="url(#clip73)" fill="#ffffff" fill-opacity="1" opacity="1" stroke="none" stroke-opacity="0" transform="matrix(1,0,0,1,117,2)"><path d="M0,0 L40,18 L0,36 L0,0 z" fill-rule="nonzero" vector-effect="none"/></g><defs><clipPath id="clip77"><path d="M0,0 L40,0 L40,36 L0,36 L0,0 z"/></clipPath></defs><g clip-path="url(#clip77)" fill="none" opacity="1" stroke="none" stroke-opacity="0" transform="matrix(1,0,0,1,117,2)"><path d="M0,0 L40,18 L0,36 L0,0 z" fill-rule="nonzero" vector-effect="none"/></g><defs><clipPath id="clip87"><path d="M1,-2 L39,-2 L39,32 L1,32 L1,-2 z"/></clipPath></defs><g clip-path="url(#clip87)" fill="#000000" fill-opacity="1" opacity="1" stroke="none" stroke-opacity="0" transform="matrix(1,0,0,1,115.88,5.91406)"><path d="M5.40625,17.5781 L4.53125,17.5781 L4.53125,11.9844 C4.32292,12.1823 4.04688,12.3828 3.70313,12.5859 C3.35938,12.7891 3.05208,12.9375 2.78125,13.0313 L2.78125,12.1875 C3.27083,11.9583 3.70052,11.6797 4.07031,11.3516 C4.4401,11.0234 4.69792,10.7031 4.84375,10.3906 L5.40625,10.3906 L5.40625,17.5781 M7.23438,17.7031 L9.3125,10.2969 L10.0156,10.2969 L7.9375,17.7031 L7.23438,17.7031 M10.7344,17.5781 L10.7344,10.4219 L11.6875,10.4219 L11.6875,16.7344 L15.2031,16.7344 L15.2031,17.5781 L10.7344,17.5781 M15.3906,19.5625 L15.3906,18.9375 L21.2188,18.9375 L21.2188,19.5625 L15.3906,19.5625 M21.7344,17.5781 L21.7344,10.4219 L22.6094,10.4219 L22.6094,17.5781 L21.7344,17.5781 M23.625,16.0313 L24.4844,15.8906 C24.5365,16.2448 24.6745,16.513 24.8984,16.6953 C25.1224,16.8776 25.4323,16.9688 25.8281,16.9688 C26.2344,16.9688 26.5365,16.888 26.7344,16.7266 C26.9323,16.5651 27.0313,16.3698 27.0313,16.1406 C27.0313,15.9427 26.9427,15.7865 26.7656,15.6719 C26.6406,15.599 26.3385,15.5 25.8594,15.375 C25.224,15.2188 24.7813,15.0807 24.5313,14.9609 C24.2813,14.8411 24.0911,14.6771 23.9609,14.4688 C23.8307,14.2604 23.7656,14.026 23.7656,13.7656 C23.7656,13.5365 23.8177,13.3229 23.9219,13.125 C24.026,12.9271 24.1719,12.7656 24.3594,12.6406 C24.4948,12.5365 24.6797,12.4505 24.9141,12.3828 C25.1484,12.3151 25.401,12.2813 25.6719,12.2813 C26.0781,12.2813 26.4349,12.3385 26.7422,12.4531 C27.0495,12.5677 27.2786,12.7266 27.4297,12.9297 C27.5807,13.1328 27.6823,13.401 27.7344,13.7344 L26.875,13.8438 C26.8333,13.5833 26.7188,13.3776 26.5313,13.2266 C26.3438,13.0755 26.0781,13 25.7344,13 C25.3385,13 25.0521,13.0651 24.875,13.1953 C24.6979,13.3255 24.6094,13.4844 24.6094,13.6719 C24.6094,13.7865 24.6458,13.8854 24.7188,13.9688 C24.7917,14.0625 24.9063,14.1406 25.0625,14.2031 C25.1458,14.2344 25.4063,14.3125 25.8438,14.4375 C26.4583,14.6042 26.888,14.7396 27.1328,14.8438 C27.3776,14.9479 27.5703,15.1016 27.7109,15.3047 C27.8516,15.5078 27.9219,15.7552 27.9219,16.0469 C27.9219,16.349 27.8385,16.6276 27.6719,16.8828 C27.5052,17.138 27.2604,17.3385 26.9375,17.4844 C26.6146,17.6302 26.25,17.7031 25.8438,17.7031 C25.1667,17.7031 24.651,17.5625 24.2969,17.2813 C23.9427,17 23.7188,16.5833 23.625,16.0313" fill-rule="nonzero" vector-effect="none"/></g><defs><clipPath id="clip107"><path d="M-117.5,-2.5 L201.5,-2.5 L201.5,97.5 L-117.5,97.5 L-117.5,-2.5 z"/></clipPath></defs><g clip-path="url(#clip107)" fill="none" opacity="1" stroke="#000000" stroke-linecap="butt" stroke-linejoin="miter" stroke-miterlimit="2" stroke-opacity="1" stroke-width="1" transform="matrix(1,0,0,1,117.5,2.5)"><path d="M0,0 L40,18 L0,36 L0,0 z" fill-rule="nonzero" vector-effect="none"/></g><defs><clipPath id="clip110"><path d="M-287,-83 L32,-83 L32,17 L-287,17 L-287,-83 z"/></clipPath></defs><g clip-path="url(#clip110)" fill="#ffffff" fill-opacity="1" opacity="1" stroke="none" stroke-opacity="0" transform="matrix(1,0,0,1,287,83)"><path d="M23,14 L7,14 C3.13401,14 0,10.866 0,7 C0,3.13401 3.13401,0 7,0 L23,0 C26.866,0 30,3.13401 30,7 C30,10.866 26.866,14 23,14 z" fill-rule="nonzero" vector-effect="none"/></g><defs><clipPath id="clip114"><path d="M-15,-7 L15,-7 L15,7 L-15,7 L-15,-7 z"/></clipPath></defs><g clip-path="url(#clip114)" fill="none" opacity="1" stroke="#000000" stroke-linecap="butt" stroke-linejoin="miter" stroke-miterlimit="2" stroke-opacity="1" stroke-width="1" transform="matrix(1,0,0,1,302,90)"><text fill="#000000" fill-opacity="1" font-family="Arial" font-size="10" font-style="normal" font-weight="400" stroke="none" textLength="5.54688" x="-2.76562" xml:space="preserve" y="3.5">1</text></g><defs><clipPath id="clip119"><path d="M-287.5,-83.5 L31.5,-83.5 L31.5,16.5 L-287.5,16.5 L-287.5,-83.5 z"/></clipPath></defs><g clip-path="url(#clip119)" fill="none" opacity="1" stroke="#000000" stroke-linecap="butt" stroke-linejoin="miter" stroke-miterlimit="2" stroke-opacity="1" stroke-width="1" transform="matrix(1,0,0,1,287.5,83.5)"><path d="M23,14 L7,14 C3.13401,14 0,10.866 0,7 C0,3.13401 3.13401,0 7,0 L23,0 C26.866,0 30,3.13401 30,7 C30,10.866 26.866,14 23,14 z" fill-rule="nonzero" vector-effect="none"/></g><defs><clipPath id="clip125"><path d="M0,0 L20,0 L20,14 L0,14 L0,0 z"/></clipPath></defs><g clip-path="url(#clip125)" fill="none" opacity="1" stroke="#000000" stroke-linecap="square" stroke-linejoin="bevel" stroke-opacity="1" stroke-width="1" transform="matrix(1,0,0,1,292.117,67)"><text fill="#000000" fill-opacity="1" font-family="Arial" font-size="10" font-style="normal" font-weight="400" stroke="none" textLength="17.7656" x="1" xml:space="preserve" y="10">R_s</text></g><defs><clipPath id="clip133"><path d="M-2,-13 L317,-13 L317,87 L-2,87 L-2,-13 z"/></clipPath></defs><g clip-path="url(#clip133)" fill="#ffffff" fill-opacity="1" opacity="1" stroke="none" stroke-opacity="0" transform="matrix(1,0,0,1,2,13)"><path d="M7,0 L23,0 C26.866,0 30,3.13401 30,7 C30,10.866 26.866,14 23,14 L7,14 C3.13401,14 0,10.866 0,7 C0,3.13401 3.13401,0 7,0 z" fill-rule="nonzero" vector-effect="none"/></g><defs><clipPath id="clip137"><path d="M-15,-7 L15,-7 L15,7 L-15,7 L-15,-7 z"/></clipPath></defs><g clip-path="url(#clip137)" fill="none" opacity="1" stroke="#000000" stroke-linecap="butt" stroke-linejoin="miter" stroke-miterlimit="2" stroke-opacity="1" stroke-width="1" transform="matrix(1,0,0,1,17,20)"><text fill="#000000" fill-opacity="1" font-family="Arial" font-size="10" font-style="normal" font-weight="400" stroke="none" textLength="5.54688" x="-2.76562" xml:space="preserve" y="3.5">2</text></g><defs><clipPath id="clip142"><path d="M-2.5,-13.5 L316.5,-13.5 L316.5,86.5 L-2.5,86.5 L-2.5,-13.5 z"/></clipPath></defs><g clip-path="url(#clip142)" fill="none" opacity="1" stroke="#000000" stroke-linecap="butt" stroke-linejoin="miter" stroke-miterlimit="2" stroke-opacity="1" stroke-width="1" transform="matrix(1,0,0,1,2.5,13.5)"><path d="M7,0 L23,0 C26.866,0 30,3.13401 30,7 C30,10.866 26.866,14 23,14 L7,14 C3.13401,14 0,10.866 0,7 C0,3.13401 3.13401,0 7,0 z" fill-rule="nonzero" vector-effect="none"/></g><defs><clipPath id="clip148"><path d="M0,0 L25,0 L25,14 L0,14 L0,0 z"/></clipPath></defs><g clip-path="url(#clip148)" fill="none" opacity="1" stroke="#000000" stroke-linecap="square" stroke-linejoin="bevel" stroke-opacity="1" stroke-width="1" transform="matrix(1,0,0,1,4.625,29)"><text fill="#000000" fill-opacity="1" font-family="Arial" font-size="10" font-style="normal" font-weight="400" stroke="none" textLength="22.75" x="1" xml:space="preserve" y="10">V_0s</text></g><defs><clipPath id="clip156"><path d="M-287,-13 L32,-13 L32,87 L-287,87 L-287,-13 z"/></clipPath></defs><g clip-path="url(#clip156)" fill="#ffffff" fill-opacity="1" opacity="1" stroke="none" stroke-opacity="0" transform="matrix(1,0,0,1,287,13)"><path d="M7,0 L23,0 C26.866,0 30,3.13401 30,7 C30,10.866 26.866,14 23,14 L7,14 C3.13401,14 0,10.866 0,7 C0,3.13401 3.13401,0 7,0 z" fill-rule="nonzero" vector-effect="none"/></g><defs><clipPath id="clip160"><path d="M-15,-7 L15,-7 L15,7 L-15,7 L-15,-7 z"/></clipPath></defs><g clip-path="url(#clip160)" fill="none" opacity="1" stroke="#000000" stroke-linecap="butt" stroke-linejoin="miter" stroke-miterlimit="2" stroke-opacity="1" stroke-width="1" transform="matrix(1,0,0,1,302,20)"><text fill="#000000" fill-opacity="1" font-family="Arial" font-size="10" font-style="normal" font-weight="400" stroke="none" textLength="5.54688" x="-2.76562" xml:space="preserve" y="3.5">1</text></g><defs><clipPath id="clip165"><path d="M-287.5,-13.5 L31.5,-13.5 L31.5,86.5 L-287.5,86.5 L-287.5,-13.5 z"/></clipPath></defs><g clip-path="url(#clip165)" fill="none" opacity="1" stroke="#000000" stroke-linecap="butt" stroke-linejoin="miter" stroke-miterlimit="2" stroke-opacity="1" stroke-width="1" transform="matrix(1,0,0,1,287.5,13.5)"><path d="M7,0 L23,0 C26.866,0 30,3.13401 30,7 C30,10.866 26.866,14 23,14 L7,14 C3.13401,14 0,10.866 0,7 C0,3.13401 3.13401,0 7,0 z" fill-rule="nonzero" vector-effect="none"/></g><defs><clipPath id="clip171"><path d="M0,0 L20,0 L20,14 L0,14 L0,0 z"/></clipPath></defs><g clip-path="url(#clip171)" fill="none" opacity="1" stroke="#000000" stroke-linecap="square" stroke-linejoin="bevel" stroke-opacity="1" stroke-width="1" transform="matrix(1,0,0,1,291.844,29)"><text fill="#000000" fill-opacity="1" font-family="Arial" font-size="10" font-style="normal" font-weight="400" stroke="none" textLength="18.3125" x="1" xml:space="preserve" y="10">i_0s</text></g><defs><clipPath id="clip181"><path d="M38,175 L357,175 L357,275 L38,275 L38,175 z"/></clipPath></defs><g clip-path="url(#clip181)" fill="none" opacity="1" stroke="#000000" stroke-linecap="butt" stroke-linejoin="miter" stroke-miterlimit="2" stroke-opacity="1" stroke-width="1" transform="matrix(1,0,0,1,-38,-175)"><path d="M260.5,195.5 L297.5,195.5" fill-rule="evenodd" vector-effect="none"/></g><defs><clipPath id="clip187"><path d="M0,0 L18,0 L18,12 L0,12 L0,0 z"/></clipPath></defs><g clip-path="url(#clip187)" fill="none" opacity="1" stroke="#000000" stroke-linecap="square" stroke-linejoin="bevel" stroke-opacity="1" stroke-width="1" transform="matrix(1,0,0,1,227,21.5)"><text fill="#000000" fill-opacity="1" font-family="Arial" font-size="9" font-style="normal" font-weight="400" stroke="none" textLength="16.4844" x="1" xml:space="preserve" y="9">i_0s</text></g><defs><clipPath id="clip195"><path d="M222,75 L-97,75 L-97,-25 L222,-25 L222,75 z"/></clipPath></defs><g clip-path="url(#clip195)" fill="#000000" fill-opacity="1" opacity="1" stroke="none" stroke-opacity="0" transform="matrix(-1,1.22465e-16,-1.22465e-16,-1,222,75)"><path d="M0,0 L-8,-4 L-8,4 L0,0 z" fill-rule="nonzero" vector-effect="none"/></g><defs><clipPath id="clip198"><path d="M38,175 L357,175 L357,275 L38,275 L38,175 z"/></clipPath></defs><g clip-path="url(#clip198)" fill="none" opacity="1" stroke="#000000" stroke-linecap="butt" stroke-linejoin="miter" stroke-miterlimit="2" stroke-opacity="1" stroke-width="1" transform="matrix(1,0,0,1,-38,-175)"><path d="M297.5,195.5 L297.5,250.5 L268.5,250.5" fill-rule="evenodd" vector-effect="none"/></g><defs><clipPath id="clip201"><path d="M-287,-20 L32,-20 L32,80 L-287,80 L-287,-20 z"/></clipPath></defs><g clip-path="url(#clip201)" fill="#000000" fill-opacity="1" opacity="1" stroke="none" stroke-opacity="0" transform="matrix(1,0,0,1,287,20)"><path d="M0,0 L-8,-4 L-8,4 L0,0 z" fill-rule="nonzero" vector-effect="none"/></g><defs><clipPath id="clip204"><path d="M38,175 L357,175 L357,275 L38,275 L38,175 z"/></clipPath></defs><g clip-path="url(#clip204)" fill="none" opacity="1" stroke="#000000" stroke-linecap="butt" stroke-linejoin="miter" stroke-miterlimit="2" stroke-opacity="1" stroke-width="1" transform="matrix(1,0,0,1,-38,-175)"><path d="M297.5,195.5 L317.5,195.5" fill-rule="evenodd" vector-effect="none"/></g><defs><clipPath id="clip207"><path d="M-259,-20 L60,-20 L60,80 L-259,80 L-259,-20 z"/></clipPath></defs><g clip-path="url(#clip207)" fill="#000000" fill-opacity="1" opacity="1" stroke="none" stroke-opacity="0" transform="matrix(1,0,0,1,259,20)"><path d="M3,0.5 C3,1.88071 1.88071,3 0.5,3 C-0.880712,3 -2,1.88071 -2,0.5 C-2,-0.880712 -0.880712,-2 0.5,-2 C1.88071,-2 3,-0.880712 3,0.5 z" fill-rule="evenodd" vector-effect="none"/></g><defs><clipPath id="clip210"><path d="M35,-82 L35,237 L-65,237 L-65,-82 L35,-82 z"/></clipPath></defs><g clip-path="url(#clip210)" fill="#000000" fill-opacity="1" opacity="1" stroke="none" stroke-opacity="0" transform="matrix(6.12323e-17,-1,1,6.12323e-17,82,35)"><path d="M0,0 L-8,-4 L-8,4 L0,0 z" fill-rule="nonzero" vector-effect="none"/></g><defs><clipPath id="clip213"><path d="M38,175 L357,175 L357,275 L38,275 L38,175 z"/></clipPath></defs><g clip-path="url(#clip213)" fill="none" opacity="1" stroke="#000000" stroke-linecap="butt" stroke-linejoin="miter" stroke-miterlimit="2" stroke-opacity="1" stroke-width="1" transform="matrix(1,0,0,1,-38,-175)"><path d="M230.5,260.5 L120.5,260.5 L120.5,218.5" fill-rule="evenodd" vector-effect="none"/></g><defs><clipPath id="clip216"><path d="M-192,-20 L127,-20 L127,80 L-192,80 L-192,-20 z"/></clipPath></defs><g clip-path="url(#clip216)" fill="#000000" fill-opacity="1" opacity="1" stroke="none" stroke-opacity="0" transform="matrix(1,0,0,1,192,20)"><path d="M0,0 L-8,-4 L-8,4 L0,0 z" fill-rule="nonzero" vector-effect="none"/></g><defs><clipPath id="clip219"><path d="M38,175 L357,175 L357,275 L38,275 L38,175 z"/></clipPath></defs><g clip-path="url(#clip219)" fill="none" opacity="1" stroke="#000000" stroke-linecap="butt" stroke-linejoin="miter" stroke-miterlimit="2" stroke-opacity="1" stroke-width="1" transform="matrix(1,0,0,1,-38,-175)"><path d="M195.5,195.5 L222.5,195.5" fill-rule="evenodd" vector-effect="none"/></g><defs><clipPath id="clip222"><path d="M-117,-20 L202,-20 L202,80 L-117,80 L-117,-20 z"/></clipPath></defs><g clip-path="url(#clip222)" fill="#000000" fill-opacity="1" opacity="1" stroke="none" stroke-opacity="0" transform="matrix(1,0,0,1,117,20)"><path d="M0,0 L-8,-4 L-8,4 L0,0 z" fill-rule="nonzero" vector-effect="none"/></g><defs><clipPath id="clip225"><path d="M38,175 L357,175 L357,275 L38,275 L38,175 z"/></clipPath></defs><g clip-path="url(#clip225)" fill="none" opacity="1" stroke="#000000" stroke-linecap="butt" stroke-linejoin="miter" stroke-miterlimit="2" stroke-opacity="1" stroke-width="1" transform="matrix(1,0,0,1,-38,-175)"><path d="M135.5,195.5 L147.5,195.5" fill-rule="evenodd" vector-effect="none"/></g><defs><clipPath id="clip228"><path d="M222,90 L-97,90 L-97,-10 L222,-10 L222,90 z"/></clipPath></defs><g clip-path="url(#clip228)" fill="#000000" fill-opacity="1" opacity="1" stroke="none" stroke-opacity="0" transform="matrix(-1,1.22465e-16,-1.22465e-16,-1,222,90)"><path d="M0,0 L-8,-4 L-8,4 L0,0 z" fill-rule="nonzero" vector-effect="none"/></g><defs><clipPath id="clip231"><path d="M38,175 L357,175 L357,275 L38,275 L38,175 z"/></clipPath></defs><g clip-path="url(#clip231)" fill="none" opacity="1" stroke="#000000" stroke-linecap="butt" stroke-linejoin="miter" stroke-miterlimit="2" stroke-opacity="1" stroke-width="1" transform="matrix(1,0,0,1,-38,-175)"><path d="M325.5,265.5 L268.5,265.5" fill-rule="evenodd" vector-effect="none"/></g><defs><clipPath id="clip234"><path d="M-67,-20 L252,-20 L252,80 L-67,80 L-67,-20 z"/></clipPath></defs><g clip-path="url(#clip234)" fill="#000000" fill-opacity="1" opacity="1" stroke="none" stroke-opacity="0" transform="matrix(1,0,0,1,67,20)"><path d="M0,0 L-8,-4 L-8,4 L0,0 z" fill-rule="nonzero" vector-effect="none"/></g><defs><clipPath id="clip237"><path d="M38,175 L357,175 L357,275 L38,275 L38,175 z"/></clipPath></defs><g clip-path="url(#clip237)" fill="none" opacity="1" stroke="#000000" stroke-linecap="butt" stroke-linejoin="miter" stroke-miterlimit="2" stroke-opacity="1" stroke-width="1" transform="matrix(1,0,0,1,-38,-175)"><path d="M70.5,195.5 L97.5,195.5" fill-rule="evenodd" vector-effect="none"/></g></g><!--generated on windows @ 2024-05-15 00:22:02 Hora estándar de Argentina--></svg>
