<?xml version="1.0" encoding="UTF-8"?><svg width="100.277mm" height="29.8979mm" viewBox="0 0 379 113" xmlns="http://www.w3.org/2000/svg" xmlns:xlink="http://www.w3.org/1999/xlink"><g fill="none" stroke="black" stroke-width="1" fill-rule="evenodd" stroke-linecap="square" stroke-linejoin="bevel"><g clip-path="none" fill="#ffffff" fill-opacity="1" opacity="1" stroke="none" stroke-opacity="0" transform="matrix(1,0,0,1,0,0)"><path d="M0,0 L379,0 L379,113 L0,113 L0,0 z" fill-rule="evenodd" vector-effect="none"/></g><defs><clipPath id="clip3"><path d="M-192,-3 L187,-3 L187,110 L-192,110 L-192,-3 z"/></clipPath></defs><g clip-path="url(#clip3)" fill="#ffffff" fill-opacity="1" opacity="1" stroke="none" stroke-opacity="0" transform="matrix(1,0,0,1,192,3)"><path d="M40,20 C40,31.0457 31.0457,40 20,40 C8.95431,40 0,31.0457 0,20 C0,8.95431 8.95431,0 20,0 C31.0457,0 40,8.95431 40,20 z" fill-rule="nonzero" vector-effect="none"/></g><defs><clipPath id="clip7"><path d="M210,45 L250,45 L250,85 L210,85 L210,45 z"/></clipPath></defs><g clip-path="url(#clip7)" fill="none" opacity="1" stroke="#000000" stroke-linecap="butt" stroke-linejoin="miter" stroke-miterlimit="2" stroke-opacity="1" stroke-width="1" transform="matrix(1,0,0,1,-17.5,-41.5)"><polyline fill="none" points="213,65 217,65" vector-effect="none"/></g><defs><clipPath id="clip8"><path d="M210,45 L250,45 L250,85 L210,85 L210,45 z"/></clipPath></defs><g clip-path="url(#clip8)" fill="none" opacity="1" stroke="#000000" stroke-linecap="butt" stroke-linejoin="miter" stroke-miterlimit="2" stroke-opacity="1" stroke-width="1" transform="matrix(1,0,0,1,-17.5,-41.5)"><polyline fill="none" points="215,63 215,67" vector-effect="none"/></g><defs><clipPath id="clip9"><path d="M210,45 L250,45 L250,85 L210,85 L210,45 z"/></clipPath></defs><g clip-path="url(#clip9)" fill="none" opacity="1" stroke="#000000" stroke-linecap="butt" stroke-linejoin="miter" stroke-miterlimit="2" stroke-opacity="1" stroke-width="1" transform="matrix(1,0,0,1,-17.5,-41.5)"><polyline fill="none" points="228,80 232,80" vector-effect="none"/></g><defs><clipPath id="clip10"><path d="M210,45 L250,45 L250,85 L210,85 L210,45 z"/></clipPath></defs><g clip-path="url(#clip10)" fill="none" opacity="1" stroke="#000000" stroke-linecap="butt" stroke-linejoin="miter" stroke-miterlimit="2" stroke-opacity="1" stroke-width="1" transform="matrix(1,0,0,1,-17.5,-41.5)"><polyline fill="none" points="230,78 230,82" vector-effect="none"/></g><defs><clipPath id="clip15"><path d="M-192.5,-3.5 L186.5,-3.5 L186.5,109.5 L-192.5,109.5 L-192.5,-3.5 z"/></clipPath></defs><g clip-path="url(#clip15)" fill="none" opacity="1" stroke="#000000" stroke-linecap="butt" stroke-linejoin="miter" stroke-miterlimit="2" stroke-opacity="1" stroke-width="1" transform="matrix(1,0,0,1,192.5,3.5)"><path d="M40,20 C40,31.0457 31.0457,40 20,40 C8.95431,40 0,31.0457 0,20 C0,8.95431 8.95431,0 20,0 C31.0457,0 40,8.95431 40,20 z" fill-rule="nonzero" vector-effect="none"/></g><defs><clipPath id="clip18"><path d="M-52,-65 L327,-65 L327,48 L-52,48 L-52,-65 z"/></clipPath></defs><g clip-path="url(#clip18)" fill="#ffffff" fill-opacity="1" opacity="1" stroke="none" stroke-opacity="0" transform="matrix(1,0,0,1,52,65)"><path d="M0,0 L30,0 L30,31 L0,31 L0,0 z" fill-rule="evenodd" vector-effect="none"/></g><defs><clipPath id="clip22"><path d="M70,107 L100,107 L100,138 L70,138 L70,107 z"/></clipPath></defs><g clip-path="url(#clip22)" fill="none" opacity="1" stroke="#000000" stroke-linecap="butt" stroke-linejoin="miter" stroke-miterlimit="2" stroke-opacity="1" stroke-width="1" transform="matrix(1,0,0,1,-17.5,-41.5)"><polyline fill="none" points="88,125 82,119" vector-effect="none"/></g><defs><clipPath id="clip23"><path d="M70,107 L100,107 L100,138 L70,138 L70,107 z"/></clipPath></defs><g clip-path="url(#clip23)" fill="none" opacity="1" stroke="#000000" stroke-linecap="butt" stroke-linejoin="miter" stroke-miterlimit="2" stroke-opacity="1" stroke-width="1" transform="matrix(1,0,0,1,-17.5,-41.5)"><polyline fill="none" points="88,119 82,125" vector-effect="none"/></g><defs><clipPath id="clip28"><path d="M-52.5,-65.5 L326.5,-65.5 L326.5,47.5 L-52.5,47.5 L-52.5,-65.5 z"/></clipPath></defs><g clip-path="url(#clip28)" fill="none" opacity="1" stroke="#000000" stroke-linecap="butt" stroke-linejoin="miter" stroke-miterlimit="2" stroke-opacity="1" stroke-width="1" transform="matrix(1,0,0,1,52.5,65.5)"><path d="M0,0 L30,0 L30,31 L0,31 L0,0 z" fill-rule="evenodd" vector-effect="none"/></g><defs><clipPath id="clip31"><path d="M-102,-65 L277,-65 L277,48 L-102,48 L-102,-65 z"/></clipPath></defs><g clip-path="url(#clip31)" fill="#ffffff" fill-opacity="1" opacity="1" stroke="none" stroke-opacity="0" transform="matrix(1,0,0,1,102,65)"><path d="M0,0 L65,18 L0,36 L0,0 z" fill-rule="nonzero" vector-effect="none"/></g><defs><clipPath id="clip35"><path d="M0,0 L65,0 L65,36 L0,36 L0,0 z"/></clipPath></defs><g clip-path="url(#clip35)" fill="none" opacity="1" stroke="none" stroke-opacity="0" transform="matrix(1,0,0,1,102,65)"><path d="M0,0 L65,18 L0,36 L0,0 z" fill-rule="nonzero" vector-effect="none"/></g><defs><clipPath id="clip45"><path d="M-5,-2 L42,-2 L42,32 L-5,32 L-5,-2 z"/></clipPath></defs><g clip-path="url(#clip45)" fill="#000000" fill-opacity="1" opacity="1" stroke="none" stroke-opacity="0" transform="matrix(1,0,0,1,109.555,68.9141)"><path d="M-2.5625,17.5781 L-2.5625,10.4219 L-1.60938,10.4219 L-1.60938,16.7344 L1.90625,16.7344 L1.90625,17.5781 L-2.5625,17.5781 M2.07813,19.5625 L2.07813,18.9375 L7.90625,18.9375 L7.90625,19.5625 L2.07813,19.5625 M11.8125,17.5781 L11.8125,16.9219 C11.4792,17.4427 10.9948,17.7031 10.3594,17.7031 C9.94271,17.7031 9.5599,17.5885 9.21094,17.3594 C8.86198,17.1302 8.59375,16.8099 8.40625,16.3984 C8.21875,15.987 8.125,15.5156 8.125,14.9844 C8.125,14.474 8.21094,14.0078 8.38281,13.5859 C8.55469,13.1641 8.8125,12.8411 9.15625,12.6172 C9.5,12.3932 9.88542,12.2813 10.3125,12.2813 C10.625,12.2813 10.9036,12.3464 11.1484,12.4766 C11.3932,12.6068 11.5938,12.776 11.75,12.9844 L11.75,10.4219 L12.625,10.4219 L12.625,17.5781 L11.8125,17.5781 M9.03125,14.9844 C9.03125,15.651 9.16927,16.1484 9.44531,16.4766 C9.72135,16.8047 10.0521,16.9688 10.4375,16.9688 C10.8229,16.9688 11.1484,16.8125 11.4141,16.5 C11.6797,16.1875 11.8125,15.7083 11.8125,15.0625 C11.8125,14.3542 11.6771,13.8333 11.4063,13.5 C11.1354,13.1667 10.8021,13 10.4063,13 C10.0104,13 9.68229,13.1589 9.42188,13.4766 C9.16146,13.7943 9.03125,14.2969 9.03125,14.9844 M13.6406,15.4219 L13.6406,14.5469 L16.3438,14.5469 L16.3438,15.4219 L13.6406,15.4219 M17.3906,17.5781 L17.3906,10.4219 L18.3438,10.4219 L18.3438,16.7344 L21.8594,16.7344 L21.8594,17.5781 L17.3906,17.5781 M22.0469,19.5625 L22.0469,18.9375 L27.875,18.9375 L27.875,19.5625 L22.0469,19.5625 M31.7188,19.5625 L31.7188,17.0313 C31.5833,17.2188 31.3906,17.3776 31.1406,17.5078 C30.8906,17.638 30.6302,17.7031 30.3594,17.7031 C29.7448,17.7031 29.2161,17.4557 28.7734,16.9609 C28.3307,16.4661 28.1094,15.7917 28.1094,14.9375 C28.1094,14.4167 28.1979,13.9505 28.375,13.5391 C28.5521,13.1276 28.8125,12.8151 29.1563,12.6016 C29.5,12.388 29.8802,12.2813 30.2969,12.2813 C30.9323,12.2813 31.4323,12.5469 31.7969,13.0781 L31.7969,12.3906 L32.5938,12.3906 L32.5938,19.5625 L31.7188,19.5625 M29,14.9688 C29,15.6354 29.1406,16.1354 29.4219,16.4688 C29.7031,16.8021 30.0417,16.9688 30.4375,16.9688 C30.8125,16.9688 31.1328,16.8099 31.3984,16.4922 C31.6641,16.1745 31.7969,15.6927 31.7969,15.0469 C31.7969,14.3594 31.6563,13.8411 31.375,13.4922 C31.0938,13.1432 30.7604,12.9688 30.375,12.9688 C29.9896,12.9688 29.6641,13.1302 29.3984,13.4531 C29.1328,13.776 29,14.2813 29,14.9688" fill-rule="nonzero" vector-effect="none"/></g><defs><clipPath id="clip65"><path d="M-102.5,-65.5 L276.5,-65.5 L276.5,47.5 L-102.5,47.5 L-102.5,-65.5 z"/></clipPath></defs><g clip-path="url(#clip65)" fill="none" opacity="1" stroke="#000000" stroke-linecap="butt" stroke-linejoin="miter" stroke-miterlimit="2" stroke-opacity="1" stroke-width="1" transform="matrix(1,0,0,1,102.5,65.5)"><path d="M0,0 L65,18 L0,36 L0,0 z" fill-rule="nonzero" vector-effect="none"/></g><defs><clipPath id="clip68"><path d="M-252,-5 L127,-5 L127,108 L-252,108 L-252,-5 z"/></clipPath></defs><g clip-path="url(#clip68)" fill="#ffffff" fill-opacity="1" opacity="1" stroke="none" stroke-opacity="0" transform="matrix(1,0,0,1,252,5)"><path d="M0,0 L60,18 L0,36 L0,0 z" fill-rule="nonzero" vector-effect="none"/></g><defs><clipPath id="clip72"><path d="M0,0 L60,0 L60,36 L0,36 L0,0 z"/></clipPath></defs><g clip-path="url(#clip72)" fill="none" opacity="1" stroke="none" stroke-opacity="0" transform="matrix(1,0,0,1,252,5)"><path d="M0,0 L60,18 L0,36 L0,0 z" fill-rule="nonzero" vector-effect="none"/></g><defs><clipPath id="clip82"><path d="M-4,-2 L42,-2 L42,32 L-4,32 L-4,-2 z"/></clipPath></defs><g clip-path="url(#clip82)" fill="#000000" fill-opacity="1" opacity="1" stroke="none" stroke-opacity="0" transform="matrix(1,0,0,1,257.82,8.91406)"><path d="M-2.32813,15.6875 L-1.45313,15.5781 C-1.34896,16.0677 -1.17708,16.4245 -0.9375,16.6484 C-0.697917,16.8724 -0.401042,16.9844 -0.046875,16.9844 C0.369792,16.9844 0.71875,16.8411 1,16.5547 C1.28125,16.2682 1.42188,15.9115 1.42188,15.4844 C1.42188,15.0781 1.29167,14.7448 1.03125,14.4844 C0.770833,14.224 0.4375,14.0938 0.03125,14.0938 C-0.135417,14.0938 -0.34375,14.125 -0.59375,14.1875 L-0.5,13.4219 C-0.4375,13.4219 -0.390625,13.4219 -0.359375,13.4219 C0.015625,13.4219 0.354167,13.3255 0.65625,13.1328 C0.958333,12.9401 1.10938,12.6406 1.10938,12.2344 C1.10938,11.9115 1,11.6432 0.78125,11.4297 C0.5625,11.2161 0.28125,11.1094 -0.0625,11.1094 C-0.40625,11.1094 -0.692708,11.2161 -0.921875,11.4297 C-1.15104,11.6432 -1.29688,11.9688 -1.35938,12.4063 L-2.23438,12.25 C-2.13021,11.6563 -1.88802,11.1979 -1.50781,10.875 C-1.1276,10.5521 -0.65625,10.3906 -0.09375,10.3906 C0.302083,10.3906 0.664063,10.474 0.992188,10.6406 C1.32031,10.8073 1.57031,11.0365 1.74219,11.3281 C1.91406,11.6198 2,11.9271 2,12.25 C2,12.5625 1.91927,12.8438 1.75781,13.0938 C1.59635,13.3438 1.34896,13.5469 1.01563,13.7031 C1.44271,13.7969 1.77344,13.9974 2.00781,14.3047 C2.24219,14.612 2.35938,15 2.35938,15.4688 C2.35938,16.0938 2.13021,16.6224 1.67188,17.0547 C1.21354,17.487 0.640625,17.7031 -0.046875,17.7031 C-0.682292,17.7031 -1.20573,17.5156 -1.61719,17.1406 C-2.02865,16.7656 -2.26563,16.2813 -2.32813,15.6875 M3.10938,11.7344 L3.32813,11.0469 C3.84896,11.224 4.22917,11.3802 4.46875,11.5156 C4.40625,10.9219 4.36979,10.5156 4.35938,10.2969 L5.07813,10.2969 C5.06771,10.6198 5.02604,11.026 4.95313,11.5156 C5.29688,11.3385 5.68229,11.1823 6.10938,11.0469 L6.34375,11.7344 C5.92708,11.8698 5.52083,11.9583 5.125,12 C5.32292,12.1771 5.60417,12.4844 5.96875,12.9219 L5.375,13.3438 C5.1875,13.0833 4.96354,12.7344 4.70313,12.2969 C4.46354,12.7552 4.25521,13.1042 4.07813,13.3438 L3.5,12.9219 C3.875,12.4635 4.14583,12.1563 4.3125,12 C3.88542,11.9271 3.48438,11.8385 3.10938,11.7344 M7.45313,17.5781 L7.45313,10.4219 L10.1563,10.4219 C10.6354,10.4219 11,10.4427 11.25,10.4844 C11.6042,10.5469 11.8984,10.6589 12.1328,10.8203 C12.3672,10.9818 12.5573,11.2109 12.7031,11.5078 C12.849,11.8047 12.9219,12.1302 12.9219,12.4844 C12.9219,13.099 12.7292,13.6172 12.3438,14.0391 C11.9583,14.4609 11.2604,14.6719 10.25,14.6719 L8.40625,14.6719 L8.40625,17.5781 L7.45313,17.5781 M8.40625,13.8281 L10.25,13.8281 C10.8646,13.8281 11.3021,13.7135 11.5625,13.4844 C11.8229,13.2552 11.9531,12.9323 11.9531,12.5156 C11.9531,12.2135 11.8776,11.9583 11.7266,11.75 C11.5755,11.5417 11.375,11.401 11.125,11.3281 C10.9583,11.2865 10.6615,11.2656 10.2344,11.2656 L8.40625,11.2656 L8.40625,13.8281 M13.1875,19.5625 L13.1875,18.9375 L19.0156,18.9375 L19.0156,19.5625 L13.1875,19.5625 M19.5469,19.5625 L19.5469,12.3906 L20.3438,12.3906 L20.3438,13.0625 C20.5417,12.8021 20.7578,12.6068 20.9922,12.4766 C21.2266,12.3464 21.5156,12.2813 21.8594,12.2813 C22.2969,12.2813 22.6849,12.3932 23.0234,12.6172 C23.362,12.8411 23.6172,13.1615 23.7891,13.5781 C23.9609,13.9948 24.0469,14.4531 24.0469,14.9531 C24.0469,15.474 23.9531,15.9479 23.7656,16.375 C23.5781,16.8021 23.3021,17.1302 22.9375,17.3594 C22.5729,17.5885 22.1927,17.7031 21.7969,17.7031 C21.5052,17.7031 21.2422,17.6406 21.0078,17.5156 C20.7734,17.3906 20.5781,17.2344 20.4219,17.0469 L20.4219,19.5625 L19.5469,19.5625 M20.3438,15.0156 C20.3438,15.6823 20.4792,16.1745 20.75,16.4922 C21.0208,16.8099 21.349,16.9688 21.7344,16.9688 C22.1198,16.9688 22.4531,16.8047 22.7344,16.4766 C23.0156,16.1484 23.1563,15.6354 23.1563,14.9375 C23.1563,14.2813 23.0208,13.7891 22.75,13.4609 C22.4792,13.1328 22.151,12.9688 21.7656,12.9688 C21.3906,12.9688 21.0599,13.1432 20.7734,13.4922 C20.487,13.8411 20.3438,14.349 20.3438,15.0156 M24.4375,17.7031 L26.5156,10.2969 L27.2188,10.2969 L25.1406,17.7031 L24.4375,17.7031 M32.2344,16.7344 L32.2344,17.5781 L27.5,17.5781 C27.5,17.3698 27.5365,17.1667 27.6094,16.9688 C27.7344,16.6458 27.9271,16.3281 28.1875,16.0156 C28.4479,15.7031 28.8333,15.3438 29.3438,14.9375 C30.1146,14.2917 30.638,13.7839 30.9141,13.4141 C31.1901,13.0443 31.3281,12.6927 31.3281,12.3594 C31.3281,12.0052 31.2031,11.7109 30.9531,11.4766 C30.7031,11.2422 30.3802,11.125 29.9844,11.125 C29.5573,11.125 29.2161,11.25 28.9609,11.5 C28.7057,11.75 28.5781,12.099 28.5781,12.5469 L27.6719,12.4531 C27.7344,11.7865 27.9661,11.276 28.3672,10.9219 C28.7682,10.5677 29.3125,10.3906 30,10.3906 C30.6875,10.3906 31.2318,10.5807 31.6328,10.9609 C32.0339,11.3411 32.2344,11.8125 32.2344,12.375 C32.2344,12.6667 32.1745,12.9505 32.0547,13.2266 C31.9349,13.5026 31.7396,13.7943 31.4688,14.1016 C31.1979,14.4089 30.7448,14.8281 30.1094,15.3594 C29.5885,15.7969 29.2526,16.0964 29.1016,16.2578 C28.9505,16.4193 28.8281,16.5781 28.7344,16.7344 L32.2344,16.7344" fill-rule="nonzero" vector-effect="none"/></g><defs><clipPath id="clip102"><path d="M-252.5,-5.5 L126.5,-5.5 L126.5,107.5 L-252.5,107.5 L-252.5,-5.5 z"/></clipPath></defs><g clip-path="url(#clip102)" fill="none" opacity="1" stroke="#000000" stroke-linecap="butt" stroke-linejoin="miter" stroke-miterlimit="2" stroke-opacity="1" stroke-width="1" transform="matrix(1,0,0,1,252.5,5.5)"><path d="M0,0 L60,18 L0,36 L0,0 z" fill-rule="nonzero" vector-effect="none"/></g><defs><clipPath id="clip105"><path d="M-102,-2 L277,-2 L277,111 L-102,111 L-102,-2 z"/></clipPath></defs><g clip-path="url(#clip105)" fill="#ffffff" fill-opacity="1" opacity="1" stroke="none" stroke-opacity="0" transform="matrix(1,0,0,1,102,2)"><path d="M0,0 L70,21 L0,42 L0,0 z" fill-rule="nonzero" vector-effect="none"/></g><defs><clipPath id="clip109"><path d="M0,0 L70,0 L70,42 L0,42 L0,0 z"/></clipPath></defs><g clip-path="url(#clip109)" fill="none" opacity="1" stroke="none" stroke-opacity="0" transform="matrix(1,0,0,1,102,2)"><path d="M0,0 L70,21 L0,42 L0,0 z" fill-rule="nonzero" vector-effect="none"/></g><defs><clipPath id="clip119"><path d="M-10,-2 L42,-2 L42,32 L-10,32 L-10,-2 z"/></clipPath></defs><g clip-path="url(#clip119)" fill="#000000" fill-opacity="1" opacity="1" stroke="none" stroke-opacity="0" transform="matrix(1,0,0,1,112.82,8.91406)"><path d="M-7.65625,17.5781 L-7.65625,10.4219 L-6.78125,10.4219 L-6.78125,17.5781 L-7.65625,17.5781 M-2.03125,16.9375 C-2.35417,17.2188 -2.66667,17.4167 -2.96875,17.5313 C-3.27083,17.6458 -3.59375,17.7031 -3.9375,17.7031 C-4.51042,17.7031 -4.95052,17.5625 -5.25781,17.2813 C-5.5651,17 -5.71875,16.6406 -5.71875,16.2031 C-5.71875,15.9531 -5.66146,15.724 -5.54688,15.5156 C-5.43229,15.3073 -5.28125,15.138 -5.09375,15.0078 C-4.90625,14.8776 -4.69271,14.7813 -4.45313,14.7188 C-4.28646,14.6771 -4.02604,14.6354 -3.67188,14.5938 C-2.96354,14.5104 -2.44271,14.4063 -2.10938,14.2813 C-2.10938,14.1667 -2.10938,14.0938 -2.10938,14.0625 C-2.10938,13.6979 -2.19271,13.4427 -2.35938,13.2969 C-2.57813,13.099 -2.91146,13 -3.35938,13 C-3.76563,13 -4.06771,13.0729 -4.26563,13.2188 C-4.46354,13.3646 -4.60938,13.6198 -4.70313,13.9844 L-5.5625,13.875 C-5.48958,13.5 -5.36198,13.2005 -5.17969,12.9766 C-4.9974,12.7526 -4.73698,12.5807 -4.39844,12.4609 C-4.0599,12.3411 -3.66667,12.2813 -3.21875,12.2813 C-2.78125,12.2813 -2.42448,12.3333 -2.14844,12.4375 C-1.8724,12.5417 -1.66927,12.6719 -1.53906,12.8281 C-1.40885,12.9844 -1.31771,13.1823 -1.26563,13.4219 C-1.23438,13.5677 -1.21875,13.8385 -1.21875,14.2344 L-1.21875,15.4063 C-1.21875,16.2188 -1.20052,16.7344 -1.16406,16.9531 C-1.1276,17.1719 -1.05208,17.3802 -0.9375,17.5781 L-1.85938,17.5781 C-1.95313,17.3906 -2.01042,17.1771 -2.03125,16.9375 M-2.10938,14.9688 C-2.43229,15.1042 -2.91146,15.2188 -3.54688,15.3125 C-3.90104,15.3646 -4.15365,15.4219 -4.30469,15.4844 C-4.45573,15.5469 -4.57292,15.6406 -4.65625,15.7656 C-4.73958,15.8906 -4.78125,16.0313 -4.78125,16.1875 C-4.78125,16.4167 -4.69271,16.6094 -4.51563,16.7656 C-4.33854,16.9219 -4.07813,17 -3.73438,17 C-3.39063,17 -3.08854,16.9271 -2.82813,16.7813 C-2.56771,16.6354 -2.375,16.4323 -2.25,16.1719 C-2.15625,15.974 -2.10938,15.6823 -2.10938,15.2969 L-2.10938,14.9688 M0.125,17.5781 L0.125,12.3906 L0.921875,12.3906 L0.921875,13.125 C1.07813,12.8646 1.29167,12.6589 1.5625,12.5078 C1.83333,12.3568 2.14063,12.2813 2.48438,12.2813 C2.86979,12.2813 3.1849,12.3594 3.42969,12.5156 C3.67448,12.6719 3.84896,12.8958 3.95313,13.1875 C4.35938,12.5833 4.89063,12.2813 5.54688,12.2813 C6.06771,12.2813 6.46615,12.4219 6.74219,12.7031 C7.01823,12.9844 7.15625,13.4219 7.15625,14.0156 L7.15625,17.5781 L6.28125,17.5781 L6.28125,14.3125 C6.28125,13.9583 6.2526,13.7031 6.19531,13.5469 C6.13802,13.3906 6.03385,13.2656 5.88281,13.1719 C5.73177,13.0781 5.55729,13.0313 5.35938,13.0313 C4.99479,13.0313 4.69271,13.1536 4.45313,13.3984 C4.21354,13.6432 4.09375,14.0313 4.09375,14.5625 L4.09375,17.5781 L3.20313,17.5781 L3.20313,14.2031 C3.20313,13.8177 3.13281,13.526 2.99219,13.3281 C2.85156,13.1302 2.61979,13.0313 2.29688,13.0313 C2.04688,13.0313 1.81771,13.0964 1.60938,13.2266 C1.40104,13.3568 1.2474,13.5469 1.14844,13.7969 C1.04948,14.0469 1,14.4115 1,14.8906 L1,17.5781 L0.125,17.5781 M9.25,17.5781 L8.4375,17.5781 L8.4375,10.4219 L9.3125,10.4219 L9.3125,12.9688 C9.6875,12.5104 10.1615,12.2813 10.7344,12.2813 C11.0573,12.2813 11.3594,12.3438 11.6406,12.4688 C11.9219,12.5938 12.1563,12.7734 12.3438,13.0078 C12.5313,13.2422 12.6771,13.5234 12.7813,13.8516 C12.8854,14.1797 12.9375,14.5313 12.9375,14.9063 C12.9375,15.7917 12.7161,16.4792 12.2734,16.9688 C11.8307,17.4583 11.3021,17.7031 10.6875,17.7031 C10.0833,17.7031 9.60417,17.4427 9.25,16.9219 L9.25,17.5781 M9.23438,14.9531 C9.23438,15.5677 9.32292,16.0156 9.5,16.2969 C9.77083,16.7448 10.1458,16.9688 10.625,16.9688 C11,16.9688 11.3281,16.8021 11.6094,16.4688 C11.8906,16.1354 12.0313,15.6406 12.0313,14.9844 C12.0313,14.3073 11.8984,13.8073 11.6328,13.4844 C11.3672,13.1615 11.0417,13 10.6563,13 C10.2708,13 9.9375,13.1667 9.65625,13.5 C9.375,13.8333 9.23438,14.3177 9.23438,14.9531 M17.3594,17.5781 L17.3594,16.9219 C17.026,17.4427 16.5417,17.7031 15.9063,17.7031 C15.4896,17.7031 15.1068,17.5885 14.7578,17.3594 C14.4089,17.1302 14.1406,16.8099 13.9531,16.3984 C13.7656,15.987 13.6719,15.5156 13.6719,14.9844 C13.6719,14.474 13.7578,14.0078 13.9297,13.5859 C14.1016,13.1641 14.3594,12.8411 14.7031,12.6172 C15.0469,12.3932 15.4323,12.2813 15.8594,12.2813 C16.1719,12.2813 16.4505,12.3464 16.6953,12.4766 C16.9401,12.6068 17.1406,12.776 17.2969,12.9844 L17.2969,10.4219 L18.1719,10.4219 L18.1719,17.5781 L17.3594,17.5781 M14.5781,14.9844 C14.5781,15.651 14.7161,16.1484 14.9922,16.4766 C15.2682,16.8047 15.599,16.9688 15.9844,16.9688 C16.3698,16.9688 16.6953,16.8125 16.9609,16.5 C17.2266,16.1875 17.3594,15.7083 17.3594,15.0625 C17.3594,14.3542 17.224,13.8333 16.9531,13.5 C16.6823,13.1667 16.349,13 15.9531,13 C15.5573,13 15.2292,13.1589 14.9688,13.4766 C14.7083,13.7943 14.5781,14.2969 14.5781,14.9844 M22.9219,16.9375 C22.599,17.2188 22.2865,17.4167 21.9844,17.5313 C21.6823,17.6458 21.3594,17.7031 21.0156,17.7031 C20.4427,17.7031 20.0026,17.5625 19.6953,17.2813 C19.388,17 19.2344,16.6406 19.2344,16.2031 C19.2344,15.9531 19.2917,15.724 19.4063,15.5156 C19.5208,15.3073 19.6719,15.138 19.8594,15.0078 C20.0469,14.8776 20.2604,14.7813 20.5,14.7188 C20.6667,14.6771 20.9271,14.6354 21.2813,14.5938 C21.9896,14.5104 22.5104,14.4063 22.8438,14.2813 C22.8438,14.1667 22.8438,14.0938 22.8438,14.0625 C22.8438,13.6979 22.7604,13.4427 22.5938,13.2969 C22.375,13.099 22.0417,13 21.5938,13 C21.1875,13 20.8854,13.0729 20.6875,13.2188 C20.4896,13.3646 20.3438,13.6198 20.25,13.9844 L19.3906,13.875 C19.4635,13.5 19.5911,13.2005 19.7734,12.9766 C19.9557,12.7526 20.2161,12.5807 20.5547,12.4609 C20.8932,12.3411 21.2865,12.2813 21.7344,12.2813 C22.1719,12.2813 22.5286,12.3333 22.8047,12.4375 C23.0807,12.5417 23.2839,12.6719 23.4141,12.8281 C23.5443,12.9844 23.6354,13.1823 23.6875,13.4219 C23.7188,13.5677 23.7344,13.8385 23.7344,14.2344 L23.7344,15.4063 C23.7344,16.2188 23.7526,16.7344 23.7891,16.9531 C23.8255,17.1719 23.901,17.3802 24.0156,17.5781 L23.0938,17.5781 C23,17.3906 22.9427,17.1771 22.9219,16.9375 M22.8438,14.9688 C22.5208,15.1042 22.0417,15.2188 21.4063,15.3125 C21.0521,15.3646 20.7995,15.4219 20.6484,15.4844 C20.4974,15.5469 20.3802,15.6406 20.2969,15.7656 C20.2135,15.8906 20.1719,16.0313 20.1719,16.1875 C20.1719,16.4167 20.2604,16.6094 20.4375,16.7656 C20.6146,16.9219 20.875,17 21.2188,17 C21.5625,17 21.8646,16.9271 22.125,16.7813 C22.3854,16.6354 22.5781,16.4323 22.7031,16.1719 C22.7969,15.974 22.8438,15.6823 22.8438,15.2969 L22.8438,14.9688 M24.2656,19.5625 L24.2656,18.9375 L30.0938,18.9375 L30.0938,19.5625 L24.2656,19.5625 M30.625,17.5781 L30.625,12.3906 L31.4219,12.3906 L31.4219,13.125 C31.5781,12.8646 31.7917,12.6589 32.0625,12.5078 C32.3333,12.3568 32.6406,12.2813 32.9844,12.2813 C33.3698,12.2813 33.6849,12.3594 33.9297,12.5156 C34.1745,12.6719 34.349,12.8958 34.4531,13.1875 C34.8594,12.5833 35.3906,12.2813 36.0469,12.2813 C36.5677,12.2813 36.9661,12.4219 37.2422,12.7031 C37.5182,12.9844 37.6563,13.4219 37.6563,14.0156 L37.6563,17.5781 L36.7813,17.5781 L36.7813,14.3125 C36.7813,13.9583 36.7526,13.7031 36.6953,13.5469 C36.638,13.3906 36.5339,13.2656 36.3828,13.1719 C36.2318,13.0781 36.0573,13.0313 35.8594,13.0313 C35.4948,13.0313 35.1927,13.1536 34.9531,13.3984 C34.7135,13.6432 34.5938,14.0313 34.5938,14.5625 L34.5938,17.5781 L33.7031,17.5781 L33.7031,14.2031 C33.7031,13.8177 33.6328,13.526 33.4922,13.3281 C33.3516,13.1302 33.1198,13.0313 32.7969,13.0313 C32.5469,13.0313 32.3177,13.0964 32.1094,13.2266 C31.901,13.3568 31.7474,13.5469 31.6484,13.7969 C31.5495,14.0469 31.5,14.4115 31.5,14.8906 L31.5,17.5781 L30.625,17.5781" fill-rule="nonzero" vector-effect="none"/></g><defs><clipPath id="clip139"><path d="M-102.5,-2.5 L276.5,-2.5 L276.5,110.5 L-102.5,110.5 L-102.5,-2.5 z"/></clipPath></defs><g clip-path="url(#clip139)" fill="none" opacity="1" stroke="#000000" stroke-linecap="butt" stroke-linejoin="miter" stroke-miterlimit="2" stroke-opacity="1" stroke-width="1" transform="matrix(1,0,0,1,102.5,2.5)"><path d="M0,0 L70,21 L0,42 L0,0 z" fill-rule="nonzero" vector-effect="none"/></g><defs><clipPath id="clip142"><path d="M-2,-16 L377,-16 L377,97 L-2,97 L-2,-16 z"/></clipPath></defs><g clip-path="url(#clip142)" fill="#ffffff" fill-opacity="1" opacity="1" stroke="none" stroke-opacity="0" transform="matrix(1,0,0,1,2,16)"><path d="M7,0 L23,0 C26.866,0 30,3.13401 30,7 C30,10.866 26.866,14 23,14 L7,14 C3.13401,14 0,10.866 0,7 C0,3.13401 3.13401,0 7,0 z" fill-rule="nonzero" vector-effect="none"/></g><defs><clipPath id="clip146"><path d="M-15,-7 L15,-7 L15,7 L-15,7 L-15,-7 z"/></clipPath></defs><g clip-path="url(#clip146)" fill="none" opacity="1" stroke="#000000" stroke-linecap="butt" stroke-linejoin="miter" stroke-miterlimit="2" stroke-opacity="1" stroke-width="1" transform="matrix(1,0,0,1,17,23)"><text fill="#000000" fill-opacity="1" font-family="Arial" font-size="10" font-style="normal" font-weight="400" stroke="none" textLength="5.54688" x="-2.76562" xml:space="preserve" y="3.5">1</text></g><defs><clipPath id="clip151"><path d="M-2.5,-16.5 L376.5,-16.5 L376.5,96.5 L-2.5,96.5 L-2.5,-16.5 z"/></clipPath></defs><g clip-path="url(#clip151)" fill="none" opacity="1" stroke="#000000" stroke-linecap="butt" stroke-linejoin="miter" stroke-miterlimit="2" stroke-opacity="1" stroke-width="1" transform="matrix(1,0,0,1,2.5,16.5)"><path d="M7,0 L23,0 C26.866,0 30,3.13401 30,7 C30,10.866 26.866,14 23,14 L7,14 C3.13401,14 0,10.866 0,7 C0,3.13401 3.13401,0 7,0 z" fill-rule="nonzero" vector-effect="none"/></g><defs><clipPath id="clip157"><path d="M0,0 L20,0 L20,14 L0,14 L0,0 z"/></clipPath></defs><g clip-path="url(#clip157)" fill="none" opacity="1" stroke="#000000" stroke-linecap="square" stroke-linejoin="bevel" stroke-opacity="1" stroke-width="1" transform="matrix(1,0,0,1,6.84375,32)"><text fill="#000000" fill-opacity="1" font-family="Arial" font-size="10" font-style="normal" font-weight="400" stroke="none" textLength="18.3125" x="1" xml:space="preserve" y="10">i_qs</text></g><defs><clipPath id="clip165"><path d="M-2,-81 L377,-81 L377,32 L-2,32 L-2,-81 z"/></clipPath></defs><g clip-path="url(#clip165)" fill="#ffffff" fill-opacity="1" opacity="1" stroke="none" stroke-opacity="0" transform="matrix(1,0,0,1,2,81)"><path d="M7,0 L23,0 C26.866,0 30,3.13401 30,7 C30,10.866 26.866,14 23,14 L7,14 C3.13401,14 0,10.866 0,7 C0,3.13401 3.13401,0 7,0 z" fill-rule="nonzero" vector-effect="none"/></g><defs><clipPath id="clip169"><path d="M-15,-7 L15,-7 L15,7 L-15,7 L-15,-7 z"/></clipPath></defs><g clip-path="url(#clip169)" fill="none" opacity="1" stroke="#000000" stroke-linecap="butt" stroke-linejoin="miter" stroke-miterlimit="2" stroke-opacity="1" stroke-width="1" transform="matrix(1,0,0,1,17,88)"><text fill="#000000" fill-opacity="1" font-family="Arial" font-size="10" font-style="normal" font-weight="400" stroke="none" textLength="5.54688" x="-2.76562" xml:space="preserve" y="3.5">2</text></g><defs><clipPath id="clip174"><path d="M-2.5,-81.5 L376.5,-81.5 L376.5,31.5 L-2.5,31.5 L-2.5,-81.5 z"/></clipPath></defs><g clip-path="url(#clip174)" fill="none" opacity="1" stroke="#000000" stroke-linecap="butt" stroke-linejoin="miter" stroke-miterlimit="2" stroke-opacity="1" stroke-width="1" transform="matrix(1,0,0,1,2.5,81.5)"><path d="M7,0 L23,0 C26.866,0 30,3.13401 30,7 C30,10.866 26.866,14 23,14 L7,14 C3.13401,14 0,10.866 0,7 C0,3.13401 3.13401,0 7,0 z" fill-rule="nonzero" vector-effect="none"/></g><defs><clipPath id="clip180"><path d="M0,0 L21,0 L21,14 L0,14 L0,0 z"/></clipPath></defs><g clip-path="url(#clip180)" fill="none" opacity="1" stroke="#000000" stroke-linecap="square" stroke-linejoin="bevel" stroke-opacity="1" stroke-width="1" transform="matrix(1,0,0,1,6.57031,97)"><text fill="#000000" fill-opacity="1" font-family="Arial" font-size="10" font-style="normal" font-weight="400" stroke="none" textLength="18.8594" x="1" xml:space="preserve" y="10">I_ds</text></g><defs><clipPath id="clip188"><path d="M-347,-16 L32,-16 L32,97 L-347,97 L-347,-16 z"/></clipPath></defs><g clip-path="url(#clip188)" fill="#ffffff" fill-opacity="1" opacity="1" stroke="none" stroke-opacity="0" transform="matrix(1,0,0,1,347,16)"><path d="M7,0 L23,0 C26.866,0 30,3.13401 30,7 C30,10.866 26.866,14 23,14 L7,14 C3.13401,14 0,10.866 0,7 C0,3.13401 3.13401,0 7,0 z" fill-rule="nonzero" vector-effect="none"/></g><defs><clipPath id="clip192"><path d="M-15,-7 L15,-7 L15,7 L-15,7 L-15,-7 z"/></clipPath></defs><g clip-path="url(#clip192)" fill="none" opacity="1" stroke="#000000" stroke-linecap="butt" stroke-linejoin="miter" stroke-miterlimit="2" stroke-opacity="1" stroke-width="1" transform="matrix(1,0,0,1,362,23)"><text fill="#000000" fill-opacity="1" font-family="Arial" font-size="10" font-style="normal" font-weight="400" stroke="none" textLength="5.54688" x="-2.76562" xml:space="preserve" y="3.5">1</text></g><defs><clipPath id="clip197"><path d="M-347.5,-16.5 L31.5,-16.5 L31.5,96.5 L-347.5,96.5 L-347.5,-16.5 z"/></clipPath></defs><g clip-path="url(#clip197)" fill="none" opacity="1" stroke="#000000" stroke-linecap="butt" stroke-linejoin="miter" stroke-miterlimit="2" stroke-opacity="1" stroke-width="1" transform="matrix(1,0,0,1,347.5,16.5)"><path d="M7,0 L23,0 C26.866,0 30,3.13401 30,7 C30,10.866 26.866,14 23,14 L7,14 C3.13401,14 0,10.866 0,7 C0,3.13401 3.13401,0 7,0 z" fill-rule="nonzero" vector-effect="none"/></g><defs><clipPath id="clip203"><path d="M0,0 L22,0 L22,14 L0,14 L0,0 z"/></clipPath></defs><g clip-path="url(#clip203)" fill="none" opacity="1" stroke="#000000" stroke-linecap="square" stroke-linejoin="bevel" stroke-opacity="1" stroke-width="1" transform="matrix(1,0,0,1,351.016,32)"><text fill="#000000" fill-opacity="1" font-family="Arial" font-size="10" font-style="normal" font-weight="400" stroke="none" textLength="19.9688" x="1" xml:space="preserve" y="10">T_m</text></g><defs><clipPath id="clip211"><path d="M-102,-83 L277,-83 L277,30 L-102,30 L-102,-83 z"/></clipPath></defs><g clip-path="url(#clip211)" fill="#000000" fill-opacity="1" opacity="1" stroke="none" stroke-opacity="0" transform="matrix(1,0,0,1,102,83)"><path d="M0,0 L-8,-4 L-8,4 L0,0 z" fill-rule="nonzero" vector-effect="none"/></g><defs><clipPath id="clip214"><path d="M18,42 L397,42 L397,155 L18,155 L18,42 z"/></clipPath></defs><g clip-path="url(#clip214)" fill="none" opacity="1" stroke="#000000" stroke-linecap="butt" stroke-linejoin="miter" stroke-miterlimit="2" stroke-opacity="1" stroke-width="1" transform="matrix(1,0,0,1,-18,-42)"><path d="M100.5,125.5 L112.5,125.5" fill-rule="evenodd" vector-effect="none"/></g><defs><clipPath id="clip217"><path d="M43,-212 L43,167 L-70,167 L-70,-212 L43,-212 z"/></clipPath></defs><g clip-path="url(#clip217)" fill="#000000" fill-opacity="1" opacity="1" stroke="none" stroke-opacity="0" transform="matrix(6.12323e-17,-1,1,6.12323e-17,212,43)"><path d="M0,0 L-8,-4 L-8,4 L0,0 z" fill-rule="nonzero" vector-effect="none"/></g><defs><clipPath id="clip220"><path d="M18,42 L397,42 L397,155 L18,155 L18,42 z"/></clipPath></defs><g clip-path="url(#clip220)" fill="none" opacity="1" stroke="#000000" stroke-linecap="butt" stroke-linejoin="miter" stroke-miterlimit="2" stroke-opacity="1" stroke-width="1" transform="matrix(1,0,0,1,-18,-42)"><path d="M185.5,125.5 L230.5,125.5 L230.5,93.5" fill-rule="evenodd" vector-effect="none"/></g><defs><clipPath id="clip223"><path d="M-252,-23 L127,-23 L127,90 L-252,90 L-252,-23 z"/></clipPath></defs><g clip-path="url(#clip223)" fill="#000000" fill-opacity="1" opacity="1" stroke="none" stroke-opacity="0" transform="matrix(1,0,0,1,252,23)"><path d="M0,0 L-8,-4 L-8,4 L0,0 z" fill-rule="nonzero" vector-effect="none"/></g><defs><clipPath id="clip226"><path d="M18,42 L397,42 L397,155 L18,155 L18,42 z"/></clipPath></defs><g clip-path="url(#clip226)" fill="none" opacity="1" stroke="#000000" stroke-linecap="butt" stroke-linejoin="miter" stroke-miterlimit="2" stroke-opacity="1" stroke-width="1" transform="matrix(1,0,0,1,-18,-42)"><path d="M250.5,65.5 L262.5,65.5" fill-rule="evenodd" vector-effect="none"/></g><defs><clipPath id="clip229"><path d="M-192,-23 L187,-23 L187,90 L-192,90 L-192,-23 z"/></clipPath></defs><g clip-path="url(#clip229)" fill="#000000" fill-opacity="1" opacity="1" stroke="none" stroke-opacity="0" transform="matrix(1,0,0,1,192,23)"><path d="M0,0 L-8,-4 L-8,4 L0,0 z" fill-rule="nonzero" vector-effect="none"/></g><defs><clipPath id="clip232"><path d="M18,42 L397,42 L397,155 L18,155 L18,42 z"/></clipPath></defs><g clip-path="url(#clip232)" fill="none" opacity="1" stroke="#000000" stroke-linecap="butt" stroke-linejoin="miter" stroke-miterlimit="2" stroke-opacity="1" stroke-width="1" transform="matrix(1,0,0,1,-18,-42)"><path d="M190.5,65.5 L202.5,65.5" fill-rule="evenodd" vector-effect="none"/></g><defs><clipPath id="clip237"><path d="M18,42 L397,42 L397,155 L18,155 L18,42 z"/></clipPath></defs><g clip-path="url(#clip237)" fill="none" opacity="1" stroke="#000000" stroke-linecap="butt" stroke-linejoin="miter" stroke-miterlimit="2" stroke-opacity="1" stroke-width="1" transform="matrix(1,0,0,1,-18,-42)"><path d="M50.5,65.5 L55.5,65.5" fill-rule="evenodd" vector-effect="none"/></g><defs><clipPath id="clip240"><path d="M-102,-23 L277,-23 L277,90 L-102,90 L-102,-23 z"/></clipPath></defs><g clip-path="url(#clip240)" fill="#000000" fill-opacity="1" opacity="1" stroke="none" stroke-opacity="0" transform="matrix(1,0,0,1,102,23)"><path d="M0,0 L-8,-4 L-8,4 L0,0 z" fill-rule="nonzero" vector-effect="none"/></g><defs><clipPath id="clip243"><path d="M18,42 L397,42 L397,155 L18,155 L18,42 z"/></clipPath></defs><g clip-path="url(#clip243)" fill="none" opacity="1" stroke="#000000" stroke-linecap="butt" stroke-linejoin="miter" stroke-miterlimit="2" stroke-opacity="1" stroke-width="1" transform="matrix(1,0,0,1,-18,-42)"><path d="M55.5,65.5 L112.5,65.5" fill-rule="evenodd" vector-effect="none"/></g><defs><clipPath id="clip246"><path d="M-52,-73 L327,-73 L327,40 L-52,40 L-52,-73 z"/></clipPath></defs><g clip-path="url(#clip246)" fill="#000000" fill-opacity="1" opacity="1" stroke="none" stroke-opacity="0" transform="matrix(1,0,0,1,52,73)"><path d="M0,0 L-8,-4 L-8,4 L0,0 z" fill-rule="nonzero" vector-effect="none"/></g><defs><clipPath id="clip249"><path d="M18,42 L397,42 L397,155 L18,155 L18,42 z"/></clipPath></defs><g clip-path="url(#clip249)" fill="none" opacity="1" stroke="#000000" stroke-linecap="butt" stroke-linejoin="miter" stroke-miterlimit="2" stroke-opacity="1" stroke-width="1" transform="matrix(1,0,0,1,-18,-42)"><path d="M55.5,65.5 L55.5,115.5 L62.5,115.5" fill-rule="evenodd" vector-effect="none"/></g><defs><clipPath id="clip252"><path d="M-37,-23 L342,-23 L342,90 L-37,90 L-37,-23 z"/></clipPath></defs><g clip-path="url(#clip252)" fill="#000000" fill-opacity="1" opacity="1" stroke="none" stroke-opacity="0" transform="matrix(1,0,0,1,37,23)"><path d="M3,0.5 C3,1.88071 1.88071,3 0.5,3 C-0.880712,3 -2,1.88071 -2,0.5 C-2,-0.880712 -0.880712,-2 0.5,-2 C1.88071,-2 3,-0.880712 3,0.5 z" fill-rule="evenodd" vector-effect="none"/></g><defs><clipPath id="clip255"><path d="M-52,-88 L327,-88 L327,25 L-52,25 L-52,-88 z"/></clipPath></defs><g clip-path="url(#clip255)" fill="#000000" fill-opacity="1" opacity="1" stroke="none" stroke-opacity="0" transform="matrix(1,0,0,1,52,88)"><path d="M0,0 L-8,-4 L-8,4 L0,0 z" fill-rule="nonzero" vector-effect="none"/></g><defs><clipPath id="clip258"><path d="M18,42 L397,42 L397,155 L18,155 L18,42 z"/></clipPath></defs><g clip-path="url(#clip258)" fill="none" opacity="1" stroke="#000000" stroke-linecap="butt" stroke-linejoin="miter" stroke-miterlimit="2" stroke-opacity="1" stroke-width="1" transform="matrix(1,0,0,1,-18,-42)"><path d="M50.5,130.5 L62.5,130.5" fill-rule="evenodd" vector-effect="none"/></g><defs><clipPath id="clip261"><path d="M-347,-23 L32,-23 L32,90 L-347,90 L-347,-23 z"/></clipPath></defs><g clip-path="url(#clip261)" fill="#000000" fill-opacity="1" opacity="1" stroke="none" stroke-opacity="0" transform="matrix(1,0,0,1,347,23)"><path d="M0,0 L-8,-4 L-8,4 L0,0 z" fill-rule="nonzero" vector-effect="none"/></g><defs><clipPath id="clip264"><path d="M18,42 L397,42 L397,155 L18,155 L18,42 z"/></clipPath></defs><g clip-path="url(#clip264)" fill="none" opacity="1" stroke="#000000" stroke-linecap="butt" stroke-linejoin="miter" stroke-miterlimit="2" stroke-opacity="1" stroke-width="1" transform="matrix(1,0,0,1,-18,-42)"><path d="M330.5,65.5 L357.5,65.5" fill-rule="evenodd" vector-effect="none"/></g></g><!--generated on windows @ 2024-05-15 00:25:11 Hora estándar de Argentina--></svg>
